<svg id="Layer_1" data-name="Layer 1" xmlns="http://www.w3.org/2000/svg" viewBox="0 0 475.18 106.78"><defs><style>.cls-1{fill:#fff;}.cls-2{fill:#035c6e;}.cls-3{fill:#91d6e6;}</style></defs><title>Open-state-foundation-logo-tagline-en-extra</title><rect class="cls-1" width="475.18" height="106.78"/><path class="cls-2" d="M122.08,40.18,84.82,77.44a26.39,26.39,0,0,0,37.26-37.26"/><path class="cls-3" d="M128.84,29.26,91.58,66.52a26.39,26.39,0,0,1,37.26-37.26"/><path class="cls-2" d="M69.34,40.18,32.08,77.44A26.39,26.39,0,0,0,69.34,40.18"/><path class="cls-3" d="M67.26,38.1,30,75.36A26.39,26.39,0,0,1,67.26,38.1"/><path class="cls-2" d="M151.07,79.47a5.15,5.15,0,0,1-4.27-1.9c-1-1.26-1.52-3.16-1.52-5.68s.5-4.41,1.52-5.68a5.75,5.75,0,0,1,8.54,0,8.93,8.93,0,0,1,1.53,5.68c0,2.52-.51,4.42-1.53,5.68A5.15,5.15,0,0,1,151.07,79.47Zm0-.69a4.45,4.45,0,0,0,3.62-1.6A7.08,7.08,0,0,0,156,72.52V71.26a7.11,7.11,0,0,0-1.34-4.66,4.92,4.92,0,0,0-7.24,0,7.11,7.11,0,0,0-1.34,4.66v1.26a7.08,7.08,0,0,0,1.34,4.66A4.45,4.45,0,0,0,151.07,78.78Z"/><path class="cls-2" d="M160.27,68.55H161v1.66h.07a3.27,3.27,0,0,1,1.19-1.34,3.83,3.83,0,0,1,2.19-.57,4,4,0,0,1,3.26,1.42,6.4,6.4,0,0,1,1.17,4.17,6.44,6.44,0,0,1-1.17,4.17,4,4,0,0,1-3.26,1.41,3.83,3.83,0,0,1-2.19-.57,3.29,3.29,0,0,1-1.19-1.32H161v5.84h-.73Zm4.07,10.27a3.41,3.41,0,0,0,2.76-1.15,4.72,4.72,0,0,0,1-3.16V73.29a4.75,4.75,0,0,0-1-3.17A3.39,3.39,0,0,0,164.34,69a4.18,4.18,0,0,0-1.28.2,3.79,3.79,0,0,0-1.06.55,2.64,2.64,0,0,0-.72.84,2.13,2.13,0,0,0-.28,1.09v4.5a2.14,2.14,0,0,0,.28,1.1,2.83,2.83,0,0,0,.72.86,3.12,3.12,0,0,0,1.06.54A4.18,4.18,0,0,0,164.34,78.82Z"/><path class="cls-2" d="M175.91,79.47a4.2,4.2,0,0,1-3.35-1.42,6.22,6.22,0,0,1-1.22-4.16,6.32,6.32,0,0,1,1.19-4.15,4.06,4.06,0,0,1,3.3-1.44,4.16,4.16,0,0,1,1.79.38A3.93,3.93,0,0,1,179,69.75a4.85,4.85,0,0,1,.89,1.67,7.06,7.06,0,0,1,.32,2.17v.34h-8.11v.57a6.12,6.12,0,0,0,.25,1.78,3.87,3.87,0,0,0,.75,1.37,3.37,3.37,0,0,0,1.2.87,4,4,0,0,0,1.6.3,3.5,3.5,0,0,0,3.51-2.43l.57.31a4.45,4.45,0,0,1-1.51,2A4.25,4.25,0,0,1,175.91,79.47ZM175.83,69a3.89,3.89,0,0,0-1.57.31,3.2,3.2,0,0,0-1.16.87,4,4,0,0,0-.74,1.36,6.15,6.15,0,0,0-.25,1.77v.08h7.31v-.12a5.71,5.71,0,0,0-.26-1.76,4,4,0,0,0-.74-1.34,3.18,3.18,0,0,0-1.13-.86A3.5,3.5,0,0,0,175.83,69Z"/><path class="cls-2" d="M183.26,79.22V68.55H184v1.64h.06a3,3,0,0,1,1.1-1.33,3.74,3.74,0,0,1,2.18-.56,3.47,3.47,0,0,1,2.7,1,4.42,4.42,0,0,1,.93,3v6.84h-.73V72.5a3.92,3.92,0,0,0-.79-2.7,3,3,0,0,0-2.28-.85,4.33,4.33,0,0,0-1.19.17,3.06,3.06,0,0,0-1,.51,2.43,2.43,0,0,0-1,2v7.58Z"/><path class="cls-2" d="M207.12,77.58h-.06a3.39,3.39,0,0,1-1.2,1.32,3.83,3.83,0,0,1-2.19.57,4,4,0,0,1-3.26-1.41,6.44,6.44,0,0,1-1.17-4.17,6.4,6.4,0,0,1,1.17-4.17,4,4,0,0,1,3.26-1.42,3.83,3.83,0,0,1,2.19.57,3.37,3.37,0,0,1,1.2,1.34h.06V63.68h.73V79.22h-.73Zm-3.34,1.24a4.18,4.18,0,0,0,1.28-.19,2.95,2.95,0,0,0,1.79-1.4,2.24,2.24,0,0,0,.27-1.1v-4.5a2.23,2.23,0,0,0-.27-1.09,2.81,2.81,0,0,0-.73-.84,3.66,3.66,0,0,0-1.06-.55,4.18,4.18,0,0,0-1.28-.2A3.39,3.39,0,0,0,201,70.12a4.81,4.81,0,0,0-1,3.17v1.22a4.78,4.78,0,0,0,1,3.16A3.41,3.41,0,0,0,203.78,78.82Z"/><path class="cls-2" d="M218.69,79.22a.8.8,0,0,1-.9-.88v-.78h-.09a3.32,3.32,0,0,1-1.19,1.37,4,4,0,0,1-2.21.54,3.74,3.74,0,0,1-2.56-.79,2.87,2.87,0,0,1-.9-2.25,3.62,3.62,0,0,1,.21-1.26,2.31,2.31,0,0,1,.7-1,3.56,3.56,0,0,1,1.28-.63,7.57,7.57,0,0,1,1.94-.22h2.8V71.91a3,3,0,0,0-.74-2.23,3,3,0,0,0-2.18-.73,3.12,3.12,0,0,0-3.11,1.89l-.53-.35a3.78,3.78,0,0,1,1.31-1.59,4,4,0,0,1,2.35-.6,3.7,3.7,0,0,1,2.71.92,3.52,3.52,0,0,1,.92,2.61v6.74h1.64v.65Zm-4.33-.4a4.73,4.73,0,0,0,1.32-.18,3.37,3.37,0,0,0,1.08-.51,2.37,2.37,0,0,0,.73-.84,2.48,2.48,0,0,0,.28-1.18V73.93H215a4.31,4.31,0,0,0-2.56.6,1.89,1.89,0,0,0-.8,1.58v.59a1.83,1.83,0,0,0,.77,1.59A3.43,3.43,0,0,0,214.36,78.82Z"/><path class="cls-2" d="M223.77,79.22a.79.79,0,0,1-.9-.88V69.21h-1.93v-.66h1.38c.24,0,.4,0,.47-.14a.83.83,0,0,0,.12-.51V65.53h.69v3h2.5v.66h-2.5v9.36h2.33v.65Z"/><path class="cls-2" d="M235.93,79.22a.81.81,0,0,1-.9-.88v-.78h-.09a3.32,3.32,0,0,1-1.19,1.37,4,4,0,0,1-2.21.54,3.74,3.74,0,0,1-2.56-.79,2.87,2.87,0,0,1-.9-2.25,3.62,3.62,0,0,1,.21-1.26,2.31,2.31,0,0,1,.7-1,3.56,3.56,0,0,1,1.28-.63,7.62,7.62,0,0,1,1.94-.22H235V71.91a3,3,0,0,0-.74-2.23,3,3,0,0,0-2.18-.73A3.12,3.12,0,0,0,229,70.84l-.53-.35a3.78,3.78,0,0,1,1.31-1.59,4,4,0,0,1,2.35-.6,3.7,3.7,0,0,1,2.71.92,3.52,3.52,0,0,1,.92,2.61v6.74h1.64v.65Zm-4.33-.4a4.73,4.73,0,0,0,1.32-.18,3.37,3.37,0,0,0,1.08-.51,2.37,2.37,0,0,0,.73-.84,2.48,2.48,0,0,0,.28-1.18V73.93h-2.8a4.31,4.31,0,0,0-2.56.6,1.89,1.89,0,0,0-.8,1.58v.59a1.83,1.83,0,0,0,.77,1.59A3.43,3.43,0,0,0,231.6,78.82Z"/><path class="cls-2" d="M245.55,69.21h-1.91v-.66h1.91v-3.8c0-.71.34-1.07,1-1.07h2.1v.65h-2.4v4.22h2.4v.66h-2.4v10h-.73Z"/><path class="cls-2" d="M254.6,79.47a4.11,4.11,0,0,1-3.31-1.42,6.33,6.33,0,0,1-1.21-4.16,6.29,6.29,0,0,1,1.21-4.17,4.57,4.57,0,0,1,6.62,0,6.29,6.29,0,0,1,1.2,4.17,6.33,6.33,0,0,1-1.2,4.16A4.11,4.11,0,0,1,254.6,79.47Zm0-.65a3.38,3.38,0,0,0,2.75-1.16,4.91,4.91,0,0,0,1-3.2V73.32a4.88,4.88,0,0,0-1-3.21,3.84,3.84,0,0,0-5.5,0,4.83,4.83,0,0,0-1,3.21v1.14a4.85,4.85,0,0,0,1,3.2A3.38,3.38,0,0,0,254.6,78.82Z"/><path class="cls-2" d="M262.22,79.22V68.55H263v1.87H263a3.3,3.3,0,0,1,1.09-1.31,3.67,3.67,0,0,1,2.19-.56h.79v.7h-.92a4.22,4.22,0,0,0-1.24.17,3.18,3.18,0,0,0-1,.5,2.45,2.45,0,0,0-.7.83,2.34,2.34,0,0,0-.26,1.14v7.33Z"/><path class="cls-2" d="M281.65,77.58h-.07a3.36,3.36,0,0,1-1.19,1.32,3.83,3.83,0,0,1-2.19.57,4,4,0,0,1-3.26-1.41,6.44,6.44,0,0,1-1.17-4.17,6.4,6.4,0,0,1,1.17-4.17,4,4,0,0,1,3.26-1.42,3.83,3.83,0,0,1,2.19.57,3.34,3.34,0,0,1,1.19,1.34h.07V63.68h.73V79.22h-.73Zm-3.34,1.24a4.22,4.22,0,0,0,1.28-.19,3.12,3.12,0,0,0,1.06-.54,2.83,2.83,0,0,0,.72-.86,2.25,2.25,0,0,0,.28-1.1v-4.5a2.24,2.24,0,0,0-.28-1.09,2.64,2.64,0,0,0-.72-.84,3.79,3.79,0,0,0-1.06-.55,4.23,4.23,0,0,0-1.28-.2,3.39,3.39,0,0,0-2.76,1.17,4.75,4.75,0,0,0-1,3.17v1.22a4.72,4.72,0,0,0,1,3.16A3.41,3.41,0,0,0,278.31,78.82Z"/><path class="cls-2" d="M286.52,65.26a.67.67,0,0,1-.49-.16.58.58,0,0,1-.14-.39v-.19a.59.59,0,0,1,.13-.39.63.63,0,0,1,.48-.15.66.66,0,0,1,.48.15.56.56,0,0,1,.15.39v.19a.58.58,0,0,1-.14.39A.62.62,0,0,1,286.52,65.26Zm-.38,3.29h.73V79.22h-.73Z"/><path class="cls-2" d="M299.16,80.55a2.56,2.56,0,0,1-1.31,2.37,7.71,7.71,0,0,1-3.77.75,6.31,6.31,0,0,1-3.47-.73,2.42,2.42,0,0,1-.54-3.52,3.16,3.16,0,0,1,1.47-.89v-.09A1.4,1.4,0,0,1,290.47,77a1.44,1.44,0,0,1,.53-1.18,3.55,3.55,0,0,1,1.27-.65v-.06a3.32,3.32,0,0,1-1.44-1.22,3.64,3.64,0,0,1-.51-2,4.1,4.1,0,0,1,.26-1.48,3.15,3.15,0,0,1,.75-1.13,3.18,3.18,0,0,1,1.17-.73,4.73,4.73,0,0,1,1.56-.25,3.78,3.78,0,0,1,2.26.63v-.84c0-.52.25-.78.74-.78h2V68h-2.27v1.34a3.31,3.31,0,0,1,.74,1.13,3.78,3.78,0,0,1,.27,1.45,3.62,3.62,0,0,1-.28,1.46,3.31,3.31,0,0,1-.76,1.14,3.5,3.5,0,0,1-1.19.73,4.17,4.17,0,0,1-1.53.26,3.65,3.65,0,0,1-.59,0l-.57-.1a3.38,3.38,0,0,0-1.32.61,1.15,1.15,0,0,0-.46.94,1,1,0,0,0,.38.77,2.26,2.26,0,0,0,1.4.32h2.71a4.21,4.21,0,0,1,2.7.69A2.3,2.3,0,0,1,299.16,80.55Zm-.74,0a1.69,1.69,0,0,0-.62-1.41,3.57,3.57,0,0,0-2.21-.5h-3.34a3.17,3.17,0,0,0-1.43.76,2,2,0,0,0-.54,1.44,1.8,1.8,0,0,0,.84,1.54,4,4,0,0,0,2.37.6h1.15a8.08,8.08,0,0,0,1.54-.14,3.88,3.88,0,0,0,1.19-.45,2,2,0,0,0,.78-.75A2.12,2.12,0,0,0,298.42,80.59Zm-4.34-5.76a3.06,3.06,0,0,0,2.16-.71,2.39,2.39,0,0,0,.78-1.85v-.75a2.38,2.38,0,0,0-.78-1.85,3.63,3.63,0,0,0-4.34,0,2.4,2.4,0,0,0-.76,1.85v.75a2.42,2.42,0,0,0,.77,1.85A3.07,3.07,0,0,0,294.08,74.83Z"/><path class="cls-2" d="M302,65.26a.66.66,0,0,1-.48-.16.54.54,0,0,1-.15-.39v-.19a.6.6,0,0,1,.14-.39A.62.62,0,0,1,302,64a.67.67,0,0,1,.49.15.6.6,0,0,1,.14.39v.19a.58.58,0,0,1-.13.39A.64.64,0,0,1,302,65.26Zm-.38,3.29h.74V79.22h-.74Z"/><path class="cls-2" d="M307.77,79.22a.79.79,0,0,1-.9-.88V69.21h-1.94v-.66h1.39c.24,0,.4,0,.47-.14a.83.83,0,0,0,.12-.51V65.53h.69v3h2.5v.66h-2.5v9.36h2.33v.65Z"/><path class="cls-2" d="M319.93,79.22a.8.8,0,0,1-.9-.88v-.78h-.09a3.27,3.27,0,0,1-1.2,1.37,3.94,3.94,0,0,1-2.2.54,3.74,3.74,0,0,1-2.56-.79,2.88,2.88,0,0,1-.91-2.25,3.62,3.62,0,0,1,.21-1.26,2.34,2.34,0,0,1,.71-1,3.48,3.48,0,0,1,1.28-.63,7.57,7.57,0,0,1,1.94-.22H319V71.91a3,3,0,0,0-.73-2.23,3,3,0,0,0-2.18-.73A3.12,3.12,0,0,0,313,70.84l-.53-.35a3.83,3.83,0,0,1,1.3-1.59,4.08,4.08,0,0,1,2.36-.6,3.7,3.7,0,0,1,2.71.92,3.52,3.52,0,0,1,.92,2.61v6.74h1.64v.65Zm-4.33-.4a4.66,4.66,0,0,0,1.31-.18,3.32,3.32,0,0,0,1.09-.51,2.39,2.39,0,0,0,1-2V73.93h-2.79a4.31,4.31,0,0,0-2.56.6,1.89,1.89,0,0,0-.8,1.58v.59a1.83,1.83,0,0,0,.77,1.59A3.43,3.43,0,0,0,315.6,78.82Z"/><path class="cls-2" d="M324.8,79.22a.79.79,0,0,1-.9-.88V63.68h.73V78.57h1.74v.65Z"/><path class="cls-2" d="M335.78,79.22a.79.79,0,0,1-.9-.88V69.21H333v-.66h1.38c.24,0,.4,0,.47-.14a.83.83,0,0,0,.12-.51V65.53h.69v3h2.5v.66h-2.5v9.36h2.33v.65Z"/><path class="cls-2" d="M340.86,79.22V68.55h.74v1.87h.08a3.38,3.38,0,0,1,1.09-1.31,3.69,3.69,0,0,1,2.19-.56h.8v.7h-.93a4.27,4.27,0,0,0-1.24.17,3.18,3.18,0,0,0-1,.5,2.56,2.56,0,0,0-.7.83,2.46,2.46,0,0,0-.26,1.14v7.33Z"/><path class="cls-2" d="M355.1,79.22a.81.81,0,0,1-.9-.88v-.78h-.08a3.42,3.42,0,0,1-1.2,1.37,4,4,0,0,1-2.21.54,3.75,3.75,0,0,1-2.56-.79,2.87,2.87,0,0,1-.9-2.25,3.62,3.62,0,0,1,.21-1.26,2.31,2.31,0,0,1,.7-1,3.56,3.56,0,0,1,1.28-.63,7.62,7.62,0,0,1,1.94-.22h2.8V71.91a3,3,0,0,0-.74-2.23,3,3,0,0,0-2.18-.73,3.12,3.12,0,0,0-3.11,1.89l-.52-.35a3.69,3.69,0,0,1,1.3-1.59,4,4,0,0,1,2.35-.6,3.7,3.7,0,0,1,2.71.92,3.52,3.52,0,0,1,.92,2.61v6.74h1.64v.65Zm-4.32-.4a4.71,4.71,0,0,0,1.31-.18,3.37,3.37,0,0,0,1.08-.51,2.43,2.43,0,0,0,1-2V73.93h-2.8a4.31,4.31,0,0,0-2.56.6,1.89,1.89,0,0,0-.8,1.58v.59a1.83,1.83,0,0,0,.77,1.59A3.44,3.44,0,0,0,350.78,78.82Z"/><path class="cls-2" d="M359.07,79.22V68.55h.73v1.64h.07a3,3,0,0,1,1.1-1.33,3.73,3.73,0,0,1,2.17-.56,3.45,3.45,0,0,1,2.7,1,4.38,4.38,0,0,1,.94,3v6.84H366V72.5a3.87,3.87,0,0,0-.79-2.7A3,3,0,0,0,363,69a4.28,4.28,0,0,0-1.19.17,2.88,2.88,0,0,0-1,.51,2.47,2.47,0,0,0-1,2v7.58Z"/><path class="cls-2" d="M373.45,79.47a5.12,5.12,0,0,1-2.29-.48,4.54,4.54,0,0,1-1.72-1.51l.57-.42a4.49,4.49,0,0,0,1.52,1.35,4.19,4.19,0,0,0,2,.41,3.35,3.35,0,0,0,2.16-.59,2,2,0,0,0,.73-1.7,2,2,0,0,0-.62-1.59,3.87,3.87,0,0,0-1.9-.74l-.9-.14a6.4,6.4,0,0,1-1.29-.32,3.08,3.08,0,0,1-1-.56,2.33,2.33,0,0,1-.63-.85,3.11,3.11,0,0,1-.22-1.21,2.74,2.74,0,0,1,.26-1.22,2.42,2.42,0,0,1,.74-.88,3.28,3.28,0,0,1,1.11-.54,5.11,5.11,0,0,1,1.38-.18,4.49,4.49,0,0,1,2.18.47,5.39,5.39,0,0,1,1.39,1.11l-.53.48a4.16,4.16,0,0,0-.51-.52,3.88,3.88,0,0,0-.64-.46,3.68,3.68,0,0,0-.83-.31,4.46,4.46,0,0,0-1.08-.12,3.37,3.37,0,0,0-2,.55,1.83,1.83,0,0,0-.74,1.6,1.86,1.86,0,0,0,.63,1.56,4.18,4.18,0,0,0,1.91.7l.9.15a4.63,4.63,0,0,1,2.3.91,2.54,2.54,0,0,1,.81,2,2.7,2.7,0,0,1-1,2.22A4.12,4.12,0,0,1,373.45,79.47Z"/><path class="cls-2" d="M380,68.55h.73v1.66h.07A3.27,3.27,0,0,1,382,68.87a3.83,3.83,0,0,1,2.19-.57,4,4,0,0,1,3.26,1.42,6.4,6.4,0,0,1,1.17,4.17,6.44,6.44,0,0,1-1.17,4.17,4,4,0,0,1-3.26,1.41A3.83,3.83,0,0,1,382,78.9a3.29,3.29,0,0,1-1.19-1.32h-.07v5.84H380Zm4.07,10.27a3.41,3.41,0,0,0,2.76-1.15,4.78,4.78,0,0,0,1-3.16V73.29a4.81,4.81,0,0,0-1-3.17A3.39,3.39,0,0,0,384.1,69a4.18,4.18,0,0,0-1.28.2,3.66,3.66,0,0,0-1.06.55,2.64,2.64,0,0,0-.72.84,2.13,2.13,0,0,0-.28,1.09v4.5a2.14,2.14,0,0,0,.28,1.1,2.83,2.83,0,0,0,.72.86,3,3,0,0,0,1.06.54A4.18,4.18,0,0,0,384.1,78.82Z"/><path class="cls-2" d="M398.86,79.22a.81.81,0,0,1-.9-.88v-.78h-.08a3.27,3.27,0,0,1-1.2,1.37,4,4,0,0,1-2.2.54,3.78,3.78,0,0,1-2.57-.79,2.87,2.87,0,0,1-.9-2.25,3.62,3.62,0,0,1,.21-1.26,2.31,2.31,0,0,1,.7-1,3.53,3.53,0,0,1,1.29-.63,7.57,7.57,0,0,1,1.94-.22h2.79V71.91a3,3,0,0,0-.73-2.23A3,3,0,0,0,395,69a3.13,3.13,0,0,0-3.11,1.89l-.52-.35a3.76,3.76,0,0,1,1.3-1.59,4,4,0,0,1,2.35-.6,3.69,3.69,0,0,1,2.71.92,3.48,3.48,0,0,1,.93,2.61v6.74h1.63v.65Zm-4.32-.4a4.66,4.66,0,0,0,1.31-.18,3.37,3.37,0,0,0,1.08-.51,2.39,2.39,0,0,0,.74-.84,2.48,2.48,0,0,0,.27-1.18V73.93h-2.79a4.29,4.29,0,0,0-2.56.6,1.87,1.87,0,0,0-.8,1.58v.59a1.82,1.82,0,0,0,.76,1.59A3.46,3.46,0,0,0,394.54,78.82Z"/><path class="cls-2" d="M402.81,79.22V68.55h.74v1.87h.08a3.3,3.3,0,0,1,1.09-1.31,3.69,3.69,0,0,1,2.19-.56h.8v.7h-.93a4.22,4.22,0,0,0-1.24.17,3.18,3.18,0,0,0-1,.5,2.45,2.45,0,0,0-.7.83,2.34,2.34,0,0,0-.26,1.14v7.33Z"/><path class="cls-2" d="M413.59,79.47a4.17,4.17,0,0,1-3.35-1.42A6.22,6.22,0,0,1,409,73.89a6.37,6.37,0,0,1,1.19-4.15,4.06,4.06,0,0,1,3.3-1.44,4.24,4.24,0,0,1,1.8.38,3.9,3.9,0,0,1,1.38,1.07,4.85,4.85,0,0,1,.89,1.67,7.06,7.06,0,0,1,.32,2.17v.34h-8.11v.57a5.79,5.79,0,0,0,.26,1.78,3.7,3.7,0,0,0,.74,1.37,3.37,3.37,0,0,0,1.2.87,4.06,4.06,0,0,0,1.61.3,3.5,3.5,0,0,0,3.5-2.43l.57.31a4.45,4.45,0,0,1-1.51,2A4.24,4.24,0,0,1,413.59,79.47ZM413.5,69a3.81,3.81,0,0,0-1.56.31,3.15,3.15,0,0,0-1.17.87,3.78,3.78,0,0,0-.73,1.36,5.82,5.82,0,0,0-.26,1.77v.08h7.31v-.12a5.71,5.71,0,0,0-.26-1.76,4,4,0,0,0-.74-1.34,3.18,3.18,0,0,0-1.13-.86A3.5,3.5,0,0,0,413.5,69Z"/><path class="cls-2" d="M420.93,79.22V68.55h.74v1.64h.06a3,3,0,0,1,1.11-1.33A3.71,3.71,0,0,1,425,68.3a3.47,3.47,0,0,1,2.7,1,4.42,4.42,0,0,1,.93,3v6.84h-.73V72.5a3.92,3.92,0,0,0-.79-2.7,3,3,0,0,0-2.28-.85,4.33,4.33,0,0,0-1.19.17,2.92,2.92,0,0,0-1,.51,2.42,2.42,0,0,0-.71.84,2.52,2.52,0,0,0-.26,1.17v7.58Z"/><path class="cls-2" d="M436.16,79.47a4.09,4.09,0,0,1-3.33-1.42,6.39,6.39,0,0,1-1.19-4.16,6.34,6.34,0,0,1,1.19-4.17,4.09,4.09,0,0,1,3.33-1.42,3.9,3.9,0,0,1,2.23.6,4,4,0,0,1,1.36,1.61l-.61.31A3.72,3.72,0,0,0,438,69.44a3.1,3.1,0,0,0-1.82-.49,3.36,3.36,0,0,0-2.76,1.18,4.82,4.82,0,0,0-1,3.15V74.5a4.85,4.85,0,0,0,1,3.15,3.35,3.35,0,0,0,2.76,1.17,3.54,3.54,0,0,0,2-.49A3.72,3.72,0,0,0,439.37,77l.55.38a4.29,4.29,0,0,1-1.43,1.56A4.21,4.21,0,0,1,436.16,79.47Z"/><path class="cls-2" d="M449.41,68.55h.74l-5.21,14.18a1,1,0,0,1-1.09.69h-1.56v-.65h1.89l1.26-3.34-4-10.88h.78l3.57,9.87h.06Z"/><path class="cls-2" d="M160.3,44.73a8.79,8.79,0,0,1-.64,3.42,7.7,7.7,0,0,1-4.52,4.35,10,10,0,0,1-6.83,0,8.09,8.09,0,0,1-2.72-1.7,7.9,7.9,0,0,1-1.79-2.65,8.79,8.79,0,0,1-.64-3.42,8.67,8.67,0,0,1,.64-3.41,7.56,7.56,0,0,1,1.79-2.59,8.13,8.13,0,0,1,2.72-1.65,10.52,10.52,0,0,1,6.83,0,8,8,0,0,1,2.73,1.65,7.56,7.56,0,0,1,1.79,2.59A8.67,8.67,0,0,1,160.3,44.73Zm-4.07,0a5.48,5.48,0,0,0-.33-1.91A4.55,4.55,0,0,0,155,41.3a4.19,4.19,0,0,0-1.43-1,4.37,4.37,0,0,0-1.83-.37,4.29,4.29,0,0,0-1.82.37,4.39,4.39,0,0,0-1.43,1,4.24,4.24,0,0,0-.92,1.52,5.47,5.47,0,0,0-.32,1.91,5.66,5.66,0,0,0,.33,2,4.69,4.69,0,0,0,.92,1.55,4.23,4.23,0,0,0,1.42,1,4.48,4.48,0,0,0,5.07-1,4.55,4.55,0,0,0,.93-1.55A5.66,5.66,0,0,0,156.23,44.73Z"/><path class="cls-2" d="M175.63,41.78a4.82,4.82,0,0,1-.51,2.32,4.13,4.13,0,0,1-1.38,1.52,6.1,6.1,0,0,1-2,.85,10.23,10.23,0,0,1-2.36.27h-1.89v5.93h-3.8V36.93h5.78a10.87,10.87,0,0,1,2.41.25,5.69,5.69,0,0,1,2,.83,4,4,0,0,1,1.31,1.49A4.87,4.87,0,0,1,175.63,41.78Zm-3.8,0a1.66,1.66,0,0,0-.23-.91,1.54,1.54,0,0,0-.6-.56,2.82,2.82,0,0,0-.85-.27,8,8,0,0,0-1-.06h-1.67v3.71h1.6a5.53,5.53,0,0,0,1-.09,2.7,2.7,0,0,0,.88-.31,1.65,1.65,0,0,0,.61-.59A1.72,1.72,0,0,0,171.83,41.8Z"/><path class="cls-2" d="M178.45,52.67V36.93H189v3.2h-6.92v3h6.54v3h-6.54v3.27h7.32v3.24Z"/><path class="cls-2" d="M203,52.67l-6.34-10.29h-.07l.09,10.29H193V36.93h4.34l6.31,10.27h.07l-.09-10.27h3.69V52.67Z"/><path class="cls-2" d="M226.22,41A3.51,3.51,0,0,0,225,40a3.72,3.72,0,0,0-1.53-.37,5.12,5.12,0,0,0-.77.07,1.91,1.91,0,0,0-.7.26,1.73,1.73,0,0,0-.52.49,1.29,1.29,0,0,0-.21.76,1.26,1.26,0,0,0,.17.67,1.48,1.48,0,0,0,.49.47,4.5,4.5,0,0,0,.76.36l1,.35c.54.18,1.09.37,1.67.59a6.15,6.15,0,0,1,1.58.85,4.44,4.44,0,0,1,1.18,1.33,3.8,3.8,0,0,1,.47,2,5.18,5.18,0,0,1-.5,2.34,4.82,4.82,0,0,1-1.35,1.64,5.62,5.62,0,0,1-1.93.95,8.09,8.09,0,0,1-2.25.31,9.1,9.1,0,0,1-3.27-.59,6.9,6.9,0,0,1-2.62-1.67l2.49-2.54a4.48,4.48,0,0,0,1.52,1.19,4.13,4.13,0,0,0,1.88.48,3.68,3.68,0,0,0,.82-.09,2.11,2.11,0,0,0,.7-.29,1.45,1.45,0,0,0,.48-.53,1.69,1.69,0,0,0,.18-.8,1.26,1.26,0,0,0-.22-.76,2.12,2.12,0,0,0-.64-.57,4.9,4.9,0,0,0-1-.46c-.41-.14-.87-.3-1.39-.46a13.35,13.35,0,0,1-1.48-.58,5.15,5.15,0,0,1-1.29-.85,4,4,0,0,1-.91-1.27,4.3,4.3,0,0,1-.35-1.81,4.41,4.41,0,0,1,.54-2.25,4.6,4.6,0,0,1,1.4-1.54,5.9,5.9,0,0,1,2-.87,8.62,8.62,0,0,1,2.2-.28,8,8,0,0,1,2.72.49,7,7,0,0,1,2.44,1.44Z"/><path class="cls-2" d="M239.06,40.18V52.67h-3.81V40.18h-4.44V36.93H243.5v3.25Z"/><path class="cls-2" d="M255.49,52.67l-1.22-3.09h-6.1L247,52.67h-4.14l6.61-15.74h3.69l6.54,15.74Zm-4.22-11.54-2,5.41h4Z"/><path class="cls-2" d="M267.32,40.18V52.67h-3.8V40.18h-4.45V36.93h12.7v3.25Z"/><path class="cls-2" d="M274.33,52.67V36.93h10.59v3.2H278v3h6.54v3H278v3.27h7.32v3.24Z"/><path class="cls-2" d="M295.34,36.93H305.5v2.44h-7.36v4.32h6.94v2.36h-6.94v6.62h-2.8Z"/><path class="cls-2" d="M308,44.76a8.91,8.91,0,0,1,.63-3.42,7.48,7.48,0,0,1,1.76-2.59A7.73,7.73,0,0,1,313,37.11a9.43,9.43,0,0,1,3.37-.58,9.59,9.59,0,0,1,3.4.58,7.82,7.82,0,0,1,2.69,1.64,7.37,7.37,0,0,1,1.77,2.59,8.91,8.91,0,0,1,.63,3.42,8.76,8.76,0,0,1-.63,3.37,7.68,7.68,0,0,1-1.77,2.62,8,8,0,0,1-2.69,1.71,9.18,9.18,0,0,1-3.4.61,9,9,0,0,1-3.37-.61,7.89,7.89,0,0,1-2.67-1.71,7.8,7.8,0,0,1-1.76-2.62A8.76,8.76,0,0,1,308,44.76Zm3,0a6.64,6.64,0,0,0,.39,2.32,5.29,5.29,0,0,0,1.12,1.84,5.21,5.21,0,0,0,1.71,1.21,5.38,5.38,0,0,0,2.19.43,5.47,5.47,0,0,0,2.2-.43,5.15,5.15,0,0,0,1.72-1.21,5.29,5.29,0,0,0,1.12-1.84,6.64,6.64,0,0,0,.39-2.32,6.4,6.4,0,0,0-.39-2.27,5.62,5.62,0,0,0-1.1-1.83A5.23,5.23,0,0,0,316.42,39a5.14,5.14,0,0,0-3.91,1.66,5.48,5.48,0,0,0-1.11,1.83A6.4,6.4,0,0,0,311,44.76Z"/><path class="cls-2" d="M341,46.89a6.4,6.4,0,0,1-.49,2.57,5.82,5.82,0,0,1-1.33,1.95,5.9,5.9,0,0,1-2,1.23,7.57,7.57,0,0,1-5,0,6,6,0,0,1-2-1.23,5.7,5.7,0,0,1-1.34-1.95,6.76,6.76,0,0,1-.47-2.57v-10h2.8v9.85a5.31,5.31,0,0,0,.18,1.37,3.18,3.18,0,0,0,.59,1.21,2.88,2.88,0,0,0,1.09.87,4.42,4.42,0,0,0,3.35,0,2.88,2.88,0,0,0,1.09-.87,3.33,3.33,0,0,0,.59-1.21,5.31,5.31,0,0,0,.18-1.37V36.93H341Z"/><path class="cls-2" d="M345.24,36.93H349l7.31,11.79h.05V36.93h2.8V52.67h-3.56l-7.47-12.16h0V52.67h-2.8Z"/><path class="cls-2" d="M363.5,36.93h5.58a12.13,12.13,0,0,1,3.09.4A8.17,8.17,0,0,1,375,38.65a7,7,0,0,1,2,2.43,8,8,0,0,1,.78,3.72,7.57,7.57,0,0,1-.78,3.56,7.36,7.36,0,0,1-2,2.45,8.74,8.74,0,0,1-2.81,1.41,11,11,0,0,1-3.09.45H363.5Zm5.14,13.3a9.55,9.55,0,0,0,2.18-.26,5.65,5.65,0,0,0,2-.87,4.62,4.62,0,0,0,1.43-1.65,5.62,5.62,0,0,0,.56-2.65,6,6,0,0,0-.56-2.76,4.49,4.49,0,0,0-1.43-1.66,5.4,5.4,0,0,0-2-.83,10.75,10.75,0,0,0-2.18-.22H366.3v10.9Z"/><path class="cls-2" d="M385.59,36.93H388l6.78,15.74h-3.2l-1.47-3.6h-6.83l-1.42,3.6h-3.13Zm3.55,9.74-2.42-6.41-2.47,6.41Z"/><path class="cls-2" d="M398.93,39.37H394.1V36.93h12.46v2.44h-4.83v13.3h-2.8Z"/><path class="cls-2" d="M409.23,36.93H412V52.67h-2.8Z"/><path class="cls-2" d="M415.63,44.76a8.72,8.72,0,0,1,.64-3.42A7.46,7.46,0,0,1,418,38.75a7.73,7.73,0,0,1,2.67-1.64,9.43,9.43,0,0,1,3.37-.58,9.56,9.56,0,0,1,3.4.58,7.72,7.72,0,0,1,2.69,1.64,7.37,7.37,0,0,1,1.77,2.59,8.72,8.72,0,0,1,.64,3.42,8.58,8.58,0,0,1-.64,3.37,7.68,7.68,0,0,1-1.77,2.62,7.88,7.88,0,0,1-2.69,1.71,9.14,9.14,0,0,1-3.4.61,9,9,0,0,1-3.37-.61A7.89,7.89,0,0,1,418,50.75a7.78,7.78,0,0,1-1.75-2.62A8.58,8.58,0,0,1,415.63,44.76Zm3.05,0a6.64,6.64,0,0,0,.39,2.32,5.42,5.42,0,0,0,1.11,1.84,5.21,5.21,0,0,0,1.71,1.21,5.38,5.38,0,0,0,2.19.43,5.51,5.51,0,0,0,2.21-.43A5.25,5.25,0,0,0,428,48.92a5.42,5.42,0,0,0,1.11-1.84,6.64,6.64,0,0,0,.39-2.32,6.4,6.4,0,0,0-.39-2.27,5.62,5.62,0,0,0-1.1-1.83,5.28,5.28,0,0,0-1.71-1.22,5.38,5.38,0,0,0-2.23-.44,5.14,5.14,0,0,0-3.91,1.66,5.45,5.45,0,0,0-1.1,1.83A6.4,6.4,0,0,0,418.68,44.76Z"/><path class="cls-2" d="M436.11,36.93h3.72l7.32,11.79h0V36.93H450V52.67h-3.56L439,40.51h0V52.67h-2.81Z"/></svg>