<svg id="Layer_1" data-name="Layer 1" xmlns="http://www.w3.org/2000/svg" viewBox="0 0 385.02 118.66"><defs><style>.cls-1{fill:#035c6e;}.cls-2{fill:#7dd0e3;}</style></defs><title>Open-state-foundation-logo</title><path class="cls-1" d="M141.26,43.61,96.76,88.1a31.51,31.51,0,0,0,44.5-44.49"/><path class="cls-2" d="M149.33,30.57,104.84,75.06a31.51,31.51,0,0,1,44.49-44.49"/><path class="cls-1" d="M78.28,43.61,33.79,88.1A31.51,31.51,0,0,0,78.28,43.61"/><path class="cls-2" d="M75.8,41.12,31.3,85.62a31.52,31.52,0,0,1,44.5-44.5"/><path class="cls-1" d="M345.61,87.28h3.26V73.15h.05l8.68,14.13h4.14V69h-3.26V82.68h-.05L349.93,69h-4.32ZM324.28,75.45a6.23,6.23,0,0,1,1.28-2.12,5.81,5.81,0,0,1,2-1.42,6.15,6.15,0,0,1,2.57-.52,6.24,6.24,0,0,1,2.59.52,5.8,5.8,0,0,1,2,1.42A6.57,6.57,0,0,1,336,75.45a7.45,7.45,0,0,1,.45,2.63,7.8,7.8,0,0,1-.45,2.7,6.39,6.39,0,0,1-1.3,2.13,5.81,5.81,0,0,1-2,1.41,6.29,6.29,0,0,1-2.56.5,6.16,6.16,0,0,1-2.54-.5,5.87,5.87,0,0,1-2-1.41,6.21,6.21,0,0,1-1.29-2.13,7.8,7.8,0,0,1-.46-2.7,7.45,7.45,0,0,1,.46-2.63M321,82a9,9,0,0,0,5.14,5,10.43,10.43,0,0,0,3.92.71A10.55,10.55,0,0,0,334,87a9.15,9.15,0,0,0,3.13-2,8.92,8.92,0,0,0,2-3,10.14,10.14,0,0,0,.74-3.92,10.29,10.29,0,0,0-.74-4,8.61,8.61,0,0,0-2-3A9.28,9.28,0,0,0,334,69.19a11.18,11.18,0,0,0-3.95-.67,11.05,11.05,0,0,0-3.92.67,9.24,9.24,0,0,0-3.1,1.91,8.72,8.72,0,0,0-2,3,10.29,10.29,0,0,0-.74,4A10.14,10.14,0,0,0,321,82m-9.69,5.28h3.25V69h-3.25Zm-13.5,0h3.25V71.83h5.61V69H292.22v2.84h5.61Zm-18.46-7,2.87-7.44,2.81,7.44Zm-6.41,7h3.64l1.66-4.19h7.93l1.71,4.19h3.72L283.73,69h-2.81Zm-15.9-2.84V71.78h2.71a12.77,12.77,0,0,1,2.53.25,6.4,6.4,0,0,1,2.29,1,5.2,5.2,0,0,1,1.66,1.94,6.8,6.8,0,0,1,.65,3.2,6.42,6.42,0,0,1-.65,3.08,5.29,5.29,0,0,1-1.66,1.92,6.49,6.49,0,0,1-2.29,1,10.93,10.93,0,0,1-2.53.3Zm-3.26,2.84h6.49a12.9,12.9,0,0,0,3.59-.53,9.77,9.77,0,0,0,3.25-1.64,8.39,8.39,0,0,0,2.35-2.84,8.78,8.78,0,0,0,.91-4.14,9.28,9.28,0,0,0-.91-4.33A7.92,7.92,0,0,0,267.13,71a9.2,9.2,0,0,0-3.25-1.54,14.43,14.43,0,0,0-3.59-.46H253.8Zm-22.74,0h3.26V73.15h.05l8.68,14.13h4.14V69h-3.26V82.68h-.05L235.38,69h-4.32ZM224.57,69h-3.25V80.43a6.09,6.09,0,0,1-.21,1.59,4,4,0,0,1-.68,1.41,3.58,3.58,0,0,1-1.27,1,4.4,4.4,0,0,1-1.95.38,4.35,4.35,0,0,1-2-.38,3.58,3.58,0,0,1-1.27-1,3.85,3.85,0,0,1-.68-1.41,6.09,6.09,0,0,1-.21-1.59V69h-3.26V80.56a7.73,7.73,0,0,0,.56,3A6.55,6.55,0,0,0,212,85.81a7,7,0,0,0,2.34,1.43,8.78,8.78,0,0,0,5.84,0,6.86,6.86,0,0,0,2.32-1.43A6.55,6.55,0,0,0,224,83.55a7.55,7.55,0,0,0,.57-3ZM188.7,75.45A6.4,6.4,0,0,1,190,73.33a5.81,5.81,0,0,1,2-1.42,6.15,6.15,0,0,1,2.57-.52,6.24,6.24,0,0,1,2.59.52,5.8,5.8,0,0,1,2,1.42,6.4,6.4,0,0,1,1.28,2.12,7.45,7.45,0,0,1,.45,2.63,7.8,7.8,0,0,1-.45,2.7,6.37,6.37,0,0,1-1.29,2.13,5.85,5.85,0,0,1-2,1.41,6.29,6.29,0,0,1-2.56.5,6.19,6.19,0,0,1-2.54-.5,5.87,5.87,0,0,1-2-1.41,6.21,6.21,0,0,1-1.29-2.13,7.8,7.8,0,0,1-.45-2.7,7.45,7.45,0,0,1,.45-2.63M185.44,82a9,9,0,0,0,5.14,5,11.26,11.26,0,0,0,7.87,0,9.15,9.15,0,0,0,3.13-2,8.92,8.92,0,0,0,2-3,10.14,10.14,0,0,0,.74-3.92,10.29,10.29,0,0,0-.74-4,8.61,8.61,0,0,0-2-3,9.28,9.28,0,0,0-3.13-1.91,11.89,11.89,0,0,0-7.87,0,9.24,9.24,0,0,0-3.1,1.91,8.72,8.72,0,0,0-2,3,10.29,10.29,0,0,0-.73,4,10.14,10.14,0,0,0,.73,3.92m-16.93,5.28h3.26v-7.7h8.06V76.84h-8.06v-5h8.55V69H168.51Z"/><path class="cls-1" d="M282,42.62a9.16,9.16,0,0,0-3.23-1.92,10.74,10.74,0,0,0-3.62-.65,11.65,11.65,0,0,0-2.93.37,8,8,0,0,0-2.6,1.16,6.27,6.27,0,0,0-1.86,2,6,6,0,0,0-.71,3,5.66,5.66,0,0,0,.46,2.41,5.17,5.17,0,0,0,1.21,1.68,6.72,6.72,0,0,0,1.71,1.14,19.61,19.61,0,0,0,2,.77c.69.21,1.3.41,1.85.6a7.16,7.16,0,0,1,1.35.62,2.9,2.9,0,0,1,.85.76,1.71,1.71,0,0,1,.29,1,2.3,2.3,0,0,1-.23,1.06,1.84,1.84,0,0,1-.64.71,2.77,2.77,0,0,1-.93.39,4.92,4.92,0,0,1-1.09.11,5.54,5.54,0,0,1-2.5-.63,6,6,0,0,1-2-1.58L266,59a9.16,9.16,0,0,0,3.48,2.23,12.39,12.39,0,0,0,4.35.78,11,11,0,0,0,3-.41,7.73,7.73,0,0,0,2.57-1.27,6.21,6.21,0,0,0,1.79-2.17,6.9,6.9,0,0,0,.66-3.12,5,5,0,0,0-.62-2.62,6,6,0,0,0-1.56-1.76,8.16,8.16,0,0,0-2.1-1.13c-.77-.29-1.51-.55-2.22-.79-.49-.15-.93-.31-1.33-.45a6.07,6.07,0,0,1-1-.49,2.15,2.15,0,0,1-.65-.62,1.72,1.72,0,0,1-.22-.89,1.8,1.8,0,0,1,.28-1,2.42,2.42,0,0,1,.7-.65,2.71,2.71,0,0,1,.93-.34,5.86,5.86,0,0,1,1-.09,4.86,4.86,0,0,1,2,.49,4.61,4.61,0,0,1,1.7,1.32Z"/><path class="cls-1" d="M183,53.57a6.21,6.21,0,0,1-1.24,2A5.66,5.66,0,0,1,179.83,57,6.25,6.25,0,0,1,175,57a5.48,5.48,0,0,1-1.87-1.34,6,6,0,0,1-1.23-2,7.39,7.39,0,0,1-.44-2.62,7.56,7.56,0,0,1,.42-2.54,5.8,5.8,0,0,1,1.23-2A5.63,5.63,0,0,1,175,45.06a5.82,5.82,0,0,1,2.42-.49,5.91,5.91,0,0,1,2.44.49,5.44,5.44,0,0,1,1.89,1.33,6.12,6.12,0,0,1,1.23,2A7.33,7.33,0,0,1,183.4,51a7.62,7.62,0,0,1-.44,2.62m5-7.15A9.91,9.91,0,0,0,185.57,43,10.55,10.55,0,0,0,182,40.79a13.77,13.77,0,0,0-9.08,0A10.7,10.7,0,0,0,169.26,43a10,10,0,0,0-2.37,3.45A11.33,11.33,0,0,0,166,51a11.52,11.52,0,0,0,.86,4.54A10.27,10.27,0,0,0,169.26,59a10.57,10.57,0,0,0,3.61,2.26,13.28,13.28,0,0,0,9.08,0A10.43,10.43,0,0,0,185.57,59,10.15,10.15,0,0,0,188,55.49a11.7,11.7,0,0,0,.86-4.54,11.5,11.5,0,0,0-.86-4.53"/><path class="cls-1" d="M361.74,61.5V57.19H352V52.84h8.69V48.79H352V44.84h9.19V40.58H347.14V61.5Zm-19.4-16.61V40.58H325.46v4.31h5.91V61.5h5.06V44.89Zm-25.9,8.45h-5.26l2.66-7.17Zm8.63,8.16-8.69-20.92h-4.9L302.7,61.5h5.5l1.54-4.11h8.09l1.63,4.11ZM302.29,44.89V40.58H285.42v4.31h5.91V61.5h5.05V44.89Z"/><path class="cls-1" d="M254.17,61.5V40.58h-4.9l.11,13.65h-.08l-8.4-13.65h-5.76V61.5h4.91l-.12-13.68H240l8.42,13.68Zm-25.2,0V57.19h-9.72V52.84h8.68V48.79h-8.68v-4h9.19V40.58H214.37V61.5Z"/><path class="cls-1" d="M204.34,48.28a2.33,2.33,0,0,1-.81.78,3.69,3.69,0,0,1-1.17.41,7.48,7.48,0,0,1-1.36.12h-2.13V44.66h2.22a9.54,9.54,0,0,1,1.32.09,3.33,3.33,0,0,1,1.13.35,2,2,0,0,1,.8.74,2.21,2.21,0,0,1,.3,1.21,2.34,2.34,0,0,1-.3,1.23M209.05,44a5.36,5.36,0,0,0-1.74-2,7.72,7.72,0,0,0-2.6-1.09,14.18,14.18,0,0,0-3.21-.34h-7.68V61.5h5.05V53.61h2.52a14,14,0,0,0,3.13-.35,8.07,8.07,0,0,0,2.66-1.13,5.48,5.48,0,0,0,1.83-2,7.43,7.43,0,0,0,0-6.12"/></svg>