<svg id="Layer_1" data-name="Layer 1" xmlns="http://www.w3.org/2000/svg" viewBox="0 0 475.18 106.78"><defs><style>.cls-1{fill:#fff;}.cls-2{fill:#035c6e;}.cls-3{fill:#91d6e6;}</style></defs><title>Open-state-foundation-logo-tagline-nl-extra</title><rect class="cls-1" width="475.18" height="106.78"/><path class="cls-2" d="M122.08,40.18,84.82,77.44a26.39,26.39,0,0,0,37.26-37.26"/><path class="cls-3" d="M128.84,29.26,91.58,66.52a26.39,26.39,0,0,1,37.26-37.26"/><path class="cls-2" d="M69.34,40.18,32.08,77.44A26.39,26.39,0,0,0,69.34,40.18"/><path class="cls-3" d="M67.26,38.1,30,75.36A26.39,26.39,0,0,1,67.26,38.1"/><path class="cls-2" d="M150.49,79.45a4.75,4.75,0,0,1-3.93-1.74,8.27,8.27,0,0,1-1.4-5.22,8.23,8.23,0,0,1,1.4-5.22,5.29,5.29,0,0,1,7.86,0,8.23,8.23,0,0,1,1.39,5.22,8.27,8.27,0,0,1-1.39,5.22A4.78,4.78,0,0,1,150.49,79.45Zm0-.63a4.12,4.12,0,0,0,3.33-1.47A6.58,6.58,0,0,0,155,73.07V71.91a6.59,6.59,0,0,0-1.22-4.29,4.53,4.53,0,0,0-6.66,0,6.53,6.53,0,0,0-1.23,4.29v1.16a6.52,6.52,0,0,0,1.23,4.28A4.1,4.1,0,0,0,150.49,78.82Z"/><path class="cls-2" d="M159,69.42h.68v1.52h.05a3,3,0,0,1,1.1-1.23,3.53,3.53,0,0,1,2-.52,3.65,3.65,0,0,1,3,1.3,5.87,5.87,0,0,1,1.07,3.83,5.87,5.87,0,0,1-1.07,3.83,3.65,3.65,0,0,1-3,1.3,3.53,3.53,0,0,1-2-.52,3.16,3.16,0,0,1-1.1-1.22h-.05v5.37H159Zm3.74,9.43a3.13,3.13,0,0,0,2.54-1.06,4.34,4.34,0,0,0,.9-2.9V73.77a4.37,4.37,0,0,0-.9-2.91,3.11,3.11,0,0,0-2.54-1.08,3.77,3.77,0,0,0-1.17.19,3.23,3.23,0,0,0-1,.5,2.44,2.44,0,0,0-.66.77,2,2,0,0,0-.25,1v4.14a2,2,0,0,0,.25,1,2.51,2.51,0,0,0,.66.79,2.84,2.84,0,0,0,1,.5A3.76,3.76,0,0,0,162.7,78.85Z"/><path class="cls-2" d="M173.36,79.45a3.83,3.83,0,0,1-3.08-1.31,5.71,5.71,0,0,1-1.13-3.82,5.83,5.83,0,0,1,1.1-3.81,3.72,3.72,0,0,1,3-1.32,3.84,3.84,0,0,1,1.65.34,3.62,3.62,0,0,1,1.27,1,4.32,4.32,0,0,1,.82,1.53,6.32,6.32,0,0,1,.29,2v.31h-7.45v.52a5.28,5.28,0,0,0,.24,1.64,3.35,3.35,0,0,0,.68,1.25,3.06,3.06,0,0,0,1.1.81,3.79,3.79,0,0,0,1.48.27,3.22,3.22,0,0,0,3.22-2.23l.52.29a4,4,0,0,1-1.39,1.85A3.87,3.87,0,0,1,173.36,79.45Zm-.08-9.67a3.62,3.62,0,0,0-1.44.28,3,3,0,0,0-1.07.81,3.48,3.48,0,0,0-.67,1.25,5.2,5.2,0,0,0-.24,1.62v.08h6.72V73.7a5.09,5.09,0,0,0-.24-1.61,3.66,3.66,0,0,0-.68-1.23,3,3,0,0,0-1-.8A3.24,3.24,0,0,0,173.28,69.78Z"/><path class="cls-2" d="M180.11,79.22v-9.8h.68v1.5h.06a2.78,2.78,0,0,1,1-1.22,3.42,3.42,0,0,1,2-.51,3.16,3.16,0,0,1,2.48,1,4.07,4.07,0,0,1,.86,2.79v6.29h-.68V73.05a3.57,3.57,0,0,0-.72-2.48,2.74,2.74,0,0,0-2.1-.79,4,4,0,0,0-1.09.16,2.89,2.89,0,0,0-.93.46,2.41,2.41,0,0,0-.65.77,2.32,2.32,0,0,0-.24,1.08v7Z"/><path class="cls-2" d="M202,77.71H202a3.16,3.16,0,0,1-1.1,1.22,3.51,3.51,0,0,1-2,.52,3.66,3.66,0,0,1-3-1.3,5.93,5.93,0,0,1-1.07-3.83,5.93,5.93,0,0,1,1.07-3.83,3.66,3.66,0,0,1,3-1.3,3.51,3.51,0,0,1,2,.52,3,3,0,0,1,1.1,1.23H202v-6h.67V79.22H202ZM199,78.85a3.87,3.87,0,0,0,1.18-.17,2.88,2.88,0,0,0,1-.5,2.54,2.54,0,0,0,.67-.79,2.13,2.13,0,0,0,.25-1V72.24a2.15,2.15,0,0,0-.25-1,2.47,2.47,0,0,0-.67-.77,3.29,3.29,0,0,0-1-.5,3.89,3.89,0,0,0-1.18-.19,3.11,3.11,0,0,0-2.54,1.08,4.37,4.37,0,0,0-.9,2.91v1.12a4.34,4.34,0,0,0,.9,2.9A3.13,3.13,0,0,0,199,78.85Z"/><path class="cls-2" d="M212.67,79.22a.75.75,0,0,1-.83-.81V77.7h-.08a2.92,2.92,0,0,1-1.1,1.25,3.53,3.53,0,0,1-2,.5,3.46,3.46,0,0,1-2.36-.73,2.63,2.63,0,0,1-.83-2.07,3.23,3.23,0,0,1,.2-1.15,2,2,0,0,1,.64-.9,3.26,3.26,0,0,1,1.18-.58,6.93,6.93,0,0,1,1.78-.2h2.57V72.51a2.38,2.38,0,0,0-2.68-2.73,2.87,2.87,0,0,0-2.86,1.74l-.48-.33a3.41,3.41,0,0,1,1.2-1.45,3.67,3.67,0,0,1,2.16-.55,3.41,3.41,0,0,1,2.49.84,3.25,3.25,0,0,1,.85,2.4v6.19H214v.6Zm-4-.37a4.32,4.32,0,0,0,1.21-.16,3.42,3.42,0,0,0,1-.47,2.36,2.36,0,0,0,.67-.77,2.21,2.21,0,0,0,.25-1.08v-2h-2.57a3.93,3.93,0,0,0-2.35.55,1.72,1.72,0,0,0-.73,1.46v.54a1.64,1.64,0,0,0,.7,1.45A3.1,3.1,0,0,0,208.69,78.85Z"/><path class="cls-2" d="M217.36,79.22a.73.73,0,0,1-.83-.81V70h-1.78v-.6H216a.52.52,0,0,0,.43-.14.75.75,0,0,0,.11-.46V66.64h.64v2.78h2.29V70h-2.29v8.6h2.14v.6Z"/><path class="cls-2" d="M228.55,79.22a.75.75,0,0,1-.83-.81V77.7h-.07a3,3,0,0,1-1.1,1.25,3.59,3.59,0,0,1-2,.5,3.41,3.41,0,0,1-2.35-.73,2.6,2.6,0,0,1-.83-2.07,3.23,3.23,0,0,1,.19-1.15,2,2,0,0,1,.65-.9,3.2,3.2,0,0,1,1.17-.58,7,7,0,0,1,1.79-.2h2.57V72.51A2.39,2.39,0,0,0,225,69.78a2.86,2.86,0,0,0-2.85,1.74l-.49-.33a3.41,3.41,0,0,1,1.2-1.45,3.72,3.72,0,0,1,2.16-.55,3.41,3.41,0,0,1,2.49.84,3.21,3.21,0,0,1,.85,2.4v6.19h1.51v.6Zm-4-.37a4.29,4.29,0,0,0,1.2-.16,3.3,3.3,0,0,0,1-.47,2.25,2.25,0,0,0,.67-.77,2.21,2.21,0,0,0,.26-1.08v-2h-2.57a4,4,0,0,0-2.36.55,1.72,1.72,0,0,0-.73,1.46v.54a1.64,1.64,0,0,0,.7,1.45A3.12,3.12,0,0,0,224.58,78.85Z"/><path class="cls-2" d="M235.48,69.42h.72l3.28,9.07h.06l3.28-9.07h.67l-3.61,9.8h-.79Z"/><path class="cls-2" d="M249,79.45a3.76,3.76,0,0,1-3-1.31,5.76,5.76,0,0,1-1.11-3.82A5.76,5.76,0,0,1,246,70.49a4.2,4.2,0,0,1,6.08,0,5.76,5.76,0,0,1,1.11,3.83,5.76,5.76,0,0,1-1.11,3.82A3.75,3.75,0,0,1,249,79.45Zm0-.6a3.07,3.07,0,0,0,2.53-1.07,4.47,4.47,0,0,0,.89-2.94v-1a4.46,4.46,0,0,0-.89-3,3.53,3.53,0,0,0-5.06,0,4.46,4.46,0,0,0-.88,3v1a4.47,4.47,0,0,0,.88,2.94A3.1,3.1,0,0,0,249,78.85Z"/><path class="cls-2" d="M259.55,79.45a3.75,3.75,0,0,1-3-1.31,5.76,5.76,0,0,1-1.11-3.82,5.76,5.76,0,0,1,1.11-3.83,4.2,4.2,0,0,1,6.08,0,5.76,5.76,0,0,1,1.11,3.83,5.76,5.76,0,0,1-1.11,3.82A3.75,3.75,0,0,1,259.55,79.45Zm0-.6a3.09,3.09,0,0,0,2.53-1.07,4.47,4.47,0,0,0,.89-2.94v-1a4.46,4.46,0,0,0-.89-3,3.53,3.53,0,0,0-5.06,0,4.46,4.46,0,0,0-.89,3v1a4.47,4.47,0,0,0,.89,2.94A3.09,3.09,0,0,0,259.55,78.85Z"/><path class="cls-2" d="M266.56,79.22v-9.8h.67v1.72h.08a3,3,0,0,1,1-1.21,3.35,3.35,0,0,1,2-.51h.73v.63h-.85a4.24,4.24,0,0,0-1.14.16,2.84,2.84,0,0,0-.94.46,2.37,2.37,0,0,0-.65.76,2.27,2.27,0,0,0-.24,1.06v6.73Z"/><path class="cls-2" d="M284.39,77.71h-.06a3.16,3.16,0,0,1-1.1,1.22,3.49,3.49,0,0,1-2,.52,3.68,3.68,0,0,1-3-1.3,5.93,5.93,0,0,1-1.07-3.83,5.93,5.93,0,0,1,1.07-3.83,3.68,3.68,0,0,1,3-1.3,3.49,3.49,0,0,1,2,.52,3,3,0,0,1,1.1,1.23h.06v-6h.67V79.22h-.67Zm-3.07,1.14a3.87,3.87,0,0,0,1.18-.17,2.88,2.88,0,0,0,1-.5,2.54,2.54,0,0,0,.67-.79,2.13,2.13,0,0,0,.25-1V72.24a2.15,2.15,0,0,0-.25-1,2.47,2.47,0,0,0-.67-.77,3.29,3.29,0,0,0-1-.5,3.89,3.89,0,0,0-1.18-.19,3.13,3.13,0,0,0-2.54,1.08,4.37,4.37,0,0,0-.9,2.91v1.12a4.34,4.34,0,0,0,.9,2.9A3.14,3.14,0,0,0,281.32,78.85Z"/><path class="cls-2" d="M288.88,66.39a.57.57,0,0,1-.44-.15.48.48,0,0,1-.13-.35v-.18a.56.56,0,0,1,.12-.36.58.58,0,0,1,.44-.14.61.61,0,0,1,.44.14.52.52,0,0,1,.13.36v.18a.51.51,0,0,1-.12.35A.54.54,0,0,1,288.88,66.39Zm-.34,3h.67v9.8h-.67Z"/><path class="cls-2" d="M300.52,80.44a2.34,2.34,0,0,1-1.2,2.18,7.1,7.1,0,0,1-3.47.69,5.74,5.74,0,0,1-3.18-.67,2.1,2.1,0,0,1-1-1.82,2,2,0,0,1,.49-1.41,2.84,2.84,0,0,1,1.35-.82v-.08a1.3,1.3,0,0,1-1-1.33A1.35,1.35,0,0,1,293,76.1a3.25,3.25,0,0,1,1.17-.6v-.06a3.08,3.08,0,0,1-1.32-1.12,3.28,3.28,0,0,1-.47-1.83,3.62,3.62,0,0,1,.24-1.36,3,3,0,0,1,.68-1,3,3,0,0,1,1.08-.66,4,4,0,0,1,1.43-.23,3.49,3.49,0,0,1,2.09.58V69c0-.47.22-.71.67-.71h1.87v.6h-2.08v1.23a3.12,3.12,0,0,1,.68,1,3.4,3.4,0,0,1,.25,1.34,3.44,3.44,0,0,1-.26,1.34,3,3,0,0,1-.7,1,3.1,3.1,0,0,1-1.09.68,3.93,3.93,0,0,1-1.41.24,4.56,4.56,0,0,1-.54,0l-.52-.1a3.3,3.3,0,0,0-1.22.56,1.08,1.08,0,0,0-.42.87.89.89,0,0,0,.35.7,2,2,0,0,0,1.29.3h2.49a3.91,3.91,0,0,1,2.48.63A2.11,2.11,0,0,1,300.52,80.44Zm-.67,0a1.58,1.58,0,0,0-.57-1.3,3.33,3.33,0,0,0-2-.46h-3.07a2.81,2.81,0,0,0-1.31.71,1.76,1.76,0,0,0-.5,1.32,1.69,1.69,0,0,0,.77,1.42,3.75,3.75,0,0,0,2.18.55h1.06a6.73,6.73,0,0,0,1.41-.14,3.94,3.94,0,0,0,1.1-.4,2.1,2.1,0,0,0,.72-.7A2,2,0,0,0,299.85,80.48Zm-4-5.29a2.83,2.83,0,0,0,2-.66,2.2,2.2,0,0,0,.71-1.7v-.69a2.22,2.22,0,0,0-.71-1.7,3.35,3.35,0,0,0-4,0,2.21,2.21,0,0,0-.7,1.7v.69a2.2,2.2,0,0,0,.71,1.7A2.83,2.83,0,0,0,295.85,75.19Z"/><path class="cls-2" d="M303.13,66.39a.58.58,0,0,1-.45-.15.48.48,0,0,1-.13-.35v-.18a.56.56,0,0,1,.12-.36.59.59,0,0,1,.44-.14.61.61,0,0,1,.44.14.52.52,0,0,1,.14.36v.18a.48.48,0,0,1-.13.35A.53.53,0,0,1,303.13,66.39Zm-.35,3h.68v9.8h-.68Z"/><path class="cls-2" d="M308.45,79.22a.73.73,0,0,1-.83-.81V70h-1.77v-.6h1.27a.55.55,0,0,0,.44-.14.76.76,0,0,0,.1-.46V66.64h.64v2.78h2.3V70h-2.3v8.6h2.14v.6Z"/><path class="cls-2" d="M319.65,79.22a.74.74,0,0,1-.83-.81V77.7h-.08a3,3,0,0,1-1.1,1.25,3.57,3.57,0,0,1-2,.5,3.43,3.43,0,0,1-2.35-.73,2.63,2.63,0,0,1-.83-2.07,3.23,3.23,0,0,1,.19-1.15,2.13,2.13,0,0,1,.65-.9,3.18,3.18,0,0,1,1.18-.58,6.88,6.88,0,0,1,1.78-.2h2.57V72.51a2.39,2.39,0,0,0-2.68-2.73,2.87,2.87,0,0,0-2.86,1.74l-.48-.33A3.46,3.46,0,0,1,314,69.74a3.73,3.73,0,0,1,2.17-.55,3.37,3.37,0,0,1,2.48.84,3.21,3.21,0,0,1,.85,2.4v6.19H321v.6Zm-4-.37a4.32,4.32,0,0,0,1.21-.16,3.24,3.24,0,0,0,1-.47,2.28,2.28,0,0,0,.68-.77,2.21,2.21,0,0,0,.25-1.08v-2h-2.57a3.93,3.93,0,0,0-2.35.55,1.73,1.73,0,0,0-.74,1.46v.54a1.65,1.65,0,0,0,.71,1.45A3.1,3.1,0,0,0,315.67,78.85Z"/><path class="cls-2" d="M324.14,79.22a.73.73,0,0,1-.83-.81V64.94H324V78.62h1.6v.6Z"/><path class="cls-2" d="M331.25,79.45a3.83,3.83,0,0,1-3.08-1.31A5.71,5.71,0,0,1,327,74.32a5.83,5.83,0,0,1,1.1-3.81,3.72,3.72,0,0,1,3-1.32,3.9,3.9,0,0,1,1.65.34,3.62,3.62,0,0,1,1.27,1,4.32,4.32,0,0,1,.82,1.53,6.32,6.32,0,0,1,.29,2v.31h-7.45v.52a5.28,5.28,0,0,0,.24,1.64,3.35,3.35,0,0,0,.68,1.25,3.06,3.06,0,0,0,1.1.81,3.79,3.79,0,0,0,1.48.27,3.22,3.22,0,0,0,3.22-2.23l.52.29a4,4,0,0,1-1.39,1.85A3.87,3.87,0,0,1,331.25,79.45Zm-.08-9.67a3.62,3.62,0,0,0-1.44.28,3,3,0,0,0-1.07.81,3.34,3.34,0,0,0-.67,1.25,5.2,5.2,0,0,0-.24,1.62v.08h6.72V73.7a5.09,5.09,0,0,0-.24-1.61,3.66,3.66,0,0,0-.68-1.23,3,3,0,0,0-1-.8A3.24,3.24,0,0,0,331.17,69.78Z"/><path class="cls-2" d="M344.24,79.22a.72.72,0,0,1-.83-.81V70h-1.78v-.6h1.27a.55.55,0,0,0,.44-.14.76.76,0,0,0,.1-.46V66.64h.64v2.78h2.3V70h-2.3v8.6h2.14v.6Z"/><path class="cls-2" d="M348.92,79.22v-9.8h.68v1.72h.08a3,3,0,0,1,1-1.21,3.35,3.35,0,0,1,2-.51h.73v.63h-.85a4.24,4.24,0,0,0-1.14.16,2.84,2.84,0,0,0-.94.46,2.37,2.37,0,0,0-.65.76,2.27,2.27,0,0,0-.24,1.06v6.73Z"/><path class="cls-2" d="M362,79.22a.75.75,0,0,1-.83-.81V77.7h-.08A3,3,0,0,1,360,79a3.53,3.53,0,0,1-2,.5,3.46,3.46,0,0,1-2.36-.73,2.63,2.63,0,0,1-.83-2.07,3.23,3.23,0,0,1,.2-1.15,2,2,0,0,1,.64-.9,3.26,3.26,0,0,1,1.18-.58,6.93,6.93,0,0,1,1.78-.2h2.57V72.51a2.38,2.38,0,0,0-2.68-2.73,2.87,2.87,0,0,0-2.86,1.74l-.48-.33a3.41,3.41,0,0,1,1.2-1.45,3.67,3.67,0,0,1,2.16-.55A3.41,3.41,0,0,1,361,70a3.25,3.25,0,0,1,.85,2.4v6.19h1.5v.6Zm-4-.37a4.29,4.29,0,0,0,1.2-.16,3.42,3.42,0,0,0,1-.47,2.36,2.36,0,0,0,.67-.77,2.21,2.21,0,0,0,.25-1.08v-2h-2.57a3.93,3.93,0,0,0-2.35.55,1.72,1.72,0,0,0-.73,1.46v.54a1.64,1.64,0,0,0,.7,1.45A3.12,3.12,0,0,0,358,78.85Z"/><path class="cls-2" d="M365.68,79.22v-9.8h.67v1.5h.06a2.78,2.78,0,0,1,1-1.22,3.44,3.44,0,0,1,2-.51,3.15,3.15,0,0,1,2.48,1,4.07,4.07,0,0,1,.86,2.79v6.29h-.68V73.05a3.57,3.57,0,0,0-.72-2.48,2.71,2.71,0,0,0-2.09-.79,3.94,3.94,0,0,0-1.09.16,2.84,2.84,0,0,0-.94.46,2.41,2.41,0,0,0-.65.77,2.32,2.32,0,0,0-.24,1.08v7Z"/><path class="cls-2" d="M378.92,79.45A4.7,4.7,0,0,1,376.8,79a4.37,4.37,0,0,1-1.57-1.39l.52-.39a4.23,4.23,0,0,0,1.4,1.25,3.94,3.94,0,0,0,1.79.37,3.06,3.06,0,0,0,2-.54,1.88,1.88,0,0,0,.68-1.56,1.84,1.84,0,0,0-.57-1.47,3.62,3.62,0,0,0-1.75-.67l-.83-.14a5.66,5.66,0,0,1-1.18-.29,2.6,2.6,0,0,1-.91-.51,2.16,2.16,0,0,1-.58-.78,2.88,2.88,0,0,1-.2-1.12,2.49,2.49,0,0,1,.24-1.12,2.31,2.31,0,0,1,.68-.81,2.85,2.85,0,0,1,1-.49,4.63,4.63,0,0,1,1.26-.16,4.08,4.08,0,0,1,2,.43,4.84,4.84,0,0,1,1.27,1l-.48.45a4.25,4.25,0,0,0-.47-.48,3.14,3.14,0,0,0-.59-.42,3.09,3.09,0,0,0-.76-.29,4.25,4.25,0,0,0-1-.11,3,3,0,0,0-1.84.51,1.69,1.69,0,0,0-.69,1.46,1.73,1.73,0,0,0,.58,1.44,3.93,3.93,0,0,0,1.76.65l.83.13a4.18,4.18,0,0,1,2.11.84,2.32,2.32,0,0,1,.75,1.88,2.48,2.48,0,0,1-.89,2A3.78,3.78,0,0,1,378.92,79.45Z"/><path class="cls-2" d="M385,69.42h.67v1.52h.06a3,3,0,0,1,1.1-1.23,3.51,3.51,0,0,1,2-.52,3.68,3.68,0,0,1,3,1.3,5.93,5.93,0,0,1,1.07,3.83,5.93,5.93,0,0,1-1.07,3.83,3.68,3.68,0,0,1-3,1.3,3.51,3.51,0,0,1-2-.52,3.16,3.16,0,0,1-1.1-1.22h-.06v5.37H385Zm3.74,9.43a3.14,3.14,0,0,0,2.54-1.06,4.34,4.34,0,0,0,.9-2.9V73.77a4.37,4.37,0,0,0-.9-2.91,3.13,3.13,0,0,0-2.54-1.08,3.89,3.89,0,0,0-1.18.19,3.29,3.29,0,0,0-1,.5,2.47,2.47,0,0,0-.67.77,2.15,2.15,0,0,0-.25,1v4.14a2.13,2.13,0,0,0,.25,1,2.54,2.54,0,0,0,.67.79,2.88,2.88,0,0,0,1,.5A3.87,3.87,0,0,0,388.72,78.85Z"/><path class="cls-2" d="M402.29,79.22a.74.74,0,0,1-.83-.81V77.7h-.08a3,3,0,0,1-1.1,1.25,3.57,3.57,0,0,1-2,.5,3.43,3.43,0,0,1-2.35-.73,2.63,2.63,0,0,1-.83-2.07,3.23,3.23,0,0,1,.19-1.15,2.13,2.13,0,0,1,.65-.9,3.18,3.18,0,0,1,1.18-.58,6.88,6.88,0,0,1,1.78-.2h2.57V72.51a2.39,2.39,0,0,0-2.68-2.73,2.87,2.87,0,0,0-2.86,1.74l-.48-.33a3.46,3.46,0,0,1,1.19-1.45,3.73,3.73,0,0,1,2.17-.55,3.37,3.37,0,0,1,2.48.84,3.21,3.21,0,0,1,.85,2.4v6.19h1.51v.6Zm-4-.37a4.32,4.32,0,0,0,1.21-.16,3.24,3.24,0,0,0,1-.47,2.39,2.39,0,0,0,.68-.77,2.21,2.21,0,0,0,.25-1.08v-2h-2.57a3.93,3.93,0,0,0-2.35.55,1.73,1.73,0,0,0-.74,1.46v.54a1.65,1.65,0,0,0,.71,1.45A3.1,3.1,0,0,0,398.31,78.85Z"/><path class="cls-2" d="M406,79.22v-9.8h.67v1.72h.08a3,3,0,0,1,1-1.21,3.35,3.35,0,0,1,2-.51h.73v.63h-.85a4.24,4.24,0,0,0-1.14.16,2.84,2.84,0,0,0-.94.46,2.37,2.37,0,0,0-.65.76,2.27,2.27,0,0,0-.24,1.06v6.73Z"/><path class="cls-2" d="M419,79.22a.75.75,0,0,1-.83-.81V77.7h-.08A3,3,0,0,1,417,79a3.53,3.53,0,0,1-2,.5,3.46,3.46,0,0,1-2.36-.73,2.63,2.63,0,0,1-.83-2.07A3.47,3.47,0,0,1,412,75.5a2.13,2.13,0,0,1,.65-.9,3.26,3.26,0,0,1,1.18-.58,6.93,6.93,0,0,1,1.78-.2h2.57V72.51a2.38,2.38,0,0,0-2.68-2.73,2.87,2.87,0,0,0-2.86,1.74l-.48-.33a3.41,3.41,0,0,1,1.2-1.45,3.67,3.67,0,0,1,2.16-.55A3.41,3.41,0,0,1,418,70a3.25,3.25,0,0,1,.85,2.4v6.19h1.5v.6Zm-4-.37a4.32,4.32,0,0,0,1.21-.16,3.24,3.24,0,0,0,1-.47,2.28,2.28,0,0,0,.68-.77,2.21,2.21,0,0,0,.25-1.08v-2h-2.57a3.93,3.93,0,0,0-2.35.55,1.72,1.72,0,0,0-.73,1.46v.54a1.64,1.64,0,0,0,.7,1.45A3.1,3.1,0,0,0,415.06,78.85Z"/><path class="cls-2" d="M422.71,79.22v-9.8h.67v1.5h.06a2.78,2.78,0,0,1,1-1.22,3.44,3.44,0,0,1,2-.51,3.15,3.15,0,0,1,2.48,1,4.07,4.07,0,0,1,.86,2.79v6.29h-.67V73.05a3.57,3.57,0,0,0-.73-2.48,2.71,2.71,0,0,0-2.09-.79,3.94,3.94,0,0,0-1.09.16,2.84,2.84,0,0,0-.94.46,2.54,2.54,0,0,0-.65.77,2.32,2.32,0,0,0-.24,1.08v7Z"/><path class="cls-2" d="M434.38,79.22a.73.73,0,0,1-.83-.81V70h-1.77v-.6h1.27a.55.55,0,0,0,.44-.14.76.76,0,0,0,.1-.46V66.64h.64v2.78h2.3V70h-2.3v8.6h2.14v.6Z"/><path class="cls-2" d="M439.42,66.39a.56.56,0,0,1-.44-.15.48.48,0,0,1-.14-.35v-.18a.52.52,0,0,1,.13-.36.57.57,0,0,1,.43-.14.62.62,0,0,1,.45.14.52.52,0,0,1,.13.36v.18a.51.51,0,0,1-.12.35A.56.56,0,0,1,439.42,66.39Zm-.35,3h.68v9.8h-.68Z"/><path class="cls-2" d="M446.81,79.45a3.84,3.84,0,0,1-3.08-1.31,5.71,5.71,0,0,1-1.12-3.82,5.77,5.77,0,0,1,1.1-3.81,3.72,3.72,0,0,1,3-1.32,3.9,3.9,0,0,1,1.65.34,3.8,3.8,0,0,1,1.27,1,4.48,4.48,0,0,1,.82,1.53,6.62,6.62,0,0,1,.29,2v.31h-7.45v.52a5.6,5.6,0,0,0,.23,1.64,3.37,3.37,0,0,0,.69,1.25,3,3,0,0,0,1.1.81,3.78,3.78,0,0,0,1.47.27A3.23,3.23,0,0,0,450,76.62l.52.29a4,4,0,0,1-1.39,1.85A3.9,3.9,0,0,1,446.81,79.45Zm-.07-9.67a3.56,3.56,0,0,0-1.44.28,3,3,0,0,0-1.07.81,3.5,3.5,0,0,0-.68,1.25,5.51,5.51,0,0,0-.23,1.62v.08H450V73.7a4.81,4.81,0,0,0-.25-1.61,3.64,3.64,0,0,0-.67-1.23,3.12,3.12,0,0,0-1-.8A3.31,3.31,0,0,0,446.74,69.78Z"/><path class="cls-2" d="M160.3,44.73a8.79,8.79,0,0,1-.64,3.42,7.7,7.7,0,0,1-4.52,4.35,10,10,0,0,1-6.83,0,8.09,8.09,0,0,1-2.72-1.7,7.9,7.9,0,0,1-1.79-2.65,8.79,8.79,0,0,1-.64-3.42,8.67,8.67,0,0,1,.64-3.41,7.56,7.56,0,0,1,1.79-2.59,8.13,8.13,0,0,1,2.72-1.65,10.52,10.52,0,0,1,6.83,0,8,8,0,0,1,2.73,1.65,7.56,7.56,0,0,1,1.79,2.59A8.67,8.67,0,0,1,160.3,44.73Zm-4.07,0a5.48,5.48,0,0,0-.33-1.91A4.55,4.55,0,0,0,155,41.3a4.29,4.29,0,0,0-1.43-1,4.37,4.37,0,0,0-1.83-.37,4.29,4.29,0,0,0-1.82.37,4.39,4.39,0,0,0-1.43,1,4.24,4.24,0,0,0-.92,1.52,5.47,5.47,0,0,0-.32,1.91,5.66,5.66,0,0,0,.33,2,4.69,4.69,0,0,0,.92,1.55,4.23,4.23,0,0,0,1.42,1,4.48,4.48,0,0,0,5.07-1,4.55,4.55,0,0,0,.93-1.55A5.66,5.66,0,0,0,156.23,44.73Z"/><path class="cls-2" d="M175.63,41.78a4.82,4.82,0,0,1-.51,2.32,4.13,4.13,0,0,1-1.38,1.52,6.1,6.1,0,0,1-2,.85,10.23,10.23,0,0,1-2.36.27h-1.89v5.93h-3.8V36.93h5.78a10.87,10.87,0,0,1,2.41.25,5.69,5.69,0,0,1,2,.83,4,4,0,0,1,1.31,1.49A4.87,4.87,0,0,1,175.63,41.78Zm-3.8,0a1.66,1.66,0,0,0-.23-.91,1.54,1.54,0,0,0-.6-.56,2.82,2.82,0,0,0-.85-.27,8,8,0,0,0-1-.06h-1.67v3.71h1.6a5.53,5.53,0,0,0,1-.09,2.7,2.7,0,0,0,.88-.31,1.65,1.65,0,0,0,.61-.59A1.72,1.72,0,0,0,171.83,41.8Z"/><path class="cls-2" d="M178.45,52.67V36.93H189v3.2h-6.92v3h6.54v3h-6.54v3.27h7.32v3.24Z"/><path class="cls-2" d="M203,52.67l-6.34-10.29h-.07l.09,10.29H193V36.93h4.34l6.31,10.27h.07l-.09-10.27h3.69V52.67Z"/><path class="cls-2" d="M226.22,41A3.51,3.51,0,0,0,225,40a3.72,3.72,0,0,0-1.53-.37,5.12,5.12,0,0,0-.77.07,1.91,1.91,0,0,0-.7.26,1.83,1.83,0,0,0-.52.48,1.34,1.34,0,0,0-.21.77,1.26,1.26,0,0,0,.17.67,1.48,1.48,0,0,0,.49.47,4.5,4.5,0,0,0,.76.36l1,.35c.54.18,1.09.37,1.67.59a6.15,6.15,0,0,1,1.58.85,4.44,4.44,0,0,1,1.18,1.33,3.8,3.8,0,0,1,.47,2,5.18,5.18,0,0,1-.5,2.34,4.82,4.82,0,0,1-1.35,1.64,5.62,5.62,0,0,1-1.93.95,8.09,8.09,0,0,1-2.25.31,9.1,9.1,0,0,1-3.27-.59,6.9,6.9,0,0,1-2.62-1.67l2.49-2.54a4.48,4.48,0,0,0,1.52,1.19,4.13,4.13,0,0,0,1.88.48,3.68,3.68,0,0,0,.82-.09,2.11,2.11,0,0,0,.7-.29,1.45,1.45,0,0,0,.48-.53,1.69,1.69,0,0,0,.18-.8,1.26,1.26,0,0,0-.22-.76,2.12,2.12,0,0,0-.64-.57,4.9,4.9,0,0,0-1-.46c-.41-.14-.87-.3-1.39-.46a13.35,13.35,0,0,1-1.48-.58,5.15,5.15,0,0,1-1.29-.85,4,4,0,0,1-.91-1.27,4.3,4.3,0,0,1-.35-1.81,4.41,4.41,0,0,1,.54-2.25,4.6,4.6,0,0,1,1.4-1.54,5.9,5.9,0,0,1,2-.87,8.62,8.62,0,0,1,2.2-.28,8,8,0,0,1,2.72.49,7,7,0,0,1,2.44,1.44Z"/><path class="cls-2" d="M239.06,40.18V52.67h-3.81V40.18h-4.44V36.93H243.5v3.25Z"/><path class="cls-2" d="M255.49,52.67l-1.22-3.09h-6.1L247,52.67h-4.14l6.61-15.74h3.69l6.54,15.74Zm-4.22-11.54-2,5.41h4Z"/><path class="cls-2" d="M267.32,40.18V52.67h-3.8V40.18h-4.45V36.93h12.7v3.25Z"/><path class="cls-2" d="M274.33,52.67V36.93h10.59v3.2H278v3h6.54v3H278v3.27h7.32v3.24Z"/><path class="cls-2" d="M295.34,36.93H305.5v2.44h-7.36v4.32h6.94v2.36h-6.94v6.62h-2.8Z"/><path class="cls-2" d="M308,44.76a8.91,8.91,0,0,1,.63-3.42,7.48,7.48,0,0,1,1.76-2.59A7.73,7.73,0,0,1,313,37.11a9.43,9.43,0,0,1,3.37-.58,9.59,9.59,0,0,1,3.4.58,7.82,7.82,0,0,1,2.69,1.64,7.37,7.37,0,0,1,1.77,2.59,8.91,8.91,0,0,1,.63,3.42,8.76,8.76,0,0,1-.63,3.37,7.68,7.68,0,0,1-1.77,2.62,8,8,0,0,1-2.69,1.71,9.18,9.18,0,0,1-3.4.61,9,9,0,0,1-3.37-.61,7.89,7.89,0,0,1-2.67-1.71,7.8,7.8,0,0,1-1.76-2.62A8.76,8.76,0,0,1,308,44.76Zm3,0a6.64,6.64,0,0,0,.39,2.32,5.29,5.29,0,0,0,1.12,1.84,5.21,5.21,0,0,0,1.71,1.21,5.38,5.38,0,0,0,2.19.43,5.47,5.47,0,0,0,2.2-.43,5.15,5.15,0,0,0,1.72-1.21,5.29,5.29,0,0,0,1.12-1.84,6.64,6.64,0,0,0,.39-2.32,6.4,6.4,0,0,0-.39-2.27,5.62,5.62,0,0,0-1.1-1.83A5.23,5.23,0,0,0,316.42,39a5.26,5.26,0,0,0-2.21.44,5.39,5.39,0,0,0-1.71,1.22,5.62,5.62,0,0,0-1.1,1.83A6.4,6.4,0,0,0,311,44.76Z"/><path class="cls-2" d="M341,46.89a6.4,6.4,0,0,1-.49,2.57,5.82,5.82,0,0,1-1.33,1.95,6,6,0,0,1-2,1.23,7.57,7.57,0,0,1-5,0,6,6,0,0,1-2-1.23,5.7,5.7,0,0,1-1.34-1.95,6.76,6.76,0,0,1-.47-2.57v-10h2.8v9.85a5.31,5.31,0,0,0,.18,1.37,3.18,3.18,0,0,0,.59,1.21,2.88,2.88,0,0,0,1.09.87,4.42,4.42,0,0,0,3.35,0,2.88,2.88,0,0,0,1.09-.87,3.33,3.33,0,0,0,.59-1.21,5.31,5.31,0,0,0,.18-1.37V36.93H341Z"/><path class="cls-2" d="M345.24,36.93H349l7.31,11.79h.05V36.93h2.8V52.67h-3.56l-7.47-12.16h0V52.67h-2.8Z"/><path class="cls-2" d="M363.5,36.93h5.58a12.13,12.13,0,0,1,3.09.4A8.17,8.17,0,0,1,375,38.65a7,7,0,0,1,2,2.43,8,8,0,0,1,.78,3.72,7.57,7.57,0,0,1-.78,3.56,7.36,7.36,0,0,1-2,2.45,8.74,8.74,0,0,1-2.81,1.41,11,11,0,0,1-3.09.45H363.5Zm5.14,13.3a9.55,9.55,0,0,0,2.18-.26,5.73,5.73,0,0,0,2-.87,4.62,4.62,0,0,0,1.43-1.65,5.62,5.62,0,0,0,.56-2.65,6,6,0,0,0-.56-2.76,4.49,4.49,0,0,0-1.43-1.66,5.31,5.31,0,0,0-2-.83,10.75,10.75,0,0,0-2.18-.22H366.3v10.9Z"/><path class="cls-2" d="M385.58,36.93H388l6.78,15.74h-3.2l-1.47-3.6h-6.83l-1.42,3.6h-3.13Zm3.56,9.74-2.42-6.41-2.47,6.41Z"/><path class="cls-2" d="M398.93,39.37H394.1V36.93h12.46v2.44h-4.83v13.3h-2.8Z"/><path class="cls-2" d="M409.23,36.93H412V52.67h-2.8Z"/><path class="cls-2" d="M415.63,44.76a8.72,8.72,0,0,1,.64-3.42A7.46,7.46,0,0,1,418,38.75a7.73,7.73,0,0,1,2.67-1.64,9.43,9.43,0,0,1,3.37-.58,9.56,9.56,0,0,1,3.4.58,7.72,7.72,0,0,1,2.69,1.64,7.37,7.37,0,0,1,1.77,2.59,8.72,8.72,0,0,1,.64,3.42,8.58,8.58,0,0,1-.64,3.37,7.68,7.68,0,0,1-1.77,2.62,7.88,7.88,0,0,1-2.69,1.71,9.14,9.14,0,0,1-3.4.61,9,9,0,0,1-3.37-.61A7.89,7.89,0,0,1,418,50.75a7.78,7.78,0,0,1-1.75-2.62A8.58,8.58,0,0,1,415.63,44.76Zm3.05,0a6.64,6.64,0,0,0,.39,2.32,5.42,5.42,0,0,0,1.11,1.84,5.21,5.21,0,0,0,1.71,1.21,5.38,5.38,0,0,0,2.19.43,5.51,5.51,0,0,0,2.21-.43A5.25,5.25,0,0,0,428,48.92a5.42,5.42,0,0,0,1.11-1.84,6.64,6.64,0,0,0,.39-2.32,6.4,6.4,0,0,0-.39-2.27,5.62,5.62,0,0,0-1.1-1.83A5.19,5.19,0,0,0,424.08,39a5.14,5.14,0,0,0-3.91,1.66,5.45,5.45,0,0,0-1.1,1.83A6.4,6.4,0,0,0,418.68,44.76Z"/><path class="cls-2" d="M436.11,36.93h3.72l7.32,11.79h0V36.93H450V52.67h-3.56L439,40.51h0V52.67h-2.81Z"/></svg>