<?xml version="1.0" encoding="UTF-8" standalone="no"?>
<svg
   xmlns:dc="http://purl.org/dc/elements/1.1/"
   xmlns:cc="http://creativecommons.org/ns#"
   xmlns:rdf="http://www.w3.org/1999/02/22-rdf-syntax-ns#"
   xmlns:svg="http://www.w3.org/2000/svg"
   xmlns="http://www.w3.org/2000/svg"
   xmlns:sodipodi="http://sodipodi.sourceforge.net/DTD/sodipodi-0.dtd"
   xmlns:inkscape="http://www.inkscape.org/namespaces/inkscape"
   height="61.656315"
   width="427.77695"
   version="1.1"
   viewBox="0 0 427.77695 61.656316"
   data-name="Layer 1"
   id="Layer_1"
   inkscape:version="0.48.4 r9939"
   sodipodi:docname="Open-state-foundation-logo-tagline-nl(1).svg">
  <sodipodi:namedview
     pagecolor="#ffffff"
     bordercolor="#666666"
     borderopacity="1"
     objecttolerance="10"
     gridtolerance="10"
     guidetolerance="10"
     inkscape:pageopacity="0"
     inkscape:pageshadow="2"
     inkscape:window-width="960"
     inkscape:window-height="1028"
     id="namedview68"
     showgrid="false"
     inkscape:zoom="1.4306521"
     inkscape:cx="221.6538"
     inkscape:cy="-19.041192"
     inkscape:window-x="0"
     inkscape:window-y="24"
     inkscape:window-maximized="0"
     inkscape:current-layer="Layer_1" />
  <metadata
     id="metadata133">
    <rdf:RDF>
      <cc:Work
         rdf:about="">
        <dc:format>image/svg+xml</dc:format>
        <dc:type
           rdf:resource="http://purl.org/dc/dcmitype/StillImage" />
      </cc:Work>
    </rdf:RDF>
  </metadata>
  <defs
     id="defs4">
    <style
       id="style2">.cls-1,.cls-3{fill:#035c6e;}.cls-2{fill:#8dd5e5;}.cls-3{font-size:18.4px;font-family:IBMPlexSans-Light, IBM Plex Sans Light;font-weight:300;}.cls-4{letter-spacing:0.01em;}.cls-5{letter-spacing:0.02em;}.cls-6{letter-spacing:0.01em;}.cls-7{letter-spacing:0.02em;}.cls-8{letter-spacing:0.02em;}.cls-9{letter-spacing:0em;}.cls-10{letter-spacing:0em;}.cls-11{letter-spacing:0.01em;}.cls-12{letter-spacing:0.02em;}.cls-13{letter-spacing:0.02em;}.cls-14{letter-spacing:0em;}.cls-15{letter-spacing:0.01em;}.cls-16{letter-spacing:0.02em;}.cls-17{letter-spacing:0.02em;}.cls-18{letter-spacing:0em;}.cls-19{letter-spacing:0.01em;}.cls-20{letter-spacing:0.01em;}.cls-21{letter-spacing:0em;}.cls-22{letter-spacing:0.02em;}.cls-23{letter-spacing:0.01em;}.cls-24{letter-spacing:0em;}.cls-25{letter-spacing:0em;}.cls-26{letter-spacing:0.01em;}.cls-27{letter-spacing:0em;}</style>
  </defs>
  <title
     id="title6">Open-state-foundation-logo-tagline-nl</title>
  <path
     style="fill:#035c6e"
     id="path8"
     d="m 98.517427,17.62269 -37.24,37.26 a 26.39,26.39 0 0 0 37.24,-37.26"
     class="cls-1" />
  <path
     style="fill:#8dd5e5"
     id="path10"
     d="M 105.29743,6.6926903 68.037427,43.95269 A 26.39,26.39 0 0 1 105.29743,6.6926903"
     class="cls-2" />
  <path
     style="fill:#035c6e"
     id="path12"
     d="m 45.797427,17.61269 -37.2800003,37.26 a 26.39,26.39 0 0 0 37.2800003,-37.26"
     class="cls-1" />
  <path
     style="fill:#8dd5e5"
     id="path14"
     d="m 43.727427,15.53269 -37.2100003,37.26 a 26.39,26.39 0 0 1 37.2100003,-37.26"
     class="cls-2" />
  <path
     style="fill:#035c6e"
     id="path16"
     d="m 136.76743,22.17269 a 8.6,8.6 0 0 1 -0.65,3.41 7.76,7.76 0 0 1 -1.79,2.65 8,8 0 0 1 -2.72,1.7 10,10 0 0 1 -6.84,0 8,8 0 0 1 -2.71,-1.7 7.76,7.76 0 0 1 -1.79,-2.65 9.3,9.3 0 0 1 0,-6.83 7.42,7.42 0 0 1 1.79,-2.59 7.91,7.91 0 0 1 2.71,-1.64 10.37,10.37 0 0 1 6.84,0 7.86,7.86 0 0 1 2.72,1.64 7.42,7.42 0 0 1 1.79,2.59 8.55,8.55 0 0 1 0.65,3.42 z m -4.07,0 a 5.44,5.44 0 0 0 -0.33,-1.91 4.52,4.52 0 0 0 -0.93,-1.53 4.29,4.29 0 0 0 -1.42,-1 4.6,4.6 0 0 0 -1.83,-0.37 4.38,4.38 0 0 0 -3.25,1.37 4.2,4.2 0 0 0 -0.92,1.53 5.78,5.78 0 0 0 0,3.88 4.64,4.64 0 0 0 0.92,1.54 4.1,4.1 0 0 0 1.41,1 4.69,4.69 0 0 0 3.65,0 4.23,4.23 0 0 0 1.42,-1 4.68,4.68 0 0 0 0.94,-1.54 5.7,5.7 0 0 0 0.34,-1.97 z"
     class="cls-1" />
  <path
     style="fill:#035c6e"
     id="path18"
     d="m 152.08743,19.21269 a 4.82,4.82 0 0 1 -0.51,2.32 4.24,4.24 0 0 1 -1.38,1.54 6,6 0 0 1 -2,0.84 10.1,10.1 0 0 1 -2.36,0.27 h -1.89 v 5.89 h -3.8 v -15.71 h 5.78 a 11,11 0 0 1 2.42,0.26 5.63,5.63 0 0 1 1.95,0.82 4,4 0 0 1 1.32,1.49 5.06,5.06 0 0 1 0.47,2.28 z m -3.8,0 a 1.68,1.68 0 0 0 -0.22,-0.91 1.62,1.62 0 0 0 -0.6,-0.56 2.55,2.55 0 0 0 -0.86,-0.26 6.41,6.41 0 0 0 -1,-0.07 h -1.67 v 3.72 h 1.58 a 5.69,5.69 0 0 0 1,-0.09 2.8,2.8 0 0 0 0.88,-0.32 1.62,1.62 0 0 0 0.61,-0.58 1.78,1.78 0 0 0 0.28,-0.91 z"
     class="cls-1" />
  <path
     style="fill:#035c6e"
     id="path20"
     d="m 154.91743,30.07269 v -15.71 h 10.6 v 3.2 h -6.91 v 3 h 6.54 v 3.05 h -6.54 v 3.27 h 7.31 v 3.19 z"
     class="cls-1" />
  <path
     style="fill:#035c6e"
     id="path22"
     d="m 179.51743,30.07269 -6.34,-10.3 h -0.06 l 0.09,10.3 h -3.69 v -15.71 h 4.33 l 6.32,10.28 h 0.07 l -0.09,-10.28 h 3.69 v 15.71 z"
     class="cls-1" />
  <path
     style="fill:#035c6e"
     id="path24"
     d="m 202.68743,18.45269 a 3.55,3.55 0 0 0 -1.28,-1 3.66,3.66 0 0 0 -1.52,-0.36 5.09,5.09 0 0 0 -0.77,0.06 2,2 0 0 0 -0.7,0.26 1.74,1.74 0 0 0 -0.52,0.49 1.3,1.3 0 0 0 -0.21,0.77 1.22,1.22 0 0 0 0.16,0.66 1.48,1.48 0 0 0 0.49,0.47 4.61,4.61 0 0 0 0.77,0.37 l 1,0.34 1.67,0.59 a 6.35,6.35 0 0 1 1.58,0.86 4.68,4.68 0 0 1 1.16,1.33 3.83,3.83 0 0 1 0.46,2 5.09,5.09 0 0 1 -0.5,2.35 4.64,4.64 0 0 1 -1.34,1.63 5.87,5.87 0 0 1 -1.94,1 8.35,8.35 0 0 1 -2.24,0.31 9.32,9.32 0 0 1 -3.27,-0.59 6.84,6.84 0 0 1 -2.63,-1.68 l 2.49,-2.54 a 4.5,4.5 0 0 0 1.53,1.19 4.1,4.1 0 0 0 1.88,0.48 3.75,3.75 0 0 0 0.82,-0.09 1.92,1.92 0 0 0 0.7,-0.29 1.45,1.45 0 0 0 0.48,-0.53 1.66,1.66 0 0 0 0.18,-0.8 1.27,1.27 0 0 0 -0.23,-0.76 2.33,2.33 0 0 0 -0.63,-0.56 5.42,5.42 0 0 0 -1,-0.47 l -1.39,-0.46 a 12.57,12.57 0 0 1 -1.48,-0.57 5.19,5.19 0 0 1 -1.29,-0.86 3.93,3.93 0 0 1 -0.91,-1.27 4.26,4.26 0 0 1 -0.35,-1.81 4.54,4.54 0 0 1 0.53,-2.25 4.7,4.7 0 0 1 1.41,-1.53 6.07,6.07 0 0 1 1.95,-0.88 8.68,8.68 0 0 1 2.2,-0.28 8.12,8.12 0 0 1 2.73,0.49 6.93,6.93 0 0 1 2.43,1.45 z"
     class="cls-1" />
  <path
     style="fill:#035c6e"
     id="path26"
     d="m 215.51743,17.61269 v 12.46 h -3.8 v -12.46 h -4.45 v -3.25 h 12.7 v 3.25 z"
     class="cls-1" />
  <path
     style="fill:#035c6e"
     id="path28"
     d="m 231.95743,30.07269 -1.23,-3 h -6.09 l -1.12,3 h -4.13 l 6.6,-15.75 h 3.69 l 6.5,15.75 z m -4.23,-11.5 -2,5.4 h 4 z"
     class="cls-1" />
  <path
     style="fill:#035c6e"
     id="path30"
     d="m 243.78743,17.61269 v 12.46 h -3.8 v -12.46 h -4.47 v -3.25 h 12.7 v 3.25 z"
     class="cls-1" />
  <path
     style="fill:#035c6e"
     id="path32"
     d="m 250.78743,30.07269 v -15.71 h 10.59 v 3.2 h -6.92 v 3 h 6.54 v 3.05 h -6.54 v 3.27 h 7.32 v 3.19 z"
     class="cls-1" />
  <path
     style="fill:#035c6e"
     id="path34"
     d="m 271.79743,14.36269 h 10.16 v 2.45 h -7.36 v 4.31 h 6.92 v 2.36 h -6.94 v 6.59 h -2.8 z"
     class="cls-1" />
  <path
     style="fill:#035c6e"
     id="path36"
     d="m 284.42743,22.19269 a 8.64,8.64 0 0 1 0.64,-3.41 7.5,7.5 0 0 1 1.75,-2.59 7.75,7.75 0 0 1 2.7,-1.65 9.47,9.47 0 0 1 3.37,-0.58 9.65,9.65 0 0 1 3.41,0.58 7.94,7.94 0 0 1 2.69,1.65 7.39,7.39 0 0 1 1.76,2.59 9.3,9.3 0 0 1 0,6.78 7.7,7.7 0 0 1 -1.76,2.62 8.1,8.1 0 0 1 -2.69,1.72 9.44,9.44 0 0 1 -3.41,0.61 9.26,9.26 0 0 1 -3.37,-0.61 7.92,7.92 0 0 1 -2.67,-1.72 7.82,7.82 0 0 1 -1.75,-2.62 8.58,8.58 0 0 1 -0.67,-3.37 z m 3,0 a 6.6,6.6 0 0 0 0.39,2.32 5.42,5.42 0 0 0 1.11,1.84 5.07,5.07 0 0 0 1.71,1.21 5.38,5.38 0 0 0 2.19,0.43 5.48,5.48 0 0 0 2.21,-0.43 5.11,5.11 0 0 0 1.72,-1.21 5.42,5.42 0 0 0 1.11,-1.84 6.6,6.6 0 0 0 0.39,-2.32 6.48,6.48 0 0 0 -0.39,-2.27 5.51,5.51 0 0 0 -1.05,-1.85 5.06,5.06 0 0 0 -1.71,-1.23 5.55,5.55 0 0 0 -2.23,-0.44 5.45,5.45 0 0 0 -2.21,0.44 5.12,5.12 0 0 0 -1.7,1.23 5.68,5.68 0 0 0 -1.1,1.82 6.48,6.48 0 0 0 -0.35,2.3 z"
     class="cls-1" />
  <path
     style="fill:#035c6e"
     id="path38"
     d="m 317.43743,24.33269 a 6.53,6.53 0 0 1 -0.49,2.56 5.65,5.65 0 0 1 -1.34,2 5.75,5.75 0 0 1 -2,1.23 7.38,7.38 0 0 1 -5,0 5.84,5.84 0 0 1 -2,-1.23 5.5,5.5 0 0 1 -1.33,-2 6.53,6.53 0 0 1 -0.48,-2.56 v -10 h 2.72 v 9.85 a 5.31,5.31 0 0 0 0.18,1.37 3.41,3.41 0 0 0 0.59,1.21 3,3 0 0 0 1.09,0.87 4.44,4.44 0 0 0 3.36,0 3,3 0 0 0 1.09,-0.87 3.41,3.41 0 0 0 0.59,-1.21 5.31,5.31 0 0 0 0.18,-1.37 v -9.82 h 2.8 z"
     class="cls-1" />
  <path
     style="fill:#035c6e"
     id="path40"
     d="m 321.70743,14.36269 h 3.71 l 7.32,11.79 v 0 -11.79 h 2.81 v 15.71 h -3.56 l -7.47,-12.13 v 0 12.13 h -2.8 z"
     class="cls-1" />
  <path
     style="fill:#035c6e"
     id="path42"
     d="m 339.96743,14.36269 h 5.55 a 12.72,12.72 0 0 1 3.09,0.4 8,8 0 0 1 2.8,1.33 6.9,6.9 0 0 1 2,2.42 8,8 0 0 1 0.78,3.73 7.56,7.56 0 0 1 -0.78,3.55 7.29,7.29 0 0 1 -2,2.45 8.3,8.3 0 0 1 -2.8,1.41 10.77,10.77 0 0 1 -3.09,0.42 h -5.58 z m 5.13,13.3 a 9.47,9.47 0 0 0 2.18,-0.25 5.57,5.57 0 0 0 2,-0.87 4.58,4.58 0 0 0 1.44,-1.66 5.59,5.59 0 0 0 0.55,-2.64 6,6 0 0 0 -0.55,-2.76 4.46,4.46 0 0 0 -1.44,-1.67 5.15,5.15 0 0 0 -2,-0.82 10.69,10.69 0 0 0 -2.18,-0.23 h -2.33 v 10.9 z"
     class="cls-1" />
  <path
     style="fill:#035c6e"
     id="path44"
     d="m 362.04743,14.36269 h 2.47 l 6.74,15.71 h -3.2 l -1.47,-3.6 h -6.83 l -1.42,3.6 h -3.14 z m 3.56,9.71 -2.42,-6.4 -2.47,6.4 z"
     class="cls-1" />
  <path
     style="fill:#035c6e"
     id="path46"
     d="m 375.39743,16.81269 h -4.83 v -2.45 h 12.45 v 2.45 h -4.82 v 13.26 h -2.8 z"
     class="cls-1" />
  <path
     style="fill:#035c6e"
     id="path48"
     d="m 385.68743,14.36269 h 2.83 v 15.71 h -2.8 z"
     class="cls-1" />
  <path
     style="fill:#035c6e"
     id="path50"
     d="m 392.09743,22.19269 a 8.82,8.82 0 0 1 0.63,-3.41 7.39,7.39 0 0 1 1.79,-2.59 7.75,7.75 0 0 1 2.67,-1.65 9.43,9.43 0 0 1 3.37,-0.58 9.59,9.59 0 0 1 3.4,0.58 7.84,7.84 0 0 1 2.69,1.65 7.28,7.28 0 0 1 1.77,2.59 9.44,9.44 0 0 1 0,6.78 7.59,7.59 0 0 1 -1.77,2.62 8,8 0 0 1 -2.69,1.72 9.38,9.38 0 0 1 -3.4,0.61 9.22,9.22 0 0 1 -3.37,-0.61 7.92,7.92 0 0 1 -2.67,-1.72 7.7,7.7 0 0 1 -1.76,-2.62 8.76,8.76 0 0 1 -0.66,-3.37 z m 3,0 a 6.6,6.6 0 0 0 0.39,2.32 5.29,5.29 0 0 0 1.12,1.84 5.07,5.07 0 0 0 1.71,1.21 5.38,5.38 0 0 0 2.19,0.43 5.47,5.47 0 0 0 2.2,-0.43 5,5 0 0 0 1.81,-1.21 5.29,5.29 0 0 0 1.12,-1.84 6.6,6.6 0 0 0 0.39,-2.32 6.48,6.48 0 0 0 -0.39,-2.27 5.68,5.68 0 0 0 -1.12,-1.85 5.2,5.2 0 0 0 -1.72,-1.23 5.5,5.5 0 0 0 -2.22,-0.44 5.42,5.42 0 0 0 -2.21,0.44 5.27,5.27 0 0 0 -1.74,1.23 5.68,5.68 0 0 0 -1.1,1.82 6.48,6.48 0 0 0 -0.39,2.3 z"
     class="cls-1" />
  <path
     style="fill:#035c6e"
     id="path52"
     d="m 412.59743,14.36269 h 3.72 l 7.31,11.79 h 0.05 v -11.79 h 2.84 v 15.71 h -3.6 l -7.47,-12.17 v 0 12.17 h -2.81 z"
     class="cls-1" />
  <text
     y="56.392689"
     x="120.21743"
     style="font-size:18.39999962px;font-weight:300;fill:#035c6e;font-family:IBMPlexSans-Light, 'IBM Plex Sans Light'"
     id="text128"
     class="cls-3">Open data for digital transparency</text>
</svg>
