<?xml version="1.0" encoding="UTF-8" standalone="no"?>
<svg
   xmlns:dc="http://purl.org/dc/elements/1.1/"
   xmlns:cc="http://creativecommons.org/ns#"
   xmlns:rdf="http://www.w3.org/1999/02/22-rdf-syntax-ns#"
   xmlns:svg="http://www.w3.org/2000/svg"
   xmlns="http://www.w3.org/2000/svg"
   id="Layer_1"
   data-name="Layer 1"
   viewBox="0 0 475.18 106.78"
   version="1.1">
  <metadata
     id="metadata377">
    <rdf:RDF>
      <cc:Work
         rdf:about="">
        <dc:format>image/svg+xml</dc:format>
        <dc:type
           rdf:resource="http://purl.org/dc/dcmitype/StillImage" />
        <dc:title></dc:title>
      </cc:Work>
    </rdf:RDF>
  </metadata>
  <defs
     id="defs360">
    <style
       id="style358">.cls-2{fill:#035c6e}.cls-3{fill:#91d6e6}</style>
  </defs>
  <path
     fill="#fff"
     d="M0 0h475.18v106.78H0z"
     id="path362" />
  <path
     class="cls-2"
     d="M122.08 40.18L84.82 77.44a26.39 26.39 0 0 0 37.26-37.26"
     id="path364" />
  <path
     class="cls-3"
     d="M128.84 29.26L91.58 66.52a26.39 26.39 0 0 1 37.26-37.26"
     id="path366" />
  <path
     class="cls-2"
     d="M69.34 40.18L32.08 77.44a26.39 26.39 0 0 0 37.26-37.26"
     id="path368" />
  <path
     class="cls-3"
     d="M67.26 38.1L30 75.36A26.39 26.39 0 0 1 67.26 38.1"
     id="path370" />
  <path
     class="cls-2"
     d="m 160.3,44.73 c 0.0167,1.171256 -0.20092,2.334032 -0.64,3.42 -0.82094,2.025833 -2.4642,3.607289 -4.52,4.35 -2.20611,0.801576 -4.62389,0.801576 -6.83,0 -1.01104,-0.379446 -1.93588,-0.957472 -2.72,-1.7 -0.77108,-0.752069 -1.38023,-1.653876 -1.79,-2.65 -0.43908,-1.085968 -0.65668,-2.248744 -0.64,-3.42 -0.0186,-1.168178 0.19909,-2.328065 0.64,-3.41 0.4083,-0.979384 1.01819,-1.861851 1.79,-2.59 0.78916,-0.723757 1.71352,-1.284491 2.72,-1.65 2.2133,-0.75962 4.6167,-0.75962 6.83,0 1.01154,0.361159 1.93999,0.922312 2.73,1.65 0.77181,0.728149 1.3817,1.610616 1.79,2.59 0.44091,1.081935 0.6586,2.241822 0.64,3.41 z m -4.07,0 c 0.004,-0.651217 -0.10738,-1.297999 -0.33,-1.91 -0.19782,-0.560596 -0.50358,-1.076993 -0.9,-1.52 -0.40313,-0.42778 -0.88986,-0.768153 -1.43,-1 -0.57622,-0.253722 -1.20047,-0.379936 -1.83,-0.37 -0.62641,-0.01104 -1.24763,0.115252 -1.82,0.37 -0.53878,0.234286 -1.02505,0.574336 -1.43,1 -0.41057,0.436006 -0.72412,0.954045 -0.92,1.52 -0.21942,0.612567 -0.32778,1.259368 -0.32,1.91 -0.0112,0.681093 0.10055,1.358623 0.33,2 0.20357,0.571291 0.516,1.097677 0.92,1.55 0.39907,0.427963 0.88259,0.768473 1.42,1 1.73133,0.773177 3.76191,0.372668 5.07,-1 0.41054,-0.44927 0.72678,-0.976336 0.93,-1.55 0.22265,-0.642627 0.32767,-1.320123 0.31,-2 z m 19.4,-2.95 c 0.0262,0.80377 -0.14912,1.601322 -0.51,2.32 -0.32473,0.614744 -0.79939,1.137564 -1.38,1.52 -0.61042,0.400757 -1.28783,0.688658 -2,0.85 -0.77351,0.181336 -1.56552,0.271947 -2.36,0.27 h -1.89 v 5.93 h -3.8 V 36.93 h 5.78 c 0.81014,-0.0067 1.61849,0.07711 2.41,0.25 0.71365,0.146093 1.39261,0.427861 2,0.83 0.55486,0.378775 1.00539,0.891203 1.31,1.49 0.32836,0.713405 0.47932,1.49564 0.44,2.28 z m -3.8,0 c 0.0125,-0.319143 -0.0674,-0.635109 -0.23,-0.91 -0.14566,-0.237505 -0.35303,-0.431046 -0.6,-0.56 -0.26722,-0.134517 -0.55414,-0.225657 -0.85,-0.27 -0.33175,-0.04087 -0.66574,-0.06091 -1,-0.06 h -1.67 v 3.71 h 1.6 c 0.33537,3.85e-4 0.67009,-0.02974 1,-0.09 0.3091,-0.05148 0.60688,-0.156384 0.88,-0.31 0.2513,-0.140118 0.46159,-0.343512 0.61,-0.59 0.16827,-0.270165 0.25827,-0.581722 0.26,-0.9 z m 6.62,10.89 V 36.93 H 189 v 3.2 h -6.92 v 3 h 6.54 v 3 h -6.54 v 3.27 h 7.32 v 3.24 z m 24.55,0 -6.34,-10.29 h -0.07 l 0.09,10.29 H 193 V 36.93 h 4.34 l 6.31,10.27 h 0.07 l -0.09,-10.27 h 3.69 V 52.67 Z M 226.22,41 c -0.32553,-0.421582 -0.74273,-0.76355 -1.22,-1 -0.47777,-0.231059 -0.99945,-0.357216 -1.53,-0.37 -0.25806,0.0039 -0.51546,0.02729 -0.77,0.07 -0.24817,0.03977 -0.48605,0.128122 -0.7,0.26 -0.20291,0.124642 -0.37955,0.28769 -0.52,0.48 -0.14659,0.229378 -0.21984,0.497961 -0.21,0.77 -0.007,0.234814 0.052,0.466881 0.17,0.67 0.1247,0.192522 0.29245,0.353422 0.49,0.47 0.24154,0.14346 0.49598,0.263986 0.76,0.36 l 1,0.35 c 0.54,0.18 1.09,0.37 1.67,0.59 0.56539,0.204575 1.09772,0.490955 1.58,0.85 0.47898,0.359238 0.88036,0.81164 1.18,1.33 0.33733,0.610866 0.49994,1.302825 0.47,2 0.0182,0.808333 -0.15299,1.609712 -0.5,2.34 -0.32244,0.640256 -0.78364,1.200526 -1.35,1.64 -0.57616,0.437984 -1.2315,0.760559 -1.93,0.95 -0.73169,0.208624 -1.48915,0.312985 -2.25,0.31 -1.11697,0.0057 -2.22545,-0.194311 -3.27,-0.59 -0.98894,-0.350246 -1.88498,-0.92139 -2.62,-1.67 l 2.49,-2.54 c 0.41417,0.502411 0.93288,0.908504 1.52,1.19 0.57966,0.307025 1.22411,0.471566 1.88,0.48 0.27584,8.27e-4 0.5509,-0.02936 0.82,-0.09 0.24892,-0.05364 0.48608,-0.151887 0.7,-0.29 0.20173,-0.133827 0.36675,-0.316034 0.48,-0.53 0.12477,-0.247846 0.18659,-0.5226 0.18,-0.8 0.0102,-0.270384 -0.067,-0.53686 -0.22,-0.76 -0.1723,-0.231589 -0.39009,-0.425552 -0.64,-0.57 -0.315,-0.190405 -0.65045,-0.344712 -1,-0.46 -0.41,-0.14 -0.87,-0.3 -1.39,-0.46 -0.50442,-0.163765 -0.99862,-0.357441 -1.48,-0.58 -0.47029,-0.216861 -0.90518,-0.503417 -1.29,-0.85 -0.38386,-0.359402 -0.69309,-0.790966 -0.91,-1.27 -0.24615,-0.570935 -0.36556,-1.188458 -0.35,-1.81 -0.0235,-0.784695 0.16294,-1.561433 0.54,-2.25 0.34289,-0.613549 0.82181,-1.140365 1.4,-1.54 0.60681,-0.411773 1.28506,-0.706813 2,-0.87 0.71822,-0.187673 1.45767,-0.281785 2.2,-0.28 0.92823,0.0043 1.84863,0.170103 2.72,0.49 0.90299,0.308664 1.73332,0.7987 2.44,1.44 z m 12.84,-0.82 v 12.49 h -3.81 V 40.18 h -4.44 v -3.25 h 12.69 v 3.25 z m 16.43,12.49 -1.22,-3.09 h -6.1 L 247,52.67 h -4.14 l 6.61,-15.74 h 3.69 l 6.54,15.74 z m -4.22,-11.54 -2,5.41 h 4 z m 16.05,-0.95 v 12.49 h -3.8 V 40.18 h -4.45 v -3.25 h 12.7 v 3.25 z m 7.01,12.49 V 36.93 h 10.59 v 3.2 H 278 v 3 h 6.54 v 3 H 278 v 3.27 h 7.32 v 3.24 z m 21.01,-15.74 h 10.16 v 2.44 h -7.36 v 4.32 h 6.94 v 2.36 h -6.94 v 6.62 h -2.8 z M 308,44.76 c -0.0167,-1.170314 0.19741,-2.332444 0.63,-3.42 0.39736,-0.977839 0.99717,-1.860512 1.76,-2.59 0.75108,-0.716346 1.63872,-1.274101 2.61,-1.64 1.0786,-0.397094 2.22071,-0.593658 3.37,-0.58 1.15907,-0.01374 2.31103,0.182775 3.4,0.58 0.99864,0.358511 1.91388,0.9165 2.69,1.64 0.76903,0.726308 1.3727,1.609649 1.77,2.59 0.43259,1.087556 0.64667,2.249686 0.63,3.42 0.014,1.153863 -0.20009,2.299126 -0.63,3.37 -0.40189,0.986646 -1.00466,1.878886 -1.77,2.62 -0.77288,0.744671 -1.68771,1.326212 -2.69,1.71 -1.08452,0.41665 -2.23828,0.623647 -3.4,0.61 -1.15202,0.01424 -2.29607,-0.19284 -3.37,-0.61 -0.99654,-0.383459 -1.90488,-0.965204 -2.67,-1.71 -0.75908,-0.744271 -1.35801,-1.635855 -1.76,-2.62 -0.40943,-1.075012 -0.60311,-2.220137 -0.57,-3.37 z m 3,0 c -0.009,0.790382 0.12295,1.576044 0.39,2.32 0.24319,0.683656 0.62442,1.309972 1.12,1.84 0.4822,0.514946 1.06396,0.926599 1.71,1.21 0.69192,0.294837 1.43797,0.441322 2.19,0.43 0.75515,0.01008 1.50421,-0.136331 2.2,-0.43 0.65046,-0.280735 1.236,-0.692655 1.72,-1.21 0.49558,-0.530028 0.87681,-1.156344 1.12,-1.84 0.26705,-0.743956 0.39912,-1.529618 0.39,-2.32 0.008,-0.774025 -0.12379,-1.543145 -0.39,-2.27 -0.24636,-0.674688 -0.61976,-1.295897 -1.1,-1.83 -1.01452,-1.086763 -2.4436,-1.690399 -3.93,-1.66 -0.7598,-0.0147 -1.51377,0.135409 -2.21,0.44 -0.64449,0.290586 -1.22553,0.705123 -1.71,1.22 -0.48024,0.534103 -0.85364,1.155312 -1.1,1.83 -0.26961,0.726223 -0.40515,1.495361 -0.4,2.27 z m 30,2.13 c 0.0154,0.881268 -0.15144,1.756214 -0.49,2.57 -0.30549,0.734021 -0.75813,1.397667 -1.33,1.95 -0.57916,0.537714 -1.25883,0.955716 -2,1.23 -1.61856,0.566305 -3.38144,0.566305 -5,0 -0.74117,-0.274284 -1.42084,-0.692286 -2,-1.23 -0.57814,-0.549121 -1.03464,-1.21343 -1.34,-1.95 -0.32229,-0.817954 -0.48194,-1.690921 -0.47,-2.57 v -10 h 2.8 v 9.85 c 7e-5,0.462557 0.0606,0.923123 0.18,1.37 0.10806,0.440816 0.30924,0.853392 0.59,1.21 0.28657,0.374921 0.66088,0.67368 1.09,0.87 1.07341,0.439564 2.27659,0.439564 3.35,0 0.42912,-0.19632 0.80343,-0.495079 1.09,-0.87 0.27699,-0.358961 0.47776,-0.770706 0.59,-1.21 0.11941,-0.446877 0.17993,-0.907443 0.18,-1.37 V 36.93 H 341 Z m 4.24,-9.96 H 349 l 7.31,11.79 h 0.05 V 36.93 h 2.8 v 15.74 h -3.56 l -7.47,-12.16 v 12.16 h -2.8 z m 18.26,0 h 5.58 c 1.04291,-5.7e-5 2.08148,0.134385 3.09,0.4 1.01943,0.253952 1.98031,0.702137 2.83,1.32 0.84247,0.64769 1.52642,1.478691 2,2.43 0.55507,1.159333 0.82262,2.435345 0.78,3.72 0.0338,1.23248 -0.23397,2.454561 -0.78,3.56 -0.48125,0.951947 -1.16367,1.787912 -2,2.45 -0.84374,0.635988 -1.79581,1.113715 -2.81,1.41 -1.00336,0.296175 -2.04384,0.447701 -3.09,0.45 h -5.6 z m 5.14,13.3 c 0.73425,-0.0026 1.46574,-0.08982 2.18,-0.26 0.71622,-0.159277 1.39518,-0.454627 2,-0.87 0.60165,-0.427844 1.09201,-0.993644 1.43,-1.65 0.39992,-0.82447 0.59217,-1.734222 0.56,-2.65 0.0349,-0.951399 -0.15701,-1.897458 -0.56,-2.76 -0.33228,-0.662929 -0.82357,-1.233241 -1.43,-1.66 -0.60258,-0.411104 -1.2834,-0.693645 -2,-0.83 -0.71728,-0.14739 -1.44774,-0.221106 -2.18,-0.22 h -2.34 v 10.9 z m 16.94,-13.3 H 388 l 6.78,15.74 h -3.2 l -1.47,-3.6 h -6.83 l -1.42,3.6 h -3.13 z m 3.56,9.74 -2.42,-6.41 -2.47,6.41 z m 9.79,-7.3 h -4.83 v -2.44 h 12.46 v 2.44 h -4.83 v 13.3 h -2.8 z m 10.3,-2.44 H 412 v 15.74 h -2.8 z m 6.4,7.83 c -0.0186,-1.171418 0.19909,-2.334568 0.64,-3.42 0.38801,-0.97544 0.97752,-1.858007 1.73,-2.59 0.76871,-0.723212 1.67737,-1.281344 2.67,-1.64 1.0786,-0.397094 2.22071,-0.593658 3.37,-0.58 1.15912,-0.0144 2.3112,0.182129 3.4,0.58 0.99987,0.355946 1.9156,0.914237 2.69,1.64 0.76903,0.726308 1.3727,1.609649 1.77,2.59 0.44091,1.085432 0.65858,2.248582 0.64,3.42 0.0157,1.154961 -0.202,2.301198 -0.64,3.37 -0.40189,0.986646 -1.00466,1.878886 -1.77,2.62 -0.77082,0.747296 -1.68621,1.329199 -2.69,1.71 -1.08426,0.417593 -2.2382,0.624622 -3.4,0.61 -1.15202,0.01424 -2.29607,-0.19284 -3.37,-0.61 -0.99654,-0.383459 -1.90488,-0.965204 -2.67,-1.71 -0.75592,-0.744839 -1.35146,-1.636453 -1.75,-2.62 -0.43116,-1.070219 -0.64203,-2.216406 -0.62,-3.37 z m 3.05,0 c -0.009,0.790382 0.12295,1.576044 0.39,2.32 0.24349,0.681269 0.6209,1.306896 1.11,1.84 0.4822,0.514946 1.06396,0.926599 1.71,1.21 0.69192,0.294837 1.43797,0.441322 2.19,0.43 0.75841,0.0103 1.51078,-0.136085 2.21,-0.43 0.6455,-0.284365 1.22707,-0.695889 1.71,-1.21 0.4891,-0.533104 0.86651,-1.158731 1.11,-1.84 0.26705,-0.743956 0.39912,-1.529618 0.39,-2.32 0.008,-0.774025 -0.12379,-1.543145 -0.39,-2.27 -0.24636,-0.674688 -0.61976,-1.295897 -1.1,-1.83 -1.01151,-1.091057 -2.44262,-1.695546 -3.93,-1.66 -1.48171,-0.03628 -2.90696,0.568809 -3.91,1.66 -0.48374,0.531506 -0.85758,1.153439 -1.1,1.83 -0.26621,0.726855 -0.39835,1.495975 -0.39,2.27 z m 17.43,-7.83 h 3.72 l 7.32,11.79 V 36.93 H 450 v 15.74 h -3.56 L 439,40.51 v 12.16 h -2.81 z"
     id="path372"
     style="fill:#035c6e" />
  <g
     id="text138"
     style="font-style:normal;font-variant:normal;font-weight:200;font-stretch:normal;font-size:23.93918228px;line-height:23.93918228px;font-family:'IBM Plex Sans ExtraLight';-inkscape-font-specification:'IBM Plex Sans ExtraLight, Ultra-Light';letter-spacing:-0.51124352px;word-spacing:0px;fill:#035c6e;fill-opacity:1;stroke:none;stroke-width:0.61691451px;stroke-linecap:butt;stroke-linejoin:miter;stroke-opacity:1"
     transform="scale(1.0225066,0.97798879)"
     aria-label="open data, transparent society">
    <path
       id="path16"
       style="font-style:normal;font-variant:normal;font-weight:200;font-stretch:normal;font-size:23.93918228px;line-height:100%;font-family:'IBM Plex Sans ExtraLight';-inkscape-font-specification:'IBM Plex Sans ExtraLight, Ultra-Light';letter-spacing:-0.51124352px;word-spacing:0px;fill:#035c6e;fill-opacity:1;stroke-width:0.61691451px"
       d="m 145.15091,81.291817 q -2.39392,0 -3.78239,-1.627864 -1.36454,-1.627864 -1.36454,-4.739958 0,-3.136033 1.36454,-4.739958 1.38847,-1.627865 3.78239,-1.627865 2.39392,0 3.75845,1.627865 1.38847,1.603925 1.38847,4.739958 0,3.112094 -1.38847,4.739958 -1.36453,1.627864 -3.75845,1.627864 z m 0,-0.742114 q 2.03483,0 3.13603,-1.316655 1.1012,-1.340595 1.1012,-3.662695 v -1.292716 q 0,-2.34604 -1.1012,-3.662695 -1.1012,-1.316655 -3.13603,-1.316655 -2.03483,0 -3.13604,1.316655 -1.1012,1.316655 -1.1012,3.662695 v 1.292716 q 0,2.3221 1.1012,3.662695 1.10121,1.316655 3.13604,1.316655 z" />
    <path
       id="path18"
       style="font-style:normal;font-variant:normal;font-weight:200;font-stretch:normal;font-size:23.93918228px;line-height:100%;font-family:'IBM Plex Sans ExtraLight';-inkscape-font-specification:'IBM Plex Sans ExtraLight, Ultra-Light';letter-spacing:-0.51124352px;word-spacing:0px;fill:#035c6e;fill-opacity:1;stroke-width:0.61691451px"
       d="m 153.56711,68.843443 h 0.83787 v 1.891195 h 0.0718 q 0.40696,-0.88575 1.36453,-1.532108 0.95757,-0.646358 2.48968,-0.646358 2.39391,0 3.71057,1.627865 1.34059,1.603925 1.34059,4.739958 0,3.136033 -1.34059,4.763897 -1.31666,1.603925 -3.71057,1.603925 -1.53211,0 -2.48968,-0.646358 -0.95757,-0.670297 -1.36453,-1.532107 h -0.0718 v 6.679032 h -0.83787 z m 4.6442,11.68232 q 2.03483,0 3.13603,-1.316655 1.12514,-1.316655 1.12514,-3.590877 v -1.388472 q 0,-2.274223 -1.12514,-3.590878 -1.1012,-1.340594 -3.13603,-1.340594 -0.76605,0 -1.46029,0.239392 -0.69424,0.215452 -1.2209,0.622419 -0.50272,0.383026 -0.81393,0.957567 -0.31121,0.550601 -0.31121,1.220898 v 5.122985 q 0,0.694236 0.31121,1.268777 0.31121,0.550601 0.81393,0.957567 0.52666,0.406966 1.2209,0.622419 0.69424,0.215452 1.46029,0.215452 z" />
    <path
       id="path20"
       style="font-style:normal;font-variant:normal;font-weight:200;font-stretch:normal;font-size:23.93918228px;line-height:100%;font-family:'IBM Plex Sans ExtraLight';-inkscape-font-specification:'IBM Plex Sans ExtraLight, Ultra-Light';letter-spacing:-0.51124352px;word-spacing:0px;fill:#035c6e;fill-opacity:1;stroke-width:0.61691451px"
       d="m 170.76801,81.291817 q -2.41786,0 -3.83027,-1.627864 -1.38847,-1.627864 -1.38847,-4.739958 0,-3.088155 1.36453,-4.716019 1.36453,-1.651804 3.75845,-1.651804 1.12514,0 2.03483,0.430906 0.93363,0.430905 1.57999,1.220898 0.67029,0.789993 1.02938,1.915134 0.35909,1.101203 0.35909,2.465736 v 0.383027 h -9.24052 v 0.646358 q 0,1.125142 0.28727,2.034831 0.28727,0.909689 0.83787,1.556046 0.57454,0.646358 1.36453,1.005446 0.81393,0.335149 1.84332,0.335149 2.89664,0 3.99784,-2.776945 l 0.64636,0.359087 q -0.5506,1.436351 -1.72362,2.298162 -1.17302,0.86181 -2.92058,0.86181 z m -0.0958,-11.99353 q -1.00544,0 -1.79544,0.359088 -0.76605,0.335148 -1.31665,0.981506 -0.5506,0.646358 -0.83787,1.556047 -0.28727,0.909689 -0.28727,2.010891 v 0.09576 h 8.33083 v -0.143635 q 0,-1.101202 -0.31121,-1.986952 -0.28727,-0.909689 -0.83787,-1.532108 -0.52666,-0.646358 -1.29272,-0.981506 -0.74211,-0.359088 -1.6518,-0.359088 z" />
    <path
       id="path22"
       style="font-style:normal;font-variant:normal;font-weight:200;font-stretch:normal;font-size:23.93918228px;line-height:100%;font-family:'IBM Plex Sans ExtraLight';-inkscape-font-specification:'IBM Plex Sans ExtraLight, Ultra-Light';letter-spacing:-0.51124352px;word-spacing:0px;fill:#035c6e;fill-opacity:1;stroke-width:0.61691451px"
       d="M 178.92537,81.004547 V 68.843443 h 0.83787 v 1.867256 h 0.0718 q 0.35908,-0.88575 1.24483,-1.508169 0.90969,-0.646358 2.48968,-0.646358 2.01089,0 3.06421,1.196959 1.07727,1.17302 1.07727,3.447243 v 7.804173 h -0.83787 v -7.660538 q 0,-2.106648 -0.90969,-3.064216 -0.88575,-0.981506 -2.58544,-0.981506 -0.69423,0 -1.36453,0.191513 -0.64636,0.191514 -1.14908,0.574541 -0.50272,0.383027 -0.81393,0.957567 -0.28727,0.57454 -0.28727,1.340594 v 8.642045 z" />
    <path
       id="path24"
       style="font-style:normal;font-variant:normal;font-weight:200;font-stretch:normal;font-size:23.93918228px;line-height:100%;font-family:'IBM Plex Sans ExtraLight';-inkscape-font-specification:'IBM Plex Sans ExtraLight, Ultra-Light';letter-spacing:-0.51124352px;word-spacing:0px;fill:#035c6e;fill-opacity:1;stroke-width:0.61691451px"
       d="m 204.88046,79.113352 h -0.0718 q -0.40697,0.86181 -1.36454,1.532107 -0.95756,0.646358 -2.48967,0.646358 -2.39392,0 -3.73451,-1.603925 -1.31666,-1.627864 -1.31666,-4.763897 0,-3.136033 1.31666,-4.739958 1.34059,-1.627865 3.73451,-1.627865 1.53211,0 2.48967,0.646358 0.95757,0.646358 1.36454,1.532108 h 0.0718 v -7.445086 h 0.83788 v 17.714995 h -0.83788 z m -3.80632,1.412411 q 0.76605,0 1.46029,-0.215452 0.69423,-0.215453 1.19695,-0.622419 0.52667,-0.406966 0.83788,-0.957567 0.3112,-0.574541 0.3112,-1.268777 v -5.122985 q 0,-0.670297 -0.3112,-1.220898 -0.31121,-0.574541 -0.83788,-0.957567 -0.50272,-0.406967 -1.19695,-0.622419 -0.69424,-0.239392 -1.46029,-0.239392 -2.03484,0 -3.15998,1.340594 -1.1012,1.316655 -1.1012,3.590878 v 1.388472 q 0,2.274222 1.1012,3.590877 1.12514,1.316655 3.15998,1.316655 z" />
    <path
       id="path26"
       style="font-style:normal;font-variant:normal;font-weight:200;font-stretch:normal;font-size:23.93918228px;line-height:100%;font-family:'IBM Plex Sans ExtraLight';-inkscape-font-specification:'IBM Plex Sans ExtraLight, Ultra-Light';letter-spacing:-0.51124352px;word-spacing:0px;fill:#035c6e;fill-opacity:1;stroke-width:0.61691451px"
       d="m 217.90459,81.004547 q -0.98151,0 -1.02939,-1.005446 v -0.885749 h -0.0958 q -0.43091,0.933628 -1.36454,1.556047 -0.93363,0.622418 -2.51361,0.622418 -1.8912,0 -2.92058,-0.909689 -1.02939,-0.909689 -1.02939,-2.561492 0,-0.789993 0.23939,-1.436351 0.2394,-0.646358 0.79,-1.101202 0.57454,-0.478784 1.46029,-0.718176 0.90969,-0.263331 2.22634,-0.263331 h 3.18391 v -1.627864 q 0,-1.723621 -0.83787,-2.537554 -0.83787,-0.837871 -2.48967,-0.837871 -2.5615,0 -3.543,2.154526 l -0.59848,-0.406966 q 0.50272,-1.125141 1.48423,-1.795438 0.9815,-0.694237 2.68119,-0.694237 2.03483,0 3.08815,1.053324 1.05332,1.029385 1.05332,2.968459 v 7.684477 h 1.86726 v 0.742115 z m -4.93147,-0.454844 q 0.78999,0 1.48422,-0.191514 0.71818,-0.215452 1.24484,-0.598479 0.52666,-0.383027 0.83787,-0.957568 0.31121,-0.57454 0.31121,-1.340594 v -2.489675 h -3.18391 q -2.01089,0 -2.92058,0.694236 -0.90969,0.670298 -0.90969,1.795439 v 0.670297 q 0,1.196959 0.86181,1.819378 0.88575,0.59848 2.27423,0.59848 z" />
    <path
       id="path28"
       style="font-style:normal;font-variant:normal;font-weight:200;font-stretch:normal;font-size:23.93918228px;line-height:100%;font-family:'IBM Plex Sans ExtraLight';-inkscape-font-specification:'IBM Plex Sans ExtraLight, Ultra-Light';letter-spacing:-0.51124352px;word-spacing:0px;fill:#035c6e;fill-opacity:1;stroke-width:0.61691451px"
       d="m 223.60294,81.004547 q -1.02938,0 -1.02938,-1.005446 V 69.585557 h -2.20241 v -0.742114 h 1.57999 q 0.40696,0 0.52666,-0.167575 0.14364,-0.167574 0.14364,-0.57454 V 65.3962 h 0.78999 v 3.447243 h 2.84876 v 0.742114 h -2.84876 v 10.676875 h 2.65725 v 0.742115 z" />
    <path
       id="path30"
       style="font-style:normal;font-variant:normal;font-weight:200;font-stretch:normal;font-size:23.93918228px;line-height:100%;font-family:'IBM Plex Sans ExtraLight';-inkscape-font-specification:'IBM Plex Sans ExtraLight, Ultra-Light';letter-spacing:-0.51124352px;word-spacing:0px;fill:#035c6e;fill-opacity:1;stroke-width:0.61691451px"
       d="m 237.12754,81.004547 q -0.98151,0 -1.02938,-1.005446 v -0.885749 h -0.0958 q -0.43091,0.933628 -1.36453,1.556047 -0.93363,0.622418 -2.51362,0.622418 -1.89119,0 -2.92058,-0.909689 -1.02938,-0.909689 -1.02938,-2.561492 0,-0.789993 0.23939,-1.436351 0.23939,-0.646358 0.78999,-1.101202 0.57454,-0.478784 1.46029,-0.718176 0.90969,-0.263331 2.22635,-0.263331 h 3.18391 v -1.627864 q 0,-1.723621 -0.83787,-2.537554 -0.83788,-0.837871 -2.48968,-0.837871 -2.56149,0 -3.543,2.154526 l -0.59848,-0.406966 q 0.50272,-1.125141 1.48423,-1.795438 0.98151,-0.694237 2.68119,-0.694237 2.03483,0 3.08815,1.053324 1.05333,1.029385 1.05333,2.968459 v 7.684477 h 1.86725 v 0.742115 z m -4.93147,-0.454844 q 0.78999,0 1.48423,-0.191514 0.71817,-0.215452 1.24484,-0.598479 0.52666,-0.383027 0.83787,-0.957568 0.31121,-0.57454 0.31121,-1.340594 v -2.489675 h -3.18391 q -2.0109,0 -2.92058,0.694236 -0.90969,0.670298 -0.90969,1.795439 v 0.670297 q 0,1.196959 0.86181,1.819378 0.88575,0.59848 2.27422,0.59848 z" />
    <path
       id="path32"
       style="font-style:normal;font-variant:normal;font-weight:200;font-stretch:normal;font-size:23.93918228px;line-height:100%;font-family:'IBM Plex Sans ExtraLight';-inkscape-font-specification:'IBM Plex Sans ExtraLight, Ultra-Light';letter-spacing:-0.51124352px;word-spacing:0px;fill:#035c6e;fill-opacity:1;stroke-width:0.61691451px"
       d="m 241.98466,79.376683 q 0.4309,0 0.62241,0.239392 0.21546,0.215452 0.21546,0.57454 v 0.28727 q 0,1.005446 -0.5506,2.106648 -0.55061,1.101203 -1.38848,1.867256 h -0.71817 q 0.86181,-0.86181 1.24484,-1.74756 0.40696,-0.861811 0.52666,-1.556047 -0.43091,-0.02394 -0.62242,-0.239392 -0.16758,-0.215452 -0.16758,-0.478783 v -0.239392 q 0,-0.359088 0.19152,-0.57454 0.19151,-0.239392 0.64636,-0.239392 z" />
    <path
       id="path34"
       style="font-style:normal;font-variant:normal;font-weight:200;font-stretch:normal;font-size:23.93918228px;line-height:100%;font-family:'IBM Plex Sans ExtraLight';-inkscape-font-specification:'IBM Plex Sans ExtraLight, Ultra-Light';letter-spacing:-0.51124352px;word-spacing:0px;fill:#035c6e;fill-opacity:1;stroke-width:0.61691451px"
       d="m 253.53922,81.004547 q -1.02938,0 -1.02938,-1.005446 V 69.585557 h -2.20241 v -0.742114 h 1.57999 q 0.40696,0 0.52666,-0.167575 0.14363,-0.167574 0.14363,-0.57454 V 65.3962 h 0.79 v 3.447243 h 2.84876 v 0.742114 h -2.84876 v 10.676875 h 2.65725 v 0.742115 z" />
    <path
       id="path36"
       style="font-style:normal;font-variant:normal;font-weight:200;font-stretch:normal;font-size:23.93918228px;line-height:100%;font-family:'IBM Plex Sans ExtraLight';-inkscape-font-specification:'IBM Plex Sans ExtraLight, Ultra-Light';letter-spacing:-0.51124352px;word-spacing:0px;fill:#035c6e;fill-opacity:1;stroke-width:0.61691451px"
       d="M 259.13995,81.004547 V 68.843443 h 0.83787 v 2.130587 h 0.0958 q 0.38303,-0.861811 1.24484,-1.48423 0.86181,-0.646357 2.48967,-0.646357 h 0.90969 v 0.789993 h -1.05332 q -0.74212,0 -1.41242,0.191513 -0.67029,0.191513 -1.17302,0.57454 -0.50272,0.383027 -0.81393,0.957568 -0.28727,0.550601 -0.28727,1.292716 v 8.354774 z" />
    <path
       id="path38"
       style="font-style:normal;font-variant:normal;font-weight:200;font-stretch:normal;font-size:23.93918228px;line-height:100%;font-family:'IBM Plex Sans ExtraLight';-inkscape-font-specification:'IBM Plex Sans ExtraLight, Ultra-Light';letter-spacing:-0.51124352px;word-spacing:0px;fill:#035c6e;fill-opacity:1;stroke-width:0.61691451px"
       d="m 274.82842,81.004547 q -0.9815,0 -1.02938,-1.005446 v -0.885749 h -0.0958 q -0.4309,0.933628 -1.36453,1.556047 -0.93363,0.622418 -2.51362,0.622418 -1.89119,0 -2.92058,-0.909689 -1.02938,-0.909689 -1.02938,-2.561492 0,-0.789993 0.23939,-1.436351 0.23939,-0.646358 0.78999,-1.101202 0.57454,-0.478784 1.46029,-0.718176 0.90969,-0.263331 2.22635,-0.263331 h 3.18391 v -1.627864 q 0,-1.723621 -0.83787,-2.537554 -0.83787,-0.837871 -2.48968,-0.837871 -2.56149,0 -3.543,2.154526 l -0.59848,-0.406966 q 0.50273,-1.125141 1.48423,-1.795438 0.98151,-0.694237 2.68119,-0.694237 2.03483,0 3.08816,1.053324 1.05332,1.029385 1.05332,2.968459 v 7.684477 h 1.86726 v 0.742115 z m -4.93147,-0.454844 q 0.78999,0 1.48423,-0.191514 0.71818,-0.215452 1.24484,-0.598479 0.52666,-0.383027 0.83787,-0.957568 0.31121,-0.57454 0.31121,-1.340594 v -2.489675 h -3.18391 q -2.01089,0 -2.92058,0.694236 -0.90969,0.670298 -0.90969,1.795439 v 0.670297 q 0,1.196959 0.86181,1.819378 0.88575,0.59848 2.27422,0.59848 z" />
    <path
       id="path40"
       style="font-style:normal;font-variant:normal;font-weight:200;font-stretch:normal;font-size:23.93918228px;line-height:100%;font-family:'IBM Plex Sans ExtraLight';-inkscape-font-specification:'IBM Plex Sans ExtraLight, Ultra-Light';letter-spacing:-0.51124352px;word-spacing:0px;fill:#035c6e;fill-opacity:1;stroke-width:0.61691451px"
       d="M 278.87723,81.004547 V 68.843443 h 0.83787 v 1.867256 h 0.0718 q 0.35909,-0.88575 1.24484,-1.508169 0.90969,-0.646358 2.48968,-0.646358 2.01089,0 3.06421,1.196959 1.07727,1.17302 1.07727,3.447243 v 7.804173 h -0.83788 v -7.660538 q 0,-2.106648 -0.90969,-3.064216 -0.88575,-0.981506 -2.58543,-0.981506 -0.69423,0 -1.36453,0.191513 -0.64636,0.191514 -1.14908,0.574541 -0.50272,0.383027 -0.81393,0.957567 -0.28727,0.57454 -0.28727,1.340594 v 8.642045 z" />
    <path
       id="path42"
       style="font-style:normal;font-variant:normal;font-weight:200;font-stretch:normal;font-size:23.93918228px;line-height:100%;font-family:'IBM Plex Sans ExtraLight';-inkscape-font-specification:'IBM Plex Sans ExtraLight, Ultra-Light';letter-spacing:-0.51124352px;word-spacing:0px;fill:#035c6e;fill-opacity:1;stroke-width:0.61691451px"
       d="m 295.01792,81.291817 q -1.50817,0 -2.63331,-0.550601 -1.10121,-0.550601 -1.93908,-1.723621 l 0.64636,-0.478784 q 0.81393,1.077264 1.72362,1.556047 0.93363,0.454845 2.22635,0.454845 1.62786,0 2.46573,-0.670297 0.83787,-0.670298 0.83787,-1.939074 0,-1.220899 -0.71817,-1.819378 -0.69424,-0.59848 -2.15453,-0.837871 l -1.02938,-0.167575 q -0.81394,-0.119696 -1.48423,-0.359087 -0.64636,-0.239392 -1.12515,-0.622419 -0.45484,-0.406966 -0.71817,-0.981507 -0.23939,-0.57454 -0.23939,-1.388472 0,-0.789993 0.28727,-1.388473 0.31121,-0.598479 0.83787,-1.005445 0.5506,-0.406967 1.26878,-0.59848 0.74211,-0.215453 1.57998,-0.215453 1.53211,0 2.48968,0.550602 0.95756,0.526662 1.57998,1.244837 l -0.59848,0.550601 q -0.26333,-0.311209 -0.59848,-0.598479 -0.31121,-0.287271 -0.71817,-0.502723 -0.40697,-0.239392 -0.95757,-0.359088 -0.52666,-0.143635 -1.2209,-0.143635 -1.43635,0 -2.29816,0.622419 -0.83787,0.622418 -0.83787,1.819378 0,1.220898 0.71818,1.795438 0.71817,0.550601 2.17846,0.789993 l 1.02939,0.167575 q 1.69968,0.263331 2.60937,1.053324 0.93362,0.766053 0.93362,2.3221 0,1.627865 -1.1012,2.537554 -1.1012,0.885749 -3.04027,0.885749 z" />
    <path
       id="path44"
       style="font-style:normal;font-variant:normal;font-weight:200;font-stretch:normal;font-size:23.93918228px;line-height:100%;font-family:'IBM Plex Sans ExtraLight';-inkscape-font-specification:'IBM Plex Sans ExtraLight, Ultra-Light';letter-spacing:-0.51124352px;word-spacing:0px;fill:#035c6e;fill-opacity:1;stroke-width:0.61691451px"
       d="m 302.4485,68.843443 h 0.83787 v 1.891195 h 0.0718 q 0.40696,-0.88575 1.36453,-1.532108 0.95757,-0.646358 2.48968,-0.646358 2.39391,0 3.71057,1.627865 1.34059,1.603925 1.34059,4.739958 0,3.136033 -1.34059,4.763897 -1.31666,1.603925 -3.71057,1.603925 -1.53211,0 -2.48968,-0.646358 -0.95757,-0.670297 -1.36453,-1.532107 h -0.0718 v 6.679032 h -0.83787 z m 4.6442,11.68232 q 2.03483,0 3.13603,-1.316655 1.12514,-1.316655 1.12514,-3.590877 v -1.388472 q 0,-2.274223 -1.12514,-3.590878 -1.1012,-1.340594 -3.13603,-1.340594 -0.76605,0 -1.46029,0.239392 -0.69424,0.215452 -1.2209,0.622419 -0.50272,0.383026 -0.81393,0.957567 -0.31121,0.550601 -0.31121,1.220898 v 5.122985 q 0,0.694236 0.31121,1.268777 0.31121,0.550601 0.81393,0.957567 0.52666,0.406966 1.2209,0.622419 0.69424,0.215452 1.46029,0.215452 z" />
    <path
       id="path46"
       style="font-style:normal;font-variant:normal;font-weight:200;font-stretch:normal;font-size:23.93918228px;line-height:100%;font-family:'IBM Plex Sans ExtraLight';-inkscape-font-specification:'IBM Plex Sans ExtraLight, Ultra-Light';letter-spacing:-0.51124352px;word-spacing:0px;fill:#035c6e;fill-opacity:1;stroke-width:0.61691451px"
       d="m 323.42043,81.004547 q -0.9815,0 -1.02938,-1.005446 v -0.885749 h -0.0958 q -0.4309,0.933628 -1.36453,1.556047 -0.93363,0.622418 -2.51362,0.622418 -1.89119,0 -2.92058,-0.909689 -1.02938,-0.909689 -1.02938,-2.561492 0,-0.789993 0.23939,-1.436351 0.23939,-0.646358 0.78999,-1.101202 0.57454,-0.478784 1.46029,-0.718176 0.90969,-0.263331 2.22635,-0.263331 h 3.18391 v -1.627864 q 0,-1.723621 -0.83787,-2.537554 -0.83787,-0.837871 -2.48968,-0.837871 -2.56149,0 -3.543,2.154526 l -0.59848,-0.406966 q 0.50273,-1.125141 1.48423,-1.795438 0.98151,-0.694237 2.68119,-0.694237 2.03483,0 3.08816,1.053324 1.05332,1.029385 1.05332,2.968459 v 7.684477 h 1.86726 v 0.742115 z m -4.93147,-0.454844 q 0.78999,0 1.48423,-0.191514 0.71818,-0.215452 1.24484,-0.598479 0.52666,-0.383027 0.83787,-0.957568 0.31121,-0.57454 0.31121,-1.340594 v -2.489675 h -3.18391 q -2.01089,0 -2.92058,0.694236 -0.90969,0.670298 -0.90969,1.795439 v 0.670297 q 0,1.196959 0.86181,1.819378 0.88575,0.59848 2.27422,0.59848 z" />
    <path
       id="path48"
       style="font-style:normal;font-variant:normal;font-weight:200;font-stretch:normal;font-size:23.93918228px;line-height:100%;font-family:'IBM Plex Sans ExtraLight';-inkscape-font-specification:'IBM Plex Sans ExtraLight, Ultra-Light';letter-spacing:-0.51124352px;word-spacing:0px;fill:#035c6e;fill-opacity:1;stroke-width:0.61691451px"
       d="M 327.46922,81.004547 V 68.843443 h 0.83787 v 2.130587 h 0.0958 q 0.38303,-0.861811 1.24484,-1.48423 0.86181,-0.646357 2.48967,-0.646357 h 0.90969 v 0.789993 h -1.05332 q -0.74212,0 -1.41242,0.191513 -0.67029,0.191513 -1.17302,0.57454 -0.50272,0.383027 -0.81393,0.957568 -0.28727,0.550601 -0.28727,1.292716 v 8.354774 z" />
    <path
       id="path50"
       style="font-style:normal;font-variant:normal;font-weight:200;font-stretch:normal;font-size:23.93918228px;line-height:100%;font-family:'IBM Plex Sans ExtraLight';-inkscape-font-specification:'IBM Plex Sans ExtraLight, Ultra-Light';letter-spacing:-0.51124352px;word-spacing:0px;fill:#035c6e;fill-opacity:1;stroke-width:0.61691451px"
       d="m 339.4232,81.291817 q -2.41786,0 -3.83027,-1.627864 -1.38848,-1.627864 -1.38848,-4.739958 0,-3.088155 1.36454,-4.716019 1.36453,-1.651804 3.75845,-1.651804 1.12514,0 2.03483,0.430906 0.93363,0.430905 1.57998,1.220898 0.6703,0.789993 1.02939,1.915134 0.35909,1.101203 0.35909,2.465736 v 0.383027 h -9.24053 v 0.646358 q 0,1.125142 0.28727,2.034831 0.28727,0.909689 0.83787,1.556046 0.57455,0.646358 1.36454,1.005446 0.81393,0.335149 1.84332,0.335149 2.89664,0 3.99784,-2.776945 l 0.64636,0.359087 q -0.5506,1.436351 -1.72362,2.298162 -1.17302,0.86181 -2.92058,0.86181 z m -0.0958,-11.99353 q -1.00545,0 -1.79544,0.359088 -0.76605,0.335148 -1.31666,0.981506 -0.5506,0.646358 -0.83787,1.556047 -0.28727,0.909689 -0.28727,2.010891 v 0.09576 h 8.33084 v -0.143635 q 0,-1.101202 -0.31121,-1.986952 -0.28727,-0.909689 -0.83787,-1.532108 -0.52666,-0.646358 -1.29272,-0.981506 -0.74211,-0.359088 -1.6518,-0.359088 z" />
    <path
       id="path52"
       style="font-style:normal;font-variant:normal;font-weight:200;font-stretch:normal;font-size:23.93918228px;line-height:100%;font-family:'IBM Plex Sans ExtraLight';-inkscape-font-specification:'IBM Plex Sans ExtraLight, Ultra-Light';letter-spacing:-0.51124352px;word-spacing:0px;fill:#035c6e;fill-opacity:1;stroke-width:0.61691451px"
       d="M 347.58055,81.004547 V 68.843443 h 0.83787 v 1.867256 h 0.0718 q 0.35909,-0.88575 1.24483,-1.508169 0.90969,-0.646358 2.48968,-0.646358 2.01089,0 3.06422,1.196959 1.07726,1.17302 1.07726,3.447243 v 7.804173 h -0.83787 v -7.660538 q 0,-2.106648 -0.90969,-3.064216 -0.88575,-0.981506 -2.58543,-0.981506 -0.69424,0 -1.36454,0.191513 -0.64635,0.191514 -1.14908,0.574541 -0.50272,0.383027 -0.81393,0.957567 -0.28727,0.57454 -0.28727,1.340594 v 8.642045 z" />
    <path
       id="path54"
       style="font-style:normal;font-variant:normal;font-weight:200;font-stretch:normal;font-size:23.93918228px;line-height:100%;font-family:'IBM Plex Sans ExtraLight';-inkscape-font-specification:'IBM Plex Sans ExtraLight, Ultra-Light';letter-spacing:-0.51124352px;word-spacing:0px;fill:#035c6e;fill-opacity:1;stroke-width:0.61691451px"
       d="m 361.99763,81.004547 q -1.02938,0 -1.02938,-1.005446 V 69.585557 h -2.20241 v -0.742114 h 1.57999 q 0.40697,0 0.52666,-0.167575 0.14364,-0.167574 0.14364,-0.57454 V 65.3962 h 0.78999 v 3.447243 h 2.84876 v 0.742114 h -2.84876 v 10.676875 h 2.65725 v 0.742115 z" />
    <path
       id="path56"
       style="font-style:normal;font-variant:normal;font-weight:200;font-stretch:normal;font-size:23.93918228px;line-height:100%;font-family:'IBM Plex Sans ExtraLight';-inkscape-font-specification:'IBM Plex Sans ExtraLight, Ultra-Light';letter-spacing:-0.51124352px;word-spacing:0px;fill:#035c6e;fill-opacity:1;stroke-width:0.61691451px"
       d="m 376.02428,81.291817 q -1.50817,0 -2.63331,-0.550601 -1.1012,-0.550601 -1.93907,-1.723621 l 0.64635,-0.478784 q 0.81394,1.077264 1.72362,1.556047 0.93363,0.454845 2.22635,0.454845 1.62786,0 2.46573,-0.670297 0.83788,-0.670298 0.83788,-1.939074 0,-1.220899 -0.71818,-1.819378 -0.69424,-0.59848 -2.15453,-0.837871 l -1.02938,-0.167575 q -0.81393,-0.119696 -1.48423,-0.359087 -0.64636,-0.239392 -1.12514,-0.622419 -0.45485,-0.406966 -0.71818,-0.981507 -0.23939,-0.57454 -0.23939,-1.388472 0,-0.789993 0.28727,-1.388473 0.31121,-0.598479 0.83787,-1.005445 0.5506,-0.406967 1.26878,-0.59848 0.74211,-0.215453 1.57998,-0.215453 1.53211,0 2.48968,0.550602 0.95757,0.526662 1.57999,1.244837 l -0.59848,0.550601 q -0.26333,-0.311209 -0.59848,-0.598479 -0.31121,-0.287271 -0.71818,-0.502723 -0.40697,-0.239392 -0.95757,-0.359088 -0.52666,-0.143635 -1.22089,-0.143635 -1.43636,0 -2.29817,0.622419 -0.83787,0.622418 -0.83787,1.819378 0,1.220898 0.71818,1.795438 0.71817,0.550601 2.17846,0.789993 l 1.02939,0.167575 q 1.69968,0.263331 2.60937,1.053324 0.93363,0.766053 0.93363,2.3221 0,1.627865 -1.1012,2.537554 -1.10121,0.885749 -3.04028,0.885749 z" />
    <path
       id="path58"
       style="font-style:normal;font-variant:normal;font-weight:200;font-stretch:normal;font-size:23.93918228px;line-height:100%;font-family:'IBM Plex Sans ExtraLight';-inkscape-font-specification:'IBM Plex Sans ExtraLight, Ultra-Light';letter-spacing:-0.51124352px;word-spacing:0px;fill:#035c6e;fill-opacity:1;stroke-width:0.61691451px"
       d="m 387.5724,81.291817 q -2.39392,0 -3.78239,-1.627864 -1.36453,-1.627864 -1.36453,-4.739958 0,-3.136033 1.36453,-4.739958 1.38847,-1.627865 3.78239,-1.627865 2.39392,0 3.75845,1.627865 1.38848,1.603925 1.38848,4.739958 0,3.112094 -1.38848,4.739958 -1.36453,1.627864 -3.75845,1.627864 z m 0,-0.742114 q 2.03483,0 3.13603,-1.316655 1.10121,-1.340595 1.10121,-3.662695 v -1.292716 q 0,-2.34604 -1.10121,-3.662695 -1.1012,-1.316655 -3.13603,-1.316655 -2.03483,0 -3.13603,1.316655 -1.1012,1.316655 -1.1012,3.662695 v 1.292716 q 0,2.3221 1.1012,3.662695 1.1012,1.316655 3.13603,1.316655 z" />
    <path
       id="path60"
       style="font-style:normal;font-variant:normal;font-weight:200;font-stretch:normal;font-size:23.93918228px;line-height:100%;font-family:'IBM Plex Sans ExtraLight';-inkscape-font-specification:'IBM Plex Sans ExtraLight, Ultra-Light';letter-spacing:-0.51124352px;word-spacing:0px;fill:#035c6e;fill-opacity:1;stroke-width:0.61691451px"
       d="m 400.10614,81.291817 q -2.4418,0 -3.80633,-1.627864 -1.3406,-1.627864 -1.3406,-4.739958 0,-3.136033 1.3406,-4.739958 1.36453,-1.627865 3.80633,-1.627865 1.53211,0 2.53755,0.694237 1.00545,0.670297 1.55605,1.819377 l -0.69424,0.359088 q -0.52666,-1.029385 -1.34059,-1.579986 -0.78999,-0.550601 -2.05877,-0.550601 -2.05877,0 -3.15997,1.340594 -1.07727,1.340594 -1.07727,3.590878 v 1.388472 q 0,2.250283 1.07727,3.590877 1.1012,1.340595 3.15997,1.340595 1.36453,0 2.22634,-0.550602 0.88575,-0.57454 1.43635,-1.579986 l 0.62242,0.430906 q -0.59848,1.101202 -1.62786,1.771499 -1.02939,0.670297 -2.65725,0.670297 z" />
    <path
       id="path62"
       style="font-style:normal;font-variant:normal;font-weight:200;font-stretch:normal;font-size:23.93918228px;line-height:100%;font-family:'IBM Plex Sans ExtraLight';-inkscape-font-specification:'IBM Plex Sans ExtraLight, Ultra-Light';letter-spacing:-0.51124352px;word-spacing:0px;fill:#035c6e;fill-opacity:1;stroke-width:0.61691451px"
       d="m 407.64408,65.084991 q -0.38302,0 -0.5506,-0.167574 -0.16757,-0.191514 -0.16757,-0.454845 V 64.24712 q 0,-0.263331 0.14363,-0.430906 0.16758,-0.191513 0.5506,-0.191513 0.38303,0 0.55061,0.191513 0.16757,0.167575 0.16757,0.430906 v 0.215452 q 0,0.263331 -0.16757,0.454845 -0.14364,0.167574 -0.52667,0.167574 z m -0.4309,3.758452 h 0.83787 v 12.161104 h -0.83787 z" />
    <path
       id="path64"
       style="font-style:normal;font-variant:normal;font-weight:200;font-stretch:normal;font-size:23.93918228px;line-height:100%;font-family:'IBM Plex Sans ExtraLight';-inkscape-font-specification:'IBM Plex Sans ExtraLight, Ultra-Light';letter-spacing:-0.51124352px;word-spacing:0px;fill:#035c6e;fill-opacity:1;stroke-width:0.61691451px"
       d="m 416.50202,81.291817 q -2.41786,0 -3.83027,-1.627864 -1.38847,-1.627864 -1.38847,-4.739958 0,-3.088155 1.36453,-4.716019 1.36454,-1.651804 3.75846,-1.651804 1.12514,0 2.03483,0.430906 0.93362,0.430905 1.57998,1.220898 0.6703,0.789993 1.02939,1.915134 0.35908,1.101203 0.35908,2.465736 v 0.383027 h -9.24052 v 0.646358 q 0,1.125142 0.28727,2.034831 0.28727,0.909689 0.83787,1.556046 0.57454,0.646358 1.36454,1.005446 0.81393,0.335149 1.84331,0.335149 2.89664,0 3.99785,-2.776945 l 0.64635,0.359087 q -0.5506,1.436351 -1.72362,2.298162 -1.17302,0.86181 -2.92058,0.86181 z m -0.0958,-11.99353 q -1.00545,0 -1.79544,0.359088 -0.76606,0.335148 -1.31666,0.981506 -0.5506,0.646358 -0.83787,1.556047 -0.28727,0.909689 -0.28727,2.010891 v 0.09576 h 8.33084 v -0.143635 q 0,-1.101202 -0.31121,-1.986952 -0.28727,-0.909689 -0.83788,-1.532108 -0.52666,-0.646358 -1.29271,-0.981506 -0.74212,-0.359088 -1.6518,-0.359088 z" />
    <path
       id="path66"
       style="font-style:normal;font-variant:normal;font-weight:200;font-stretch:normal;font-size:23.93918228px;line-height:100%;font-family:'IBM Plex Sans ExtraLight';-inkscape-font-specification:'IBM Plex Sans ExtraLight, Ultra-Light';letter-spacing:-0.51124352px;word-spacing:0px;fill:#035c6e;fill-opacity:1;stroke-width:0.61691451px"
       d="m 426.21545,81.004547 q -1.02938,0 -1.02938,-1.005446 V 69.585557 h -2.20241 v -0.742114 h 1.57999 q 0.40697,0 0.52666,-0.167575 0.14364,-0.167574 0.14364,-0.57454 V 65.3962 h 0.78999 v 3.447243 h 2.84876 v 0.742114 h -2.84876 v 10.676875 h 2.65725 v 0.742115 z" />
    <path
       id="path68"
       style="font-style:normal;font-variant:normal;font-weight:200;font-stretch:normal;font-size:23.93918228px;line-height:100%;font-family:'IBM Plex Sans ExtraLight';-inkscape-font-specification:'IBM Plex Sans ExtraLight, Ultra-Light';letter-spacing:-0.51124352px;word-spacing:0px;fill:#035c6e;fill-opacity:1;stroke-width:0.61691451px"
       d="m 439.25676,68.843443 h 0.83787 l -5.93692,16.158948 q -0.19151,0.430905 -0.45484,0.598479 -0.26333,0.191514 -0.78999,0.191514 h -1.7715 v -0.742115 h 2.15452 l 1.43635,-3.80633 -4.57238,-12.400496 h 0.88575 l 4.06966,11.251415 h 0.0718 z" />
  </g>
</svg>
