<?xml version="1.0" encoding="UTF-8" standalone="no"?>
<svg
   xmlns:dc="http://purl.org/dc/elements/1.1/"
   xmlns:cc="http://creativecommons.org/ns#"
   xmlns:rdf="http://www.w3.org/1999/02/22-rdf-syntax-ns#"
   xmlns:svg="http://www.w3.org/2000/svg"
   xmlns="http://www.w3.org/2000/svg"
   height="71.656334"
   width="438.23517"
   version="1.1"
   viewBox="0 0 438.23517 71.656336"
   data-name="Layer 1"
   id="Layer_1">
  <metadata
     id="metadata133">
    <rdf:RDF>
      <cc:Work
         rdf:about="">
        <dc:format>image/svg+xml</dc:format>
        <dc:type
           rdf:resource="http://purl.org/dc/dcmitype/StillImage" />
        <dc:title>Open-state-foundation-logo-tagline-nl</dc:title>
      </cc:Work>
    </rdf:RDF>
  </metadata>
  <defs
     id="defs4">
    <style
       id="style2">.cls-1,.cls-3{fill:#035c6e;}.cls-2{fill:#8dd5e5;}.cls-3{font-size:18.4px;font-family:IBMPlexSans-Light, IBM Plex Sans Light;font-weight:300;}.cls-4{letter-spacing:0.01em;}.cls-5{letter-spacing:0.02em;}.cls-6{letter-spacing:0.01em;}.cls-7{letter-spacing:0.02em;}.cls-8{letter-spacing:0.02em;}.cls-9{letter-spacing:0em;}.cls-10{letter-spacing:0em;}.cls-11{letter-spacing:0.01em;}.cls-12{letter-spacing:0.02em;}.cls-13{letter-spacing:0.02em;}.cls-14{letter-spacing:0em;}.cls-15{letter-spacing:0.01em;}.cls-16{letter-spacing:0.02em;}.cls-17{letter-spacing:0.02em;}.cls-18{letter-spacing:0em;}.cls-19{letter-spacing:0.01em;}.cls-20{letter-spacing:0.01em;}.cls-21{letter-spacing:0em;}.cls-22{letter-spacing:0.02em;}.cls-23{letter-spacing:0.01em;}.cls-24{letter-spacing:0em;}.cls-25{letter-spacing:0em;}.cls-26{letter-spacing:0.01em;}.cls-27{letter-spacing:0em;}</style>
  </defs>
  <title
     id="title6">Open-state-foundation-logo-tagline-nl</title>
  <path
     class="cls-1"
     d="m 103.51743,22.622705 -37.240003,37.26 a 26.39,26.39 0 0 0 37.240003,-37.26"
     id="path8"
     style="fill:#035c6e" />
  <path
     class="cls-2"
     d="m 110.29743,11.692705 -37.260003,37.26 a 26.39,26.39 0 0 1 37.260003,-37.26"
     id="path10"
     style="fill:#8dd5e5" />
  <path
     class="cls-1"
     d="m 50.797427,22.612705 -37.28,37.26 a 26.39,26.39 0 0 0 37.28,-37.26"
     id="path12"
     style="fill:#035c6e" />
  <path
     class="cls-2"
     d="m 48.727427,20.532705 -37.21,37.26 a 26.39,26.39 0 0 1 37.21,-37.26"
     id="path14"
     style="fill:#8dd5e5" />
  <path
     class="cls-1"
     d="m 132.30743,61.902705 a 5.15,5.15 0 0 1 -4.2,-1.83 8.29,8.29 0 0 1 -1.52,-5.39 8.29,8.29 0 0 1 1.52,-5.39 5.72,5.72 0 0 1 8.38,0 8.29,8.29 0 0 1 1.51,5.38 8.29,8.29 0 0 1 -1.48,5.4 5.16,5.16 0 0 1 -4.21,1.83 z m 0,-1.06 a 4.6,4.6 0 0 0 1.81,-0.35 3.83,3.83 0 0 0 1.39,-1 5.07,5.07 0 0 0 0.9,-1.66 7.32,7.32 0 0 0 0.32,-2.23 v -1.8 a 7.32,7.32 0 0 0 -0.32,-2.23 5,5 0 0 0 -0.9,-1.65 3.91,3.91 0 0 0 -1.39,-1 4.43,4.43 0 0 0 -1.81,-0.36 4.48,4.48 0 0 0 -1.82,0.36 3.86,3.86 0 0 0 -1.4,1 4.68,4.68 0 0 0 -0.9,1.65 7.32,7.32 0 0 0 -0.32,2.23 v 1.76 a 7.32,7.32 0 0 0 0.32,2.23 4.73,4.73 0 0 0 0.9,1.66 3.78,3.78 0 0 0 1.4,1 4.65,4.65 0 0 0 1.82,0.39 z"
     id="path16"
     style="fill:#035c6e" />
  <path
     class="cls-1"
     d="m 141.33743,51.422705 h 1.18 v 1.65 0 a 3.1,3.1 0 0 1 1.16,-1.37 3.5,3.5 0 0 1 2,-0.51 3.76,3.76 0 0 1 3.1,1.4 6.24,6.24 0 0 1 1.12,4 6.26,6.26 0 0 1 -1.12,4 3.76,3.76 0 0 1 -3.1,1.4 3.21,3.21 0 0 1 -3.16,-1.92 v 0 5.63 h -1.14 z m 4.06,9.46 a 3,3 0 0 0 2.4,-1 3.9,3.9 0 0 0 0.86,-2.64 v -1.42 a 3.87,3.87 0 0 0 -0.86,-2.64 3,3 0 0 0 -2.4,-1 3.77,3.77 0 0 0 -1.13,0.17 3.39,3.39 0 0 0 -0.93,0.47 2.16,2.16 0 0 0 -0.63,0.72 1.93,1.93 0 0 0 -0.23,0.92 v 4.06 a 2.07,2.07 0 0 0 0.23,1 2.33,2.33 0 0 0 0.63,0.74 3.13,3.13 0 0 0 0.93,0.47 4.11,4.11 0 0 0 1.13,0.15 z"
     id="path18"
     style="fill:#035c6e" />
  <path
     class="cls-1"
     d="m 156.82743,61.902705 a 4.63,4.63 0 0 1 -1.85,-0.36 4,4 0 0 1 -1.42,-1 4.87,4.87 0 0 1 -0.9,-1.69 7.86,7.86 0 0 1 -0.31,-2.26 7.74,7.74 0 0 1 0.31,-2.25 4.83,4.83 0 0 1 0.9,-1.68 4.16,4.16 0 0 1 1.41,-1.06 4.54,4.54 0 0 1 1.84,-0.37 4.29,4.29 0 0 1 1.78,0.37 4,4 0 0 1 1.36,1 4.87,4.87 0 0 1 0.87,1.59 6.69,6.69 0 0 1 0.31,2.06 v 0.54 h -7.61 v 0.5 a 4.62,4.62 0 0 0 0.23,1.47 3.5,3.5 0 0 0 0.66,1.15 3.06,3.06 0 0 0 1.05,0.75 3.46,3.46 0 0 0 1.4,0.27 3.11,3.11 0 0 0 3.1,-2.06 l 0.84,0.55 a 3.93,3.93 0 0 1 -1.51,1.81 4.46,4.46 0 0 1 -2.46,0.67 z m 0,-9.74 a 3.24,3.24 0 0 0 -1.34,0.27 3.07,3.07 0 0 0 -1,0.75 3.5,3.5 0 0 0 -0.66,1.15 4.62,4.62 0 0 0 -0.23,1.47 v 0.1 h 6.34 v -0.16 a 4.62,4.62 0 0 0 -0.22,-1.47 3.25,3.25 0 0 0 -0.63,-1.13 3.08,3.08 0 0 0 -1,-0.72 3,3 0 0 0 -1.28,-0.26 z"
     id="path20"
     style="fill:#035c6e" />
  <path
     class="cls-1"
     d="m 164.12743,61.662705 v -10.24 h 1.14 v 1.65 h 0.05 a 3.52,3.52 0 0 1 5.57,-0.85 4.17,4.17 0 0 1 0.91,2.89 v 6.58 h -1.14 v -6.41 a 3.42,3.42 0 0 0 -0.67,-2.32 2.48,2.48 0 0 0 -1.95,-0.76 4,4 0 0 0 -1,0.14 3.18,3.18 0 0 0 -0.89,0.42 2.23,2.23 0 0 0 -0.62,0.71 2.12,2.12 0 0 0 -0.22,1 v 7.2 z"
     id="path22"
     style="fill:#035c6e" />
  <path
     class="cls-1"
     d="m 187.51743,60.072705 h -0.06 a 3.32,3.32 0 0 1 -1.17,1.37 3.45,3.45 0 0 1 -2,0.51 3.76,3.76 0 0 1 -3.1,-1.4 6.26,6.26 0 0 1 -1.12,-4 6.24,6.24 0 0 1 1.12,-4 3.76,3.76 0 0 1 3.1,-1.4 3.5,3.5 0 0 1 2,0.51 3.1,3.1 0 0 1 1.14,1.41 h 0.09 v -6.2 h 1.14 v 14.79 h -1.14 z m -2.92,0.86 a 4.11,4.11 0 0 0 1.13,-0.16 3.13,3.13 0 0 0 0.93,-0.47 2.33,2.33 0 0 0 0.63,-0.74 2.07,2.07 0 0 0 0.23,-1 v -4.08 a 1.93,1.93 0 0 0 -0.23,-0.92 2.16,2.16 0 0 0 -0.63,-0.72 3.39,3.39 0 0 0 -0.93,-0.47 3.77,3.77 0 0 0 -1.13,-0.17 3,3 0 0 0 -2.4,1 3.87,3.87 0 0 0 -0.86,2.64 v 1.44 a 3.9,3.9 0 0 0 0.86,2.64 3,3 0 0 0 2.37,0.96 z"
     id="path24"
     style="fill:#035c6e" />
  <path
     class="cls-1"
     d="m 199.45743,61.662705 a 1.24,1.24 0 0 1 -1,-0.34 1.55,1.55 0 0 1 -0.34,-0.92 v -0.33 h -0.1 a 2.87,2.87 0 0 1 -1.12,1.36 3.63,3.63 0 0 1 -2,0.5 3.56,3.56 0 0 1 -2.38,-0.86 2.82,2.82 0 0 1 -0.88,-2.23 2.67,2.67 0 0 1 1,-2.17 5,5 0 0 1 3.18,-0.8 h 2.36 v -1.2 c 0,-1.69 -0.87,-2.54 -2.62,-2.54 a 2.88,2.88 0 0 0 -2.79,1.66 l -0.72,-0.59 a 3.55,3.55 0 0 1 1.28,-1.47 4,4 0 0 1 2.27,-0.58 3.89,3.89 0 0 1 2.76,0.9 3.32,3.32 0 0 1 1,2.53 v 6.07 h 1.38 v 1 z m -4.34,-0.74 a 4.28,4.28 0 0 0 1.16,-0.16 3.11,3.11 0 0 0 1,-0.46 1.94,1.94 0 0 0 0.64,-0.7 1.89,1.89 0 0 0 0.23,-0.93 v -1.91 h -2.4 a 3.86,3.86 0 0 0 -2.22,0.49 1.58,1.58 0 0 0 -0.69,1.36 v 0.46 a 1.57,1.57 0 0 0 0.63,1.36 2.85,2.85 0 0 0 1.65,0.49 z"
     id="path26"
     style="fill:#035c6e" />
  <path
     class="cls-1"
     d="m 204.67743,61.662705 a 1.24,1.24 0 0 1 -0.94,-0.34 1.28,1.28 0 0 1 -0.32,-0.93 v -8 h -1.78 v -1 h 1.16 a 0.72,0.72 0 0 0 0.57,-0.17 0.92,0.92 0 0 0 0.15,-0.61 v -2.04 h 1 v 2.85 h 2.31 v 1 h -2.31 v 8.28 h 2.16 v 1 z"
     id="path28"
     style="fill:#035c6e" />
  <path
     class="cls-1"
     d="m 216.80743,61.662705 a 1.24,1.24 0 0 1 -1,-0.34 1.55,1.55 0 0 1 -0.34,-0.92 v -0.33 h -0.1 a 2.87,2.87 0 0 1 -1.12,1.36 4.25,4.25 0 0 1 -4.48,-0.3 2.85,2.85 0 0 1 -0.88,-2.23 2.7,2.7 0 0 1 1,-2.17 5.06,5.06 0 0 1 3.19,-0.8 h 2.36 v -1.2 c 0,-1.69 -0.87,-2.54 -2.62,-2.54 a 3.17,3.17 0 0 0 -1.7,0.43 3.22,3.22 0 0 0 -1.1,1.23 l -0.72,-0.59 a 3.51,3.51 0 0 1 1.29,-1.47 4,4 0 0 1 2.27,-0.58 3.89,3.89 0 0 1 2.76,0.9 3.32,3.32 0 0 1 1,2.53 v 6.07 h 1.38 v 1 z m -4.29,-0.74 a 4.33,4.33 0 0 0 1.16,-0.16 3.11,3.11 0 0 0 0.95,-0.46 2,2 0 0 0 0.64,-0.7 1.89,1.89 0 0 0 0.23,-0.93 v -1.91 h -2.4 a 3.9,3.9 0 0 0 -2.23,0.49 1.58,1.58 0 0 0 -0.69,1.36 v 0.46 a 1.58,1.58 0 0 0 0.64,1.36 2.83,2.83 0 0 0 1.7,0.49 z"
     id="path30"
     style="fill:#035c6e" />
  <path
     class="cls-1"
     d="m 226.27743,52.402705 h -1.76 v -1 h 1.76 v -2.83 a 1.84,1.84 0 0 1 0.39,-1.24 1.48,1.48 0 0 1 1.21,-0.46 h 1.8 v 1 h -2.26 v 3.57 h 2.26 v 1 h -2.26 v 9.26 h -1.14 z"
     id="path32"
     style="fill:#035c6e" />
  <path
     class="cls-1"
     d="m 235.64743,61.902705 a 4.46,4.46 0 0 1 -1.83,-0.36 3.72,3.72 0 0 1 -1.4,-1 4.87,4.87 0 0 1 -0.9,-1.69 7.22,7.22 0 0 1 -0.32,-2.26 7.11,7.11 0 0 1 0.32,-2.25 4.83,4.83 0 0 1 0.9,-1.68 3.86,3.86 0 0 1 1.4,-1.06 4.46,4.46 0 0 1 1.83,-0.37 4.51,4.51 0 0 1 1.84,0.37 3.86,3.86 0 0 1 1.4,1.06 4.83,4.83 0 0 1 0.9,1.68 7.41,7.41 0 0 1 0.32,2.25 7.52,7.52 0 0 1 -0.32,2.26 4.87,4.87 0 0 1 -0.9,1.69 3.72,3.72 0 0 1 -1.4,1 4.51,4.51 0 0 1 -1.84,0.36 z m 0,-1 a 3.09,3.09 0 0 0 2.37,-0.94 3.94,3.94 0 0 0 0.87,-2.76 v -1.3 a 3.93,3.93 0 0 0 -0.87,-2.75 3.43,3.43 0 0 0 -4.73,0 3.94,3.94 0 0 0 -0.87,2.76 v 1.28 a 4,4 0 0 0 0.87,2.75 3.06,3.06 0 0 0 2.36,0.94 z"
     id="path34"
     style="fill:#035c6e" />
  <path
     class="cls-1"
     d="m 243.14743,61.662705 v -10.24 h 1.14 v 1.84 h 0.08 a 3.22,3.22 0 0 1 1,-1.28 3.28,3.28 0 0 1 2,-0.56 h 0.68 v 1.12 h -0.9 a 3.64,3.64 0 0 0 -2.1,0.56 1.78,1.78 0 0 0 -0.82,1.56 v 7 z"
     id="path36"
     style="fill:#035c6e" />
  <path
     class="cls-1"
     d="m 262.41743,60.072705 h -0.07 a 3.23,3.23 0 0 1 -1.16,1.37 3.49,3.49 0 0 1 -1.95,0.51 3.76,3.76 0 0 1 -3.1,-1.4 6.2,6.2 0 0 1 -1.12,-4 6.18,6.18 0 0 1 1.12,-4 3.76,3.76 0 0 1 3.1,-1.4 3.53,3.53 0 0 1 2,0.51 3.07,3.07 0 0 1 1.11,1.41 h 0.07 v -6.2 h 1.1 v 14.79 h -1.1 z m -2.92,0.86 a 4.17,4.17 0 0 0 1.13,-0.16 3.13,3.13 0 0 0 0.93,-0.47 2.61,2.61 0 0 0 0.63,-0.74 2.07,2.07 0 0 0 0.23,-1 v -4.08 a 1.93,1.93 0 0 0 -0.23,-0.92 2.41,2.41 0 0 0 -0.63,-0.72 3.39,3.39 0 0 0 -0.93,-0.47 3.81,3.81 0 0 0 -1.13,-0.17 3,3 0 0 0 -2.4,1 3.87,3.87 0 0 0 -0.86,2.64 v 1.44 a 3.9,3.9 0 0 0 0.86,2.64 3,3 0 0 0 2.42,0.96 z"
     id="path38"
     style="fill:#035c6e" />
  <path
     class="cls-1"
     d="m 267.80743,48.652705 a 0.79,0.79 0 0 1 -0.59,-0.2 0.73,0.73 0 0 1 -0.19,-0.52 v -0.2 a 0.69,0.69 0 0 1 0.19,-0.52 1,1 0 0 1 1.18,0 0.69,0.69 0 0 1 0.19,0.52 v 0.2 a 0.73,0.73 0 0 1 -0.19,0.52 0.79,0.79 0 0 1 -0.59,0.2 z m -0.56,2.77 h 1.14 v 10.24 h -1.14 z"
     id="path40"
     style="fill:#035c6e" />
  <path
     class="cls-1"
     d="m 280.45743,62.852705 a 2.47,2.47 0 0 1 -1.25,2.3 7.21,7.21 0 0 1 -3.66,0.74 6.31,6.31 0 0 1 -3.38,-0.68 2.13,2.13 0 0 1 -1,-1.87 2,2 0 0 1 0.46,-1.4 2.61,2.61 0 0 1 1.3,-0.76 v -0.11 a 1.4,1.4 0 0 1 -1,-1.4 1.38,1.38 0 0 1 0.5,-1.16 3.19,3.19 0 0 1 1.24,-0.6 v -0.08 a 3.11,3.11 0 0 1 -1.4,-1.2 3.56,3.56 0 0 1 -0.5,-1.92 3.63,3.63 0 0 1 0.26,-1.42 3.08,3.08 0 0 1 0.75,-1.1 3.48,3.48 0 0 1 1.18,-0.71 4.63,4.63 0 0 1 1.53,-0.25 4.1,4.1 0 0 1 2,0.5 v -0.5 a 1.2,1.2 0 0 1 0.22,-0.73 0.86,0.86 0 0 1 0.72,-0.29 h 1.76 v 1 h -2.08 v 1 a 3,3 0 0 1 0.8,1.11 3.51,3.51 0 0 1 0.28,1.43 3.63,3.63 0 0 1 -0.27,1.42 3.18,3.18 0 0 1 -0.76,1.11 3.34,3.34 0 0 1 -1.18,0.72 4.53,4.53 0 0 1 -1.52,0.25 3.12,3.12 0 0 1 -0.54,0 l -0.52,-0.08 a 3.24,3.24 0 0 0 -1.09,0.49 1,1 0 0 0 -0.43,0.83 c 0,0.61 0.54,0.92 1.64,0.92 h 2.37 a 4.19,4.19 0 0 1 2.69,0.69 2.3,2.3 0 0 1 0.88,1.75 z m -1.1,0.08 a 1.38,1.38 0 0 0 -0.53,-1.16 3.05,3.05 0 0 0 -1.89,-0.43 h -3.31 a 2.17,2.17 0 0 0 -1,0.66 1.58,1.58 0 0 0 -0.38,1.09 1.62,1.62 0 0 0 0.66,1.33 3.1,3.1 0 0 0 2,0.53 h 1.28 a 4.72,4.72 0 0 0 2.35,-0.49 1.61,1.61 0 0 0 0.82,-1.53 z m -3.84,-5.69 a 2.69,2.69 0 0 0 1.84,-0.59 2.09,2.09 0 0 0 0.67,-1.67 v -0.64 a 2.09,2.09 0 0 0 -0.67,-1.65 3.2,3.2 0 0 0 -3.7,0 2.12,2.12 0 0 0 -0.66,1.65 v 0.64 a 2.09,2.09 0 0 0 0.67,1.67 2.7,2.7 0 0 0 1.85,0.59 z"
     id="path42"
     style="fill:#035c6e" />
  <path
     class="cls-1"
     d="m 283.41743,48.652705 a 0.79,0.79 0 0 1 -0.59,-0.2 0.73,0.73 0 0 1 -0.19,-0.52 v -0.2 a 0.69,0.69 0 0 1 0.19,-0.52 1,1 0 0 1 1.18,0 0.69,0.69 0 0 1 0.19,0.52 v 0.2 a 0.73,0.73 0 0 1 -0.19,0.52 0.79,0.79 0 0 1 -0.59,0.2 z m -0.56,2.77 h 1.14 v 10.24 h -1.14 z"
     id="path44"
     style="fill:#035c6e" />
  <path
     class="cls-1"
     d="m 289.61743,61.662705 a 1.24,1.24 0 0 1 -0.94,-0.34 1.28,1.28 0 0 1 -0.32,-0.93 v -8 h -1.78 v -1 h 1.16 a 0.72,0.72 0 0 0 0.57,-0.17 0.92,0.92 0 0 0 0.15,-0.61 v -2.04 h 1 v 2.85 h 2.31 v 1 h -2.25 v 8.28 h 2.15 v 1 z"
     id="path46"
     style="fill:#035c6e" />
  <path
     class="cls-1"
     d="m 301.74743,61.662705 a 1.24,1.24 0 0 1 -1,-0.34 1.49,1.49 0 0 1 -0.34,-0.92 v -0.33 h -0.1 a 2.87,2.87 0 0 1 -1.12,1.36 4.25,4.25 0 0 1 -4.48,-0.3 2.85,2.85 0 0 1 -0.88,-2.23 2.7,2.7 0 0 1 1,-2.17 5.06,5.06 0 0 1 3.19,-0.8 h 2.36 v -1.2 c 0,-1.69 -0.87,-2.54 -2.62,-2.54 a 3.17,3.17 0 0 0 -1.7,0.43 3.22,3.22 0 0 0 -1.1,1.23 l -0.72,-0.59 a 3.51,3.51 0 0 1 1.28,-1.5 4,4 0 0 1 2.27,-0.58 3.89,3.89 0 0 1 2.76,0.9 3.32,3.32 0 0 1 1,2.53 v 6.07 h 1.38 v 1 z m -4.34,-0.74 a 4.33,4.33 0 0 0 1.16,-0.16 3.11,3.11 0 0 0 0.95,-0.46 2.14,2.14 0 0 0 0.64,-0.7 1.89,1.89 0 0 0 0.23,-0.93 v -1.91 h -2.4 a 3.9,3.9 0 0 0 -2.23,0.49 1.58,1.58 0 0 0 -0.69,1.36 v 0.46 a 1.55,1.55 0 0 0 0.64,1.36 2.83,2.83 0 0 0 1.7,0.49 z"
     id="path48"
     style="fill:#035c6e" />
  <path
     class="cls-1"
     d="m 306.69743,61.662705 a 1.27,1.27 0 0 1 -0.94,-0.34 1.29,1.29 0 0 1 -0.32,-0.9 v -13.55 h 1.14 v 13.81 h 1.58 v 1 z"
     id="path50"
     style="fill:#035c6e" />
  <path
     class="cls-1"
     d="m 317.99743,61.662705 a 1.24,1.24 0 0 1 -0.94,-0.34 1.28,1.28 0 0 1 -0.32,-0.93 v -8 h -1.78 v -1 h 1.16 a 0.72,0.72 0 0 0 0.57,-0.17 0.92,0.92 0 0 0 0.15,-0.61 v -2.04 h 1 v 2.85 h 2.32 v 1 h -2.32 v 8.28 h 2.16 v 1 z"
     id="path52"
     style="fill:#035c6e" />
  <path
     class="cls-1"
     d="m 322.92743,61.662705 v -10.24 h 1.14 v 1.84 h 0.08 a 3.22,3.22 0 0 1 1,-1.28 3.28,3.28 0 0 1 2,-0.56 h 0.68 v 1.12 h -0.9 a 3.69,3.69 0 0 0 -2.1,0.56 1.78,1.78 0 0 0 -0.82,1.56 v 7 z"
     id="path54"
     style="fill:#035c6e" />
  <path
     class="cls-1"
     d="m 337.51743,61.662705 a 1.24,1.24 0 0 1 -1,-0.34 1.55,1.55 0 0 1 -0.34,-0.92 v -0.33 h -0.1 a 2.81,2.81 0 0 1 -1.12,1.36 3.63,3.63 0 0 1 -2,0.5 3.58,3.58 0 0 1 -2.44,-0.86 2.82,2.82 0 0 1 -0.88,-2.23 2.67,2.67 0 0 1 1,-2.17 5,5 0 0 1 3.18,-0.8 h 2.36 v -1.2 c 0,-1.69 -0.87,-2.54 -2.62,-2.54 a 2.91,2.91 0 0 0 -2.79,1.66 l -0.72,-0.59 a 3.51,3.51 0 0 1 1.29,-1.47 4,4 0 0 1 2.26,-0.58 3.89,3.89 0 0 1 2.76,0.9 3.32,3.32 0 0 1 1,2.53 v 6.07 h 1.38 v 1 z m -4.34,-0.74 a 4.28,4.28 0 0 0 1.16,-0.16 3.11,3.11 0 0 0 0.95,-0.46 1.94,1.94 0 0 0 0.64,-0.7 1.78,1.78 0 0 0 0.23,-0.93 v -1.91 h -2.4 a 3.88,3.88 0 0 0 -2.22,0.49 1.58,1.58 0 0 0 -0.69,1.36 v 0.46 a 1.55,1.55 0 0 0 0.64,1.36 2.8,2.8 0 0 0 1.69,0.49 z"
     id="path56"
     style="fill:#035c6e" />
  <path
     class="cls-1"
     d="m 341.21743,61.662705 v -10.24 h 1.14 v 1.65 h 0.06 a 3.17,3.17 0 0 1 1.1,-1.36 3.78,3.78 0 0 1 4.5,0.48 4.17,4.17 0 0 1 0.91,2.89 v 6.58 h -1.14 v -6.38 a 3.42,3.42 0 0 0 -0.67,-2.32 2.46,2.46 0 0 0 -1.94,-0.76 4,4 0 0 0 -1,0.14 3,3 0 0 0 -0.89,0.42 2.11,2.11 0 0 0 -0.62,0.71 2,2 0 0 0 -0.23,1 v 7.2 z"
     id="path58"
     style="fill:#035c6e" />
  <path
     class="cls-1"
     d="m 355.51743,61.902705 a 4.9,4.9 0 0 1 -2.29,-0.5 5,5 0 0 1 -1.71,-1.46 l 0.84,-0.66 a 4.35,4.35 0 0 0 1.4,1.24 3.86,3.86 0 0 0 1.78,0.4 2.94,2.94 0 0 0 1.82,-0.5 1.75,1.75 0 0 0 0.64,-1.44 1.72,1.72 0 0 0 -0.49,-1.29 3,3 0 0 0 -1.61,-0.63 l -0.84,-0.14 a 7.52,7.52 0 0 1 -1.28,-0.3 2.94,2.94 0 0 1 -1,-0.54 2.38,2.38 0 0 1 -0.64,-0.83 2.84,2.84 0 0 1 -0.23,-1.19 2.78,2.78 0 0 1 0.27,-1.26 2.57,2.57 0 0 1 0.73,-0.9 3.14,3.14 0 0 1 1.1,-0.54 5.11,5.11 0 0 1 1.38,-0.18 4.48,4.48 0 0 1 2.1,0.44 5,5 0 0 1 1.4,1.14 l -0.76,0.7 a 4.64,4.64 0 0 0 -1.07,-0.89 3.33,3.33 0 0 0 -1.73,-0.41 2.72,2.72 0 0 0 -1.71,0.48 1.62,1.62 0 0 0 -0.61,1.36 1.49,1.49 0 0 0 0.55,1.3 3.9,3.9 0 0 0 1.65,0.58 l 0.82,0.12 a 4.34,4.34 0 0 1 2.31,0.93 2.49,2.49 0 0 1 0.75,1.93 2.77,2.77 0 0 1 -1,2.24 4.11,4.11 0 0 1 -2.57,0.8 z"
     id="path60"
     style="fill:#035c6e" />
  <path
     class="cls-1"
     d="m 362.09743,51.422705 h 1.14 v 1.65 h 0.06 a 3.16,3.16 0 0 1 1.16,-1.37 3.5,3.5 0 0 1 2,-0.51 3.76,3.76 0 0 1 3.1,1.4 6.24,6.24 0 0 1 1.12,4 6.26,6.26 0 0 1 -1.12,4 3.76,3.76 0 0 1 -3.1,1.4 3.41,3.41 0 0 1 -1.94,-0.51 3.5,3.5 0 0 1 -1.22,-1.41 h -0.06 v 5.63 h -1.14 z m 4.06,9.46 a 3,3 0 0 0 2.4,-1 3.9,3.9 0 0 0 0.86,-2.64 v -1.42 a 3.87,3.87 0 0 0 -0.86,-2.64 3,3 0 0 0 -2.4,-1 3.77,3.77 0 0 0 -1.13,0.17 3.39,3.39 0 0 0 -0.93,0.47 2.41,2.41 0 0 0 -0.63,0.72 1.93,1.93 0 0 0 -0.23,0.92 v 4.06 a 2.07,2.07 0 0 0 0.23,1 2.61,2.61 0 0 0 0.63,0.74 3.13,3.13 0 0 0 0.93,0.47 4.11,4.11 0 0 0 1.13,0.15 z"
     id="path62"
     style="fill:#035c6e" />
  <path
     class="cls-1"
     d="m 380.86743,61.662705 a 1.24,1.24 0 0 1 -1,-0.34 1.55,1.55 0 0 1 -0.34,-0.92 v -0.33 h -0.01 a 2.87,2.87 0 0 1 -1.12,1.36 4.25,4.25 0 0 1 -4.48,-0.3 2.85,2.85 0 0 1 -0.87,-2.23 2.69,2.69 0 0 1 1,-2.17 5.06,5.06 0 0 1 3.19,-0.8 h 2.28 v -1.2 c 0,-1.69 -0.87,-2.54 -2.62,-2.54 a 2.91,2.91 0 0 0 -2.8,1.66 l -0.72,-0.59 a 3.51,3.51 0 0 1 1.29,-1.47 4,4 0 0 1 2.27,-0.58 3.89,3.89 0 0 1 2.76,0.9 3.32,3.32 0 0 1 1,2.53 v 6.07 h 1.38 v 1 z m -4.35,-0.74 a 4.28,4.28 0 0 0 1.16,-0.16 3.11,3.11 0 0 0 0.95,-0.46 2,2 0 0 0 0.64,-0.7 1.89,1.89 0 0 0 0.23,-0.93 v -1.91 h -2.4 a 3.92,3.92 0 0 0 -2.23,0.49 1.58,1.58 0 0 0 -0.69,1.36 v 0.46 a 1.58,1.58 0 0 0 0.64,1.36 2.85,2.85 0 0 0 1.7,0.49 z"
     id="path64"
     style="fill:#035c6e" />
  <path
     class="cls-1"
     d="m 384.56743,61.662705 v -10.24 h 1.14 v 1.84 h 0.08 a 3,3 0 0 1 3.05,-1.84 h 0.68 v 1.12 h -0.9 a 3.63,3.63 0 0 0 -2.1,0.53 1.78,1.78 0 0 0 -0.82,1.56 v 7 z"
     id="path66"
     style="fill:#035c6e" />
  <path
     class="cls-1"
     d="m 395.51743,61.902705 a 4.59,4.59 0 0 1 -1.85,-0.36 3.87,3.87 0 0 1 -1.42,-1 4.87,4.87 0 0 1 -0.9,-1.69 7.86,7.86 0 0 1 -0.31,-2.26 7.74,7.74 0 0 1 0.31,-2.25 4.83,4.83 0 0 1 0.9,-1.68 4,4 0 0 1 1.41,-1.06 4.54,4.54 0 0 1 1.84,-0.37 4.33,4.33 0 0 1 1.78,0.37 4.08,4.08 0 0 1 1.36,1 4.87,4.87 0 0 1 0.87,1.59 6.69,6.69 0 0 1 0.31,2.06 v 0.54 h -7.58 v 0.5 a 4.62,4.62 0 0 0 0.23,1.47 3.18,3.18 0 0 0 0.66,1.15 3.06,3.06 0 0 0 1.05,0.75 3.46,3.46 0 0 0 1.4,0.27 3.12,3.12 0 0 0 3.1,-2.06 l 0.84,0.55 a 4,4 0 0 1 -1.51,1.81 4.46,4.46 0 0 1 -2.49,0.67 z m 0,-9.74 a 3.24,3.24 0 0 0 -1.34,0.27 3.07,3.07 0 0 0 -1,0.75 3.18,3.18 0 0 0 -0.66,1.15 4.62,4.62 0 0 0 -0.23,1.47 v 0.1 h 6.34 v -0.16 a 4.92,4.92 0 0 0 -0.22,-1.47 3.25,3.25 0 0 0 -0.63,-1.13 3.19,3.19 0 0 0 -1,-0.72 3,3 0 0 0 -1.26,-0.26 z"
     id="path68"
     style="fill:#035c6e" />
  <path
     class="cls-1"
     d="m 402.84743,61.662705 v -10.24 h 1.14 v 1.65 h 0.06 a 3.52,3.52 0 0 1 5.57,-0.85 4.17,4.17 0 0 1 0.9,2.85 v 6.58 h -1.14 v -6.37 a 3.42,3.42 0 0 0 -0.67,-2.32 2.49,2.49 0 0 0 -1.95,-0.76 4,4 0 0 0 -1,0.14 3.18,3.18 0 0 0 -0.89,0.42 2.23,2.23 0 0 0 -0.62,0.71 2.13,2.13 0 0 0 -0.23,1 v 7.2 z"
     id="path70"
     style="fill:#035c6e" />
  <path
     class="cls-1"
     d="m 417.91743,61.902705 a 4,4 0 0 1 -3.26,-1.4 6.09,6.09 0 0 1 -1.15,-4 6.07,6.07 0 0 1 1.15,-4 4,4 0 0 1 3.26,-1.4 3.91,3.91 0 0 1 2.3,0.62 4,4 0 0 1 1.3,1.72 l -1,0.48 a 3.1,3.1 0 0 0 -5.06,-0.72 4,4 0 0 0 -0.81,2.62 v 1.44 a 4,4 0 0 0 0.81,2.62 2.92,2.92 0 0 0 2.38,1 3.29,3.29 0 0 0 1.78,-0.46 3.33,3.33 0 0 0 1.24,-1.35 l 0.84,0.56 a 4,4 0 0 1 -1.43,1.63 4.25,4.25 0 0 1 -2.35,0.64 z"
     id="path72"
     style="fill:#035c6e" />
  <path
     class="cls-1"
     d="m 430.78743,51.422705 h 1.16 l -4.73,13.11 a 1.87,1.87 0 0 1 -0.58,0.88 2,2 0 0 1 -1.12,0.24 h -1.16 v -1 h 1.72 l 1,-2.7 -3.8,-10.55 h 1.2 l 3.14,9 h 0.08 z"
     id="path74"
     style="fill:#035c6e" />
  <path
     class="cls-1"
     d="m 141.76743,27.172705 a 8.6,8.6 0 0 1 -0.65,3.41 7.76,7.76 0 0 1 -1.79,2.65 8,8 0 0 1 -2.72,1.7 10,10 0 0 1 -6.84,0 8,8 0 0 1 -2.71,-1.7 7.76,7.76 0 0 1 -1.79,-2.65 9.3,9.3 0 0 1 0,-6.83 7.42,7.42 0 0 1 1.79,-2.59 7.91,7.91 0 0 1 2.71,-1.64 10.37,10.37 0 0 1 6.84,0 7.86,7.86 0 0 1 2.72,1.64 7.42,7.42 0 0 1 1.79,2.59 8.55,8.55 0 0 1 0.65,3.42 z m -4.07,0 a 5.44,5.44 0 0 0 -0.33,-1.91 4.52,4.52 0 0 0 -0.93,-1.53 4.29,4.29 0 0 0 -1.42,-1 4.6,4.6 0 0 0 -1.83,-0.37 4.38,4.38 0 0 0 -3.25,1.37 4.2,4.2 0 0 0 -0.92,1.53 5.78,5.78 0 0 0 0,3.88 4.64,4.64 0 0 0 0.92,1.54 4.1,4.1 0 0 0 1.41,1 4.69,4.69 0 0 0 3.65,0 4.23,4.23 0 0 0 1.42,-1 4.68,4.68 0 0 0 0.94,-1.54 5.7,5.7 0 0 0 0.34,-1.97 z"
     id="path76"
     style="fill:#035c6e" />
  <path
     class="cls-1"
     d="m 157.08743,24.212705 a 4.82,4.82 0 0 1 -0.51,2.32 4.24,4.24 0 0 1 -1.38,1.54 6,6 0 0 1 -2,0.84 10.1,10.1 0 0 1 -2.36,0.27 h -1.89 v 5.89 h -3.8 v -15.71 h 5.78 a 11,11 0 0 1 2.42,0.26 5.63,5.63 0 0 1 1.95,0.82 4,4 0 0 1 1.32,1.49 5.06,5.06 0 0 1 0.47,2.28 z m -3.8,0 a 1.68,1.68 0 0 0 -0.22,-0.91 1.62,1.62 0 0 0 -0.6,-0.56 2.55,2.55 0 0 0 -0.86,-0.26 6.41,6.41 0 0 0 -1,-0.07 h -1.67 v 3.72 h 1.58 a 5.69,5.69 0 0 0 1,-0.09 2.8,2.8 0 0 0 0.88,-0.32 1.62,1.62 0 0 0 0.61,-0.58 1.78,1.78 0 0 0 0.28,-0.91 z"
     id="path78"
     style="fill:#035c6e" />
  <path
     class="cls-1"
     d="m 159.91743,35.072705 v -15.71 h 10.6 v 3.2 h -6.91 v 3 h 6.54 v 3.05 h -6.54 v 3.27 h 7.31 v 3.19 z"
     id="path80"
     style="fill:#035c6e" />
  <path
     class="cls-1"
     d="m 184.51743,35.072705 -6.34,-10.3 h -0.06 l 0.09,10.3 h -3.69 v -15.71 h 4.33 l 6.32,10.28 h 0.07 l -0.09,-10.28 h 3.69 v 15.71 z"
     id="path82"
     style="fill:#035c6e" />
  <path
     class="cls-1"
     d="m 207.68743,23.452705 a 3.55,3.55 0 0 0 -1.28,-1 3.66,3.66 0 0 0 -1.52,-0.36 5.09,5.09 0 0 0 -0.77,0.06 2,2 0 0 0 -0.7,0.26 1.74,1.74 0 0 0 -0.52,0.49 1.3,1.3 0 0 0 -0.21,0.77 1.22,1.22 0 0 0 0.16,0.66 1.48,1.48 0 0 0 0.49,0.47 4.61,4.61 0 0 0 0.77,0.37 l 1,0.34 1.67,0.59 a 6.35,6.35 0 0 1 1.58,0.86 4.68,4.68 0 0 1 1.16,1.33 3.83,3.83 0 0 1 0.46,2 5.09,5.09 0 0 1 -0.5,2.35 4.64,4.64 0 0 1 -1.34,1.63 5.87,5.87 0 0 1 -1.94,1 8.35,8.35 0 0 1 -2.24,0.31 9.32,9.32 0 0 1 -3.27,-0.59 6.84,6.84 0 0 1 -2.63,-1.68 l 2.49,-2.54 a 4.5,4.5 0 0 0 1.53,1.19 4.1,4.1 0 0 0 1.88,0.48 3.75,3.75 0 0 0 0.82,-0.09 1.92,1.92 0 0 0 0.7,-0.29 1.45,1.45 0 0 0 0.48,-0.53 1.66,1.66 0 0 0 0.18,-0.8 1.27,1.27 0 0 0 -0.23,-0.76 2.33,2.33 0 0 0 -0.63,-0.56 5.42,5.42 0 0 0 -1,-0.47 l -1.39,-0.46 a 12.57,12.57 0 0 1 -1.48,-0.57 5.19,5.19 0 0 1 -1.29,-0.86 3.93,3.93 0 0 1 -0.91,-1.27 4.26,4.26 0 0 1 -0.35,-1.81 4.54,4.54 0 0 1 0.53,-2.25 4.7,4.7 0 0 1 1.41,-1.53 6.07,6.07 0 0 1 1.95,-0.88 8.68,8.68 0 0 1 2.2,-0.28 8.12,8.12 0 0 1 2.73,0.49 6.93,6.93 0 0 1 2.43,1.45 z"
     id="path84"
     style="fill:#035c6e" />
  <path
     class="cls-1"
     d="m 220.51743,22.612705 v 12.46 h -3.8 v -12.46 h -4.45 v -3.25 h 12.7 v 3.25 z"
     id="path86"
     style="fill:#035c6e" />
  <path
     class="cls-1"
     d="m 236.95743,35.072705 -1.23,-3 h -6.09 l -1.12,3 h -4.13 l 6.6,-15.75 h 3.69 l 6.5,15.75 z m -4.23,-11.5 -2,5.4 h 4 z"
     id="path88"
     style="fill:#035c6e" />
  <path
     class="cls-1"
     d="m 248.78743,22.612705 v 12.46 h -3.8 v -12.46 h -4.47 v -3.25 h 12.7 v 3.25 z"
     id="path90"
     style="fill:#035c6e" />
  <path
     class="cls-1"
     d="m 255.78743,35.072705 v -15.71 h 10.59 v 3.2 h -6.92 v 3 h 6.54 v 3.05 h -6.54 v 3.27 h 7.32 v 3.19 z"
     id="path92"
     style="fill:#035c6e" />
  <path
     class="cls-1"
     d="m 276.79743,19.362705 h 10.16 v 2.45 h -7.36 v 4.31 h 6.92 v 2.36 h -6.94 v 6.59 h -2.8 z"
     id="path94"
     style="fill:#035c6e" />
  <path
     class="cls-1"
     d="m 289.42743,27.192705 a 8.64,8.64 0 0 1 0.64,-3.41 7.5,7.5 0 0 1 1.75,-2.59 7.75,7.75 0 0 1 2.7,-1.65 9.47,9.47 0 0 1 3.37,-0.58 9.65,9.65 0 0 1 3.41,0.58 7.94,7.94 0 0 1 2.69,1.65 7.39,7.39 0 0 1 1.76,2.59 9.3,9.3 0 0 1 0,6.78 7.7,7.7 0 0 1 -1.76,2.62 8.1,8.1 0 0 1 -2.69,1.72 9.44,9.44 0 0 1 -3.41,0.61 9.26,9.26 0 0 1 -3.37,-0.61 7.92,7.92 0 0 1 -2.67,-1.72 7.82,7.82 0 0 1 -1.75,-2.62 8.58,8.58 0 0 1 -0.67,-3.37 z m 3,0 a 6.6,6.6 0 0 0 0.39,2.32 5.42,5.42 0 0 0 1.11,1.84 5.07,5.07 0 0 0 1.71,1.21 5.38,5.38 0 0 0 2.19,0.43 5.48,5.48 0 0 0 2.21,-0.43 5.11,5.11 0 0 0 1.72,-1.21 5.42,5.42 0 0 0 1.11,-1.84 6.6,6.6 0 0 0 0.39,-2.32 6.48,6.48 0 0 0 -0.39,-2.27 5.51,5.51 0 0 0 -1.05,-1.85 5.06,5.06 0 0 0 -1.71,-1.23 5.55,5.55 0 0 0 -2.23,-0.44 5.45,5.45 0 0 0 -2.21,0.44 5.12,5.12 0 0 0 -1.7,1.23 5.68,5.68 0 0 0 -1.1,1.82 6.48,6.48 0 0 0 -0.35,2.3 z"
     id="path96"
     style="fill:#035c6e" />
  <path
     class="cls-1"
     d="m 322.43743,29.332705 a 6.53,6.53 0 0 1 -0.49,2.56 5.65,5.65 0 0 1 -1.34,2 5.75,5.75 0 0 1 -2,1.23 7.38,7.38 0 0 1 -5,0 5.84,5.84 0 0 1 -2,-1.23 5.5,5.5 0 0 1 -1.33,-2 6.53,6.53 0 0 1 -0.48,-2.56 v -10 h 2.72 v 9.85 a 5.31,5.31 0 0 0 0.18,1.37 3.41,3.41 0 0 0 0.59,1.21 3,3 0 0 0 1.09,0.87 4.44,4.44 0 0 0 3.36,0 3,3 0 0 0 1.09,-0.87 3.41,3.41 0 0 0 0.59,-1.21 5.31,5.31 0 0 0 0.18,-1.37 v -9.82 h 2.8 z"
     id="path98"
     style="fill:#035c6e" />
  <path
     class="cls-1"
     d="m 326.70743,19.362705 h 3.71 l 7.32,11.79 v 0 -11.79 h 2.81 v 15.71 h -3.56 l -7.47,-12.13 v 0 12.13 h -2.8 z"
     id="path100"
     style="fill:#035c6e" />
  <path
     class="cls-1"
     d="m 344.96743,19.362705 h 5.55 a 12.72,12.72 0 0 1 3.09,0.4 8,8 0 0 1 2.8,1.33 6.9,6.9 0 0 1 2,2.42 8,8 0 0 1 0.78,3.73 7.56,7.56 0 0 1 -0.78,3.55 7.29,7.29 0 0 1 -2,2.45 8.3,8.3 0 0 1 -2.8,1.41 10.77,10.77 0 0 1 -3.09,0.42 h -5.58 z m 5.13,13.3 a 9.47,9.47 0 0 0 2.18,-0.25 5.57,5.57 0 0 0 2,-0.87 4.58,4.58 0 0 0 1.44,-1.66 5.59,5.59 0 0 0 0.55,-2.64 6,6 0 0 0 -0.55,-2.76 4.46,4.46 0 0 0 -1.44,-1.67 5.15,5.15 0 0 0 -2,-0.82 10.69,10.69 0 0 0 -2.18,-0.23 h -2.33 v 10.9 z"
     id="path102"
     style="fill:#035c6e" />
  <path
     class="cls-1"
     d="m 367.04743,19.362705 h 2.47 l 6.74,15.71 h -3.2 l -1.47,-3.6 h -6.83 l -1.42,3.6 h -3.14 z m 3.56,9.71 -2.42,-6.4 -2.47,6.4 z"
     id="path104"
     style="fill:#035c6e" />
  <path
     class="cls-1"
     d="m 380.39743,21.812705 h -4.83 v -2.45 h 12.45 v 2.45 h -4.82 v 13.26 h -2.8 z"
     id="path106"
     style="fill:#035c6e" />
  <path
     class="cls-1"
     d="m 390.68743,19.362705 h 2.83 v 15.71 h -2.8 z"
     id="path108"
     style="fill:#035c6e" />
  <path
     class="cls-1"
     d="m 397.09743,27.192705 a 8.82,8.82 0 0 1 0.63,-3.41 7.39,7.39 0 0 1 1.79,-2.59 7.75,7.75 0 0 1 2.67,-1.65 9.43,9.43 0 0 1 3.37,-0.58 9.59,9.59 0 0 1 3.4,0.58 7.84,7.84 0 0 1 2.69,1.65 7.28,7.28 0 0 1 1.77,2.59 9.44,9.44 0 0 1 0,6.78 7.59,7.59 0 0 1 -1.77,2.62 8,8 0 0 1 -2.69,1.72 9.38,9.38 0 0 1 -3.4,0.61 9.22,9.22 0 0 1 -3.37,-0.61 7.92,7.92 0 0 1 -2.67,-1.72 7.7,7.7 0 0 1 -1.76,-2.62 8.76,8.76 0 0 1 -0.66,-3.37 z m 3,0 a 6.6,6.6 0 0 0 0.39,2.32 5.29,5.29 0 0 0 1.12,1.84 5.07,5.07 0 0 0 1.71,1.21 5.38,5.38 0 0 0 2.19,0.43 5.47,5.47 0 0 0 2.2,-0.43 5,5 0 0 0 1.81,-1.21 5.29,5.29 0 0 0 1.12,-1.84 6.6,6.6 0 0 0 0.39,-2.32 6.48,6.48 0 0 0 -0.39,-2.27 5.68,5.68 0 0 0 -1.12,-1.85 5.2,5.2 0 0 0 -1.72,-1.23 5.5,5.5 0 0 0 -2.22,-0.44 5.42,5.42 0 0 0 -2.21,0.44 5.27,5.27 0 0 0 -1.74,1.23 5.68,5.68 0 0 0 -1.1,1.82 6.48,6.48 0 0 0 -0.39,2.3 z"
     id="path110"
     style="fill:#035c6e" />
  <path
     class="cls-1"
     d="m 417.59743,19.362705 h 3.72 l 7.31,11.79 h 0.05 v -11.79 h 2.84 v 15.71 h -3.6 l -7.47,-12.17 v 0 12.17 h -2.81 z"
     id="path112"
     style="fill:#035c6e" />
</svg>
