<?xml version="1.0" encoding="UTF-8" standalone="no"?>
<!-- Created with Inkscape (http://www.inkscape.org/) -->

<svg
   xmlns:dc="http://purl.org/dc/elements/1.1/"
   xmlns:cc="http://creativecommons.org/ns#"
   xmlns:rdf="http://www.w3.org/1999/02/22-rdf-syntax-ns#"
   xmlns:svg="http://www.w3.org/2000/svg"
   xmlns="http://www.w3.org/2000/svg"
   version="1.1"
   width="100%"
   height="100%"
   viewBox="0 0 475.18 106.78"
   id="Layer_1">
  <title
     id="title9">Open-state-foundation-logo-tagline</title>
  <metadata
     id="metadata133">
    <rdf:RDF>
      <cc:Work
         rdf:about="">
        <dc:format>image/svg+xml</dc:format>
        <dc:type
           rdf:resource="http://purl.org/dc/dcmitype/StillImage" />
        <dc:title>Open-state-foundation-logo-tagline</dc:title>
      </cc:Work>
    </rdf:RDF>
  </metadata>
  <defs
     id="defs3">
    <style
       id="style5" />
    <clipPath
       id="clip-path">
      <rect
         width="432.04001"
         height="61.619999"
         x="19.23"
         y="21.91"
         id="SVGID"
         style="fill:none" />
    </clipPath>
  </defs>
  <g
     clip-path="url(#clip-path)"
     id="g11">
    <path
       d="M 118,39.55 80.76,76.81 A 26.39,26.39 0 0 0 118,39.55"
       id="path13"
       style="fill:#035c6e" />
    <path
       d="M 124.78,28.62 87.52,65.88 a 26.39,26.39 0 0 1 37.26,-37.26"
       id="path15"
       style="fill:#8dd5e5" />
    <path
       d="M 65.28,39.54 28,76.8 A 26.39,26.39 0 0 0 65.28,39.54"
       id="path17"
       style="fill:#035c6e" />
    <path
       d="M 63.21,37.46 26,74.72 A 26.39,26.39 0 0 1 63.21,37.46"
       id="path19"
       style="fill:#8dd5e5" />
    <g
       transform="translate(139.81,78.59)"
       id="text21"
       style="font-size:19.98999977px;font-weight:300;fill:#035c6e;font-family:'IBMPlexSans-Light, IBM Plex Sans Light'">
      <path
         d="m 11.673848,-12.249731 c -0.937042,-1.216826 -2.2026841,-1.825245 -3.7969291,-1.825259 -1.5942609,1.4e-5 -2.8631561,0.608433 -3.8066895,1.825259 -0.9370343,1.21685 -1.4055495,2.8761744 -1.4055468,4.9779782 -2.7e-6,2.0888039 0.4685125,3.7416213 1.4055468,4.9584569 0.9435334,1.2168403 2.2124286,1.82525928 3.8066895,1.8252588 1.594245,4.8e-7 2.8598871,-0.6084185 3.7969291,-1.8252588 0.930511,-1.2168356 1.395773,-2.869653 1.395786,-4.9584569 -1.3e-5,-2.1018038 -0.465275,-3.7611282 -1.395786,-4.9779782 m -3.7969291,-2.586597 c 1.887067,1.5e-5 3.3967271,0.683266 4.5289841,2.049756 1.132233,1.373022 1.698355,3.2112936 1.698369,5.5148192 -1.4e-5,2.2970329 -0.566136,4.128797 -1.698369,5.4952977 -1.132257,1.3730115 -2.6419171,2.05951634 -4.5289841,2.05951662 -1.89359,-2.8e-7 -3.4097571,-0.68325154 -4.5485059,-2.04975582 -1.1322482,-1.3665008 -1.6983707,-3.2015184 -1.6983691,-5.5050585 -1.6e-6,-2.3035256 0.5661209,-4.1417972 1.6983691,-5.5148192 1.1387488,-1.36649 2.6549159,-2.049741 4.5485059,-2.049756"
         id="path3189"
         style="letter-spacing:0.01em" />
      <path
         d="m 17.31248,-2.4792285 0,6.6373046 -0.878467,0 0,-15.0901071 0.878467,0 0,2.4987498 c 0.409948,-0.9500361 0.855688,-1.6007518 1.337222,-1.9521488 0.735304,-0.540083 1.428316,-0.81013 2.079038,-0.810141 1.294917,1.1e-5 2.371851,0.527091 3.230805,1.5812401 0.858935,1.0541687 1.288407,2.4401926 1.288418,4.1580761 -1.1e-5,1.7178943 -0.429483,3.1039183 -1.288418,4.1580761 -0.858954,1.05416039 -1.935888,1.58123994 -3.230805,1.58124022 -0.650722,-2.8e-7 -1.343734,-0.27004721 -2.079038,-0.81014159 C 18.168168,-0.87846591 17.722428,-1.5291814 17.31248,-2.4792285 m 5.856445,0.8296631 c 0.754821,-0.7613355 1.132236,-2.0302307 1.132246,-3.8066894 -10e-6,-1.7764478 -0.377425,-3.045343 -1.132246,-3.8066894 -0.748332,-0.7613278 -1.538951,-1.1419968 -2.37186,-1.1420068 -0.813401,10e-6 -1.597513,0.380679 -2.352339,1.1420068 -0.748327,0.7613464 -1.122488,2.0302416 -1.122485,3.8066894 -3e-6,1.7764587 0.374158,3.0453539 1.122485,3.8066894 0.754826,0.76133876 1.538938,1.14200732 2.352339,1.14200681 0.832909,5.1e-7 1.623528,-0.38066805 2.37186,-1.14200681"
         id="path3191"
         style="letter-spacing:0.02em" />
      <path
         d="m 36.76562,-5.9150097 0,0.566123 -8.296631,0 c -3e-6,1.7569372 0.341623,2.9867895 1.024878,3.6895605 0.754826,0.78086029 1.87731,1.17128958 3.367456,1.1712891 0.390422,4.8e-7 0.907741,-0.0845925 1.551958,-0.2537793 0.650707,-0.16918528 1.294915,-0.4229643 1.932627,-0.7613379 l 0,0.946792 c -0.644219,0.27330106 -1.304695,0.48153002 -1.981431,0.62468749 -0.676753,0.14315734 -1.213593,0.21473605 -1.610522,0.21473633 -1.68536,-2.8e-7 -2.954256,-0.45550112 -3.80669,-1.36650392 -0.924019,-0.969565 -1.386027,-2.3913783 -1.386025,-4.2654443 -2e-6,-1.9456339 0.422963,-3.3967295 1.268896,-4.3532909 0.865449,-0.9955854 2.069273,-1.4933824 3.611475,-1.4933934 1.431567,1.1e-5 2.511755,0.47178 3.240566,1.4153074 0.722285,0.9890974 1.083432,2.277514 1.083443,3.8652539 m -0.907749,-0.1952148 c -1e-5,-1.5356825 -0.34489,-2.6549131 -1.034639,-3.3576953 -0.579146,-0.6246772 -1.366512,-0.9370212 -2.3621,-0.9370312 -1.086701,10e-6 -1.997703,0.325368 -2.733008,0.9760742 -0.676747,0.6051748 -1.083445,1.7113911 -1.220092,3.3186523 l 7.349839,0"
         id="path3193"
         style="letter-spacing:0em" />
      <path
         d="m 47.45208,-6.5982616 0,6.5982616 -0.897988,0 0,-6.5396972 c -10e-6,-1.4185532 -0.22776,-2.4174015 -0.683252,-2.9965478 -0.45551,-0.579127 -1.125747,-0.868696 -2.010713,-0.868706 -1.034644,10e-6 -1.919617,0.312354 -2.654922,0.9370312 -0.74182,0.6312035 -1.112727,1.7276591 -1.112724,3.2893701 l 0,6.1785497 -0.897989,0 0,-10.932031 0.897989,0 0,2.0497557 c 0.318847,-0.6637209 0.738559,-1.1712787 1.259135,-1.5226757 0.76784,-0.527069 1.617024,-0.790609 2.547554,-0.79062 1.080181,1.1e-5 1.942379,0.367665 2.586597,1.102964 0.644199,0.7288111 0.966303,1.8935919 0.966313,3.4943454"
         id="path3195"
         style="letter-spacing:0.02em" />
      <path
         d="m 63.899497,-8.4332812 0,-6.7544338 0.878467,0 0,15.187715 -0.878467,0 0,-2.4792285 c -0.409961,0.9500471 -0.855701,1.60076259 -1.337221,1.95214843 -0.735318,0.54009438 -1.42833,0.81014131 -2.079038,0.81014159 -1.294931,-2.8e-7 -2.371865,-0.52707983 -3.230806,-1.58124022 -0.858948,-1.0541578 -1.28842,-2.4401818 -1.288418,-4.1580761 -2e-6,-1.7178835 0.42947,-3.1039074 1.288418,-4.1580761 0.858941,-1.0541491 1.935875,-1.5812291 3.230806,-1.5812401 0.650708,1.1e-5 1.34372,0.270058 2.079038,0.810141 0.48152,0.351397 0.92726,1.0021127 1.337221,1.9521488 m -5.856445,-0.829663 c -0.754834,0.7613464 -1.132249,2.0302416 -1.132246,3.8066894 -3e-6,1.7764587 0.377412,3.0453539 1.132246,3.8066894 0.748318,0.76133876 1.538938,1.14200732 2.37186,1.14200681 0.813388,5.1e-7 1.5975,-0.38066805 2.352339,-1.14200681 0.748314,-0.7613355 1.122475,-2.0302307 1.122486,-3.8066894 -1.1e-5,-1.7764478 -0.374172,-3.045343 -1.122486,-3.8066894 -0.754839,-0.7613278 -1.538951,-1.1419968 -2.352339,-1.1420068 -0.832922,10e-6 -1.623542,0.380679 -2.37186,1.1420068"
         id="path3197"
         style="letter-spacing:0em" />
      <path
         d="m 71.867308,-6.168789 c -1.444595,6.2e-6 -2.48574,0.2570388 -3.123437,0.7710986 -0.637705,0.5140707 -0.956556,1.2656471 -0.956553,2.2547315 -3e-6,0.963062 0.263537,1.6463133 0.79062,2.0497558 0.527076,0.40344468 1.151763,0.60516648 1.874062,0.605166 1.366498,4.8e-7 2.349078,-0.5791363 2.947744,-1.7374121 0.605158,-1.1582713 0.90774,-2.2482198 0.907749,-3.2698486 l 0,-0.6734912 -2.440185,0 m 3.347935,-0.068325 0,6.2371142 -0.888228,0 0,-2.9672656 c -0.50106,1.4510985 -1.16479,2.37511451 -1.991191,2.77205076 -0.65723,0.31885078 -1.311199,0.47827608 -1.96191,0.47827636 -1.0867,-2.8e-7 -1.94239,-0.28956867 -2.567075,-0.86870604 -0.624689,-0.58564338 -0.937033,-1.44458778 -0.937031,-2.57683588 -2e-6,-1.1322418 0.406696,-2.0367363 1.220093,-2.7134863 0.813391,-0.6832454 2.144104,-1.024871 3.992143,-1.0248779 l 2.225449,0 0,-0.1756934 c -9e-6,-0.969559 -0.276563,-1.7666855 -0.829663,-2.3913818 -0.546609,-0.6246774 -1.451103,-0.9370214 -2.713486,-0.9370314 -0.624692,10e-6 -1.262393,0.117139 -1.913105,0.351387 -0.416462,0.1496745 -0.956556,0.4522572 -1.620284,0.9077489 l 0,-0.9663139 c 0.579135,-0.357883 1.119229,-0.611662 1.620284,-0.761338 0.728797,-0.214725 1.428317,-0.322093 2.098559,-0.322104 1.288411,1.1e-5 2.349077,0.39044 3.182002,1.171289 0.722285,0.6702471 1.083433,1.9326351 1.083443,3.787168"
         id="path3199"
         style="letter-spacing:0em" />
      <path
         d="m 78.941287,-14.035947 0,3.103916 3.699322,0 0,0.761338 -3.699322,0 0,6.5689792 c -3e-6,0.8329194 0.107365,1.4153098 0.322105,1.7471728 0.442483,0.7288032 1.086691,1.09320388 1.932627,1.09320312 l 1.44459,0 0,0.76133788 -1.395786,0 C 80.353337,0 79.595253,-0.2602862 78.97057,-0.78085937 78.34588,-1.301431 78.033536,-2.2417149 78.033538,-3.6017138 l 0,-6.5689792 -1.307939,0 0,-0.761338 1.307939,0 0,-3.103916 0.907749,0"
         id="path3201"
         style="letter-spacing:0.01em" />
      <path
         d="m 89.217306,-6.168789 c -1.444595,6.2e-6 -2.485739,0.2570388 -3.123437,0.7710986 -0.637705,0.5140707 -0.956555,1.2656471 -0.956553,2.2547315 -2e-6,0.963062 0.263537,1.6463133 0.79062,2.0497558 0.527077,0.40344468 1.151763,0.60516648 1.874063,0.605166 1.366497,4.8e-7 2.349078,-0.5791363 2.947744,-1.7374121 0.605157,-1.1582713 0.90774,-2.2482198 0.907749,-3.2698486 l 0,-0.6734912 -2.440186,0 m 3.347935,-0.068325 0,6.2371142 -0.888228,0 0,-2.9672656 c -0.50106,1.4510985 -1.164789,2.37511451 -1.991191,2.77205076 -0.65723,0.31885078 -1.311199,0.47827608 -1.961909,0.47827636 -1.0867,-2.8e-7 -1.942391,-0.28956867 -2.567075,-0.86870604 -0.62469,-0.58564338 -0.937033,-1.44458778 -0.937032,-2.57683588 -1e-6,-1.1322418 0.406696,-2.0367363 1.220093,-2.7134863 0.813392,-0.6832454 2.144105,-1.024871 3.992144,-1.0248779 l 2.225449,0 0,-0.1756934 c -9e-6,-0.969559 -0.276563,-1.7666855 -0.829663,-2.3913818 -0.546609,-0.6246774 -1.451104,-0.9370214 -2.713486,-0.9370314 -0.624693,10e-6 -1.262394,0.117139 -1.913106,0.351387 -0.416461,0.1496745 -0.956555,0.4522572 -1.620283,0.9077489 l 0,-0.9663139 c 0.579135,-0.357883 1.119229,-0.611662 1.620283,-0.761338 0.728798,-0.214725 1.428317,-0.322093 2.09856,-0.322104 1.288411,1.1e-5 2.349077,0.39044 3.182002,1.171289 0.722285,0.6702471 1.083432,1.9326351 1.083442,3.787168"
         id="path3203"
         style="letter-spacing:0.02em" />
      <path
         d="m 105.57917,-15.187715 0,0.761338 -1.2689,0 c -0.66373,1.5e-5 -1.17129,0.172454 -1.52267,0.51732 -0.42948,0.422979 -0.64421,1.093215 -0.64421,2.010712 l 0,0.966314 2.94774,0 0,0.761338 -2.94774,0 0,10.170693 -0.90775,0 0,-10.170693 -1.71789,0 0,-0.761338 1.71789,0 0,-0.761338 c 0,-1.216826 0.27655,-2.101799 0.82966,-2.654922 0.5466,-0.559601 1.30143,-0.839408 2.2645,-0.839424 l 1.24937,0"
         id="path3205"
         style="letter-spacing:0em" />
      <path
         d="m 113.58515,-9.0579686 c -0.64422,-0.8979784 -1.52269,-1.3469724 -2.6354,-1.3469824 -1.11273,10e-6 -1.9912,0.4457505 -2.6354,1.3372216 -0.65072,0.8849821 -0.97608,2.0822986 -0.97608,3.5919531 0,1.5487083 0.3221,2.7655463 0.96631,3.6505175 0.64421,0.89148208 1.52593,1.33722218 2.64517,1.3372217 1.11271,4.8e-7 1.99118,-0.44573962 2.6354,-1.3372217 0.6507,-0.8979855 0.97606,-2.1148235 0.97607,-3.6505175 -1e-5,-1.490133 -0.32537,-2.6841959 -0.97607,-3.5821923 m -2.64517,-2.1376024 c 1.39253,1.1e-5 2.49224,0.520583 3.29914,1.5617186 0.81338,1.0476615 1.22008,2.4369391 1.22009,4.1678368 -1e-5,1.7894731 -0.40671,3.2015257 -1.22009,4.2361621 -0.8069,1.04114601 -1.90661,1.5617184 -3.29914,1.56171873 -1.40555,-3.3e-7 -2.51502,-0.51731914 -3.32841,-1.55195803 -0.80689,-1.0346364 -1.21033,-2.4499426 -1.21033,-4.2459228 0,-1.7504192 0.4067,-3.1429503 1.22009,-4.1775976 0.81339,-1.0346278 1.91961,-1.5519468 3.31865,-1.5519578"
         id="path3207"
         style="letter-spacing:0.01em" />
      <path
         d="m 124.15902,-10.160933 c -0.14316,-0.07157 -0.33838,-0.133386 -0.58564,-0.185454 -0.22125,-0.03903 -0.50106,-0.05855 -0.83943,-0.05856 -1.10622,10e-6 -2.02373,0.4099611 -2.75253,1.2298534 -0.57263,0.663739 -0.85894,1.8024911 -0.85894,3.4162598 l 0,5.7588378 -0.87847,0 0,-10.932031 0.87847,0 0,2.0497557 c 0.29282,-0.585635 0.70277,-1.0801788 1.22985,-1.4836327 0.7288,-0.553098 1.58774,-0.829652 2.57684,-0.829663 0.25377,1.1e-5 0.47501,0.0098 0.66373,0.02928 0.19521,1.1e-5 0.38391,0.02279 0.56612,0.06833 l 0,0.937031"
         id="path3209"
         style="letter-spacing:0.02em" />
      <path
         d="m 138.8295,-8.4332812 0,-6.7544338 0.87846,0 0,15.187715 -0.87846,0 0,-2.4792285 c -0.40996,0.9500471 -0.8557,1.60076259 -1.33722,1.95214843 -0.73532,0.54009438 -1.42833,0.81014131 -2.07904,0.81014159 -1.29493,-2.8e-7 -2.37187,-0.52707983 -3.23081,-1.58124022 -0.85895,-1.0541578 -1.28842,-2.4401818 -1.28842,-4.1580761 0,-1.7178835 0.42947,-3.1039074 1.28842,-4.1580761 0.85894,-1.0541491 1.93588,-1.5812291 3.23081,-1.5812401 0.65071,1.1e-5 1.34372,0.270058 2.07904,0.810141 0.48152,0.351397 0.92726,1.0021127 1.33722,1.9521488 m -5.85645,-0.829663 c -0.75483,0.7613464 -1.13225,2.0302416 -1.13224,3.8066894 -1e-5,1.7764587 0.37741,3.0453539 1.13224,3.8066894 0.74832,0.76133876 1.53894,1.14200732 2.37186,1.14200681 0.81339,5.1e-7 1.5975,-0.38066805 2.35234,-1.14200681 0.74832,-0.7613355 1.12248,-2.0302307 1.12249,-3.8066894 -1e-5,-1.7764478 -0.37417,-3.045343 -1.12249,-3.8066894 -0.75484,-0.7613278 -1.53895,-1.1419968 -2.35234,-1.1420068 -0.83292,10e-6 -1.62354,0.380679 -2.37186,1.1420068"
         id="path3211"
         style="letter-spacing:0em" />
      <path
         d="m 142.30497,-10.932031 0.89799,0 0,10.932031 -0.89799,0 0,-10.932031 m 0,-4.255684 0.89799,0 0,1.229854 -0.89799,0 0,-1.229854"
         id="path3213"
         style="letter-spacing:0em" />
      <path
         d="m 154.40649,-5.5929052 c -1e-5,-1.5161615 -0.3091,-2.690703 -0.92727,-3.5236279 -0.61168,-0.8394139 -1.47388,-1.2591249 -2.5866,-1.2591359 -1.09971,1.1e-5 -1.95866,0.419722 -2.57683,1.2591359 -0.61168,0.8329249 -0.91752,2.0074664 -0.91751,3.5236279 -1e-5,1.5096655 0.30583,2.684207 0.91751,3.5236279 0.61817,0.8329179 1.47712,1.24937579 2.57683,1.24937497 1.11272,8.2e-7 1.97492,-0.41645707 2.5866,-1.24937497 0.61817,-0.8394209 0.92726,-2.0139624 0.92727,-3.5236279 m 0.89799,4.2361621 c -1e-5,2.27099836 -0.43274,3.7578832 -1.29818,4.4606591 -0.86546,0.7027696 -1.96192,1.054156 -3.28937,1.0541601 -0.6312,-4.1e-6 -1.22661,-0.045554 -1.78622,-0.1366504 -0.55962,-0.097611 -1.10296,-0.2440223 -1.63004,-0.4392334 l 0,-1.0248779 c 0.52708,0.2863123 1.04765,0.4977948 1.56172,0.6344483 0.51406,0.136647 1.03788,0.2049721 1.57148,0.2049755 1.08669,-3.4e-6 2.02046,-0.2310074 2.80133,-0.6930126 0.78085,-0.4620107 1.17128,-1.7081309 1.17129,-3.7383643 l 0,-1.7081298 c -0.2668,0.7483255 -0.63446,1.337223 -1.10296,1.76669429 C 152.58773,-0.31885059 151.7841,0.00650715 150.89262,0 c -1.38603,0 -2.46622,-0.48803662 -3.24056,-1.4641113 -0.77436,-0.9825789 -1.16153,-2.3620958 -1.16153,-4.1385547 0,-1.7699405 0.38717,-3.1429502 1.16153,-4.1190331 0.77434,-0.9825709 1.85453,-1.4738609 3.24056,-1.4738719 0.88497,1.1e-5 1.64631,0.279819 2.28402,0.839424 0.49453,0.4359894 0.90448,1.0183798 1.22985,1.7471725 l 0,-2.3230565 0.89799,0 0,9.5752879"
         id="path3215"
         style="letter-spacing:0.01em" />
      <path
         d="m 157.91497,-10.932031 0.89799,0 0,10.932031 -0.89799,0 0,-10.932031 m 0,-4.255684 0.89799,0 0,1.229854 -0.89799,0 0,-1.229854"
         id="path3217"
         style="letter-spacing:0.01em" />
      <path
         d="m 163.87129,-14.035947 0,3.103916 3.69932,0 0,0.761338 -3.69932,0 0,6.5689792 c -10e-6,0.8329194 0.10736,1.4153098 0.3221,1.7471728 0.44249,0.7288032 1.08669,1.09320388 1.93263,1.09320312 l 1.44459,0 0,0.76133788 -1.39579,0 c -0.89148,0 -1.64957,-0.2602862 -2.27425,-0.78085937 -0.62469,-0.52057163 -0.93703,-1.46085553 -0.93703,-2.82085443 l 0,-6.5689792 -1.30794,0 0,-0.761338 1.30794,0 0,-3.103916 0.90775,0"
         id="path3219"
         style="letter-spacing:0.01em" />
      <path
         d="m 174.15731,-6.168789 c -1.4446,6.2e-6 -2.48574,0.2570388 -3.12344,0.7710986 -0.6377,0.5140707 -0.95655,1.2656471 -0.95655,2.2547315 0,0.963062 0.26354,1.6463133 0.79062,2.0497558 0.52708,0.40344468 1.15176,0.60516648 1.87406,0.605166 1.3665,4.8e-7 2.34908,-0.5791363 2.94775,-1.7374121 0.60515,-1.1582713 0.90774,-2.2482198 0.90774,-3.2698486 l 0,-0.6734912 -2.44018,0 m 3.34793,-0.068325 0,6.2371142 -0.88822,0 0,-2.9672656 c -0.50106,1.4510985 -1.16479,2.37511451 -1.9912,2.77205076 -0.65723,0.31885078 -1.31119,0.47827608 -1.9619,0.47827636 -1.0867,-2.8e-7 -1.9424,-0.28956867 -2.56708,-0.86870604 -0.62469,-0.58564338 -0.93703,-1.44458778 -0.93703,-2.57683588 0,-1.1322418 0.40669,-2.0367363 1.22009,-2.7134863 0.81339,-0.6832454 2.14411,-1.024871 3.99215,-1.0248779 l 2.22544,0 0,-0.1756934 c 0,-0.969559 -0.27656,-1.7666855 -0.82966,-2.3913818 -0.54661,-0.6246774 -1.4511,-0.9370214 -2.71348,-0.9370314 -0.6247,10e-6 -1.2624,0.117139 -1.91311,0.351387 -0.41646,0.1496745 -0.95656,0.4522572 -1.62028,0.9077489 l 0,-0.9663139 c 0.57913,-0.357883 1.11923,-0.611662 1.62028,-0.761338 0.7288,-0.214725 1.42832,-0.322093 2.09856,-0.322104 1.28841,1.1e-5 2.34908,0.39044 3.182,1.171289 0.72229,0.6702471 1.08343,1.9326351 1.08344,3.787168"
         id="path3221"
         style="letter-spacing:0.01em" />
      <path
         d="m 180.51449,-15.187715 0.89799,0 0,15.187715 -0.89799,0 0,-15.187715"
         id="path3223"
         style="letter-spacing:0.02em" />
      <path
         d="m 192.25128,-14.035947 0,3.103916 3.69932,0 0,0.761338 -3.69932,0 0,6.5689792 c -1e-5,0.8329194 0.10736,1.4153098 0.3221,1.7471728 0.44248,0.7288032 1.08669,1.09320388 1.93263,1.09320312 l 1.44459,0 0,0.76133788 -1.39579,0 c -0.89148,0 -1.64957,-0.2602862 -2.27425,-0.78085937 -0.62469,-0.52057163 -0.93703,-1.46085553 -0.93703,-2.82085443 l 0,-6.5689792 -1.30794,0 0,-0.761338 1.30794,0 0,-3.103916 0.90775,0"
         id="path3225" />
      <path
         d="m 203.93903,-10.160933 c -0.14317,-0.07157 -0.33838,-0.133386 -0.58565,-0.185454 -0.22125,-0.03903 -0.50105,-0.05855 -0.83942,-0.05856 -1.10622,10e-6 -2.02373,0.4099611 -2.75253,1.2298534 -0.57263,0.663739 -0.85895,1.8024911 -0.85894,3.4162598 l 0,5.7588378 -0.87847,0 0,-10.932031 0.87847,0 0,2.0497557 c 0.29281,-0.585635 0.70277,-1.0801788 1.22985,-1.4836327 0.7288,-0.553098 1.58774,-0.829652 2.57684,-0.829663 0.25377,1.1e-5 0.47501,0.0098 0.66373,0.02928 0.1952,1.1e-5 0.38391,0.02279 0.56612,0.06833 l 0,0.937031"
         id="path3227"
         style="letter-spacing:0.02em" />
      <path
         d="m 209.9273,-6.168789 c -1.4446,6.2e-6 -2.48574,0.2570388 -3.12344,0.7710986 -0.6377,0.5140707 -0.95655,1.2656471 -0.95655,2.2547315 0,0.963062 0.26353,1.6463133 0.79062,2.0497558 0.52707,0.40344468 1.15176,0.60516648 1.87406,0.605166 1.3665,4.8e-7 2.34908,-0.5791363 2.94774,-1.7374121 0.60516,-1.1582713 0.90774,-2.2482198 0.90775,-3.2698486 l 0,-0.6734912 -2.44018,0 m 3.34793,-0.068325 0,6.2371142 -0.88823,0 0,-2.9672656 c -0.50106,1.4510985 -1.16478,2.37511451 -1.99119,2.77205076 -0.65723,0.31885078 -1.3112,0.47827608 -1.96191,0.47827636 -1.0867,-2.8e-7 -1.94239,-0.28956867 -2.56707,-0.86870604 -0.62469,-0.58564338 -0.93703,-1.44458778 -0.93703,-2.57683588 0,-1.1322418 0.40669,-2.0367363 1.22009,-2.7134863 0.81339,-0.6832454 2.14411,-1.024871 3.99214,-1.0248779 l 2.22545,0 0,-0.1756934 c -1e-5,-0.969559 -0.27656,-1.7666855 -0.82966,-2.3913818 -0.54661,-0.6246774 -1.4511,-0.9370214 -2.71349,-0.9370314 -0.62469,10e-6 -1.26239,0.117139 -1.9131,0.351387 -0.41646,0.1496745 -0.95656,0.4522572 -1.62028,0.9077489 l 0,-0.9663139 c 0.57913,-0.357883 1.11922,-0.611662 1.62028,-0.761338 0.7288,-0.214725 1.42832,-0.322093 2.09856,-0.322104 1.28841,1.1e-5 2.34908,0.39044 3.182,1.171289 0.72229,0.6702471 1.08343,1.9326351 1.08344,3.787168"
         id="path3229"
         style="letter-spacing:0.01em" />
      <path
         d="m 224.55208,-6.5982616 0,6.5982616 -0.89799,0 0,-6.5396972 c -1e-5,-1.4185532 -0.22776,-2.4174015 -0.68325,-2.9965478 -0.45551,-0.579127 -1.12575,-0.868696 -2.01071,-0.868706 -1.03465,10e-6 -1.91962,0.312354 -2.65493,0.9370312 -0.74182,0.6312035 -1.11272,1.7276591 -1.11272,3.2893701 l 0,6.1785497 -0.89799,0 0,-10.932031 0.89799,0 0,2.0497557 c 0.31885,-0.6637209 0.73856,-1.1712787 1.25913,-1.5226757 0.76784,-0.527069 1.61703,-0.790609 2.54756,-0.79062 1.08018,1.1e-5 1.94238,0.367665 2.5866,1.102964 0.64419,0.7288111 0.9663,1.8935919 0.96631,3.4943454"
         id="path3231"
         style="letter-spacing:0.01em" />
      <path
         d="m 233.83281,-10.609927 0,0.9858353 c -0.6312,-0.3513767 -1.02489,-0.5465913 -1.18105,-0.5856443 -0.45551,-0.110612 -1.02163,-0.175683 -1.69837,-0.195215 -1.02814,10e-6 -1.83502,0.204986 -2.42067,0.6149267 -0.44899,0.3383818 -0.67349,0.9175186 -0.67349,1.7374121 0,0.5531162 0.21148,0.985842 0.63445,1.2981787 0.44899,0.3383788 1.08995,0.598665 1.92287,0.7808593 l 0.61492,0.1366504 c 1.03464,0.2277563 1.81875,0.5498605 2.35234,0.9663135 0.61818,0.4750272 0.94353,1.0932069 0.97608,1.854541 -1e-5,1.0346406 -0.30585,1.8447814 -0.91751,2.43042478 -0.65073,0.57913737 -1.69838,0.86870576 -3.14296,0.86870604 -0.80689,-2.8e-7 -1.41857,-0.0553111 -1.83502,-0.16593262 -0.50105,-0.14315752 -1.02813,-0.31559712 -1.58124,-0.51731933 l 0,-1.12248537 c 0.79387,0.4555024 1.30794,0.7157886 1.5422,0.7808594 0.6442,0.16918677 1.2819,0.25377978 1.9131,0.2537793 1.05416,4.8e-7 1.83176,-0.2179892 2.33282,-0.6539697 0.50755,-0.4424854 0.76133,-1.0216222 0.76134,-1.7374121 -10e-6,-0.5986554 -0.1692,-1.0346348 -0.50756,-1.3079395 -0.48805,-0.3904251 -1.26565,-0.7092756 -2.33282,-0.9565527 l -0.62469,-0.1464111 c -0.91751,-0.2147308 -1.61703,-0.5173135 -2.09856,-0.907749 -0.60516,-0.4880304 -0.90775,-1.0801815 -0.90774,-1.7764551 -1e-5,-1.1452513 0.36439,-1.9684064 1.0932,-2.4694677 0.7288,-0.501041 1.62353,-0.751566 2.6842,-0.751577 0.90449,1.1e-5 1.52918,0.04881 1.87406,0.146411 0.41646,0.11714 0.82315,0.263551 1.2201,0.439233"
         id="path3233" />
      <path
         d="m 238.07248,-2.4792285 0,6.6373046 -0.87846,0 0,-15.0901071 0.87846,0 0,2.4987498 c 0.40995,-0.9500361 0.85569,-1.6007518 1.33723,-1.9521488 0.7353,-0.540083 1.42831,-0.81013 2.07903,-0.810141 1.29492,1.1e-5 2.37186,0.527091 3.23081,1.5812401 0.85893,1.0541687 1.28841,2.4401926 1.28842,4.1580761 -1e-5,1.7178943 -0.42949,3.1039183 -1.28842,4.1580761 -0.85895,1.05416039 -1.93589,1.58123994 -3.23081,1.58124022 -0.65072,-2.8e-7 -1.34373,-0.27004721 -2.07903,-0.81014159 -0.48154,-0.35138584 -0.92728,-1.00210133 -1.33723,-1.95214843 m 5.85645,0.8296631 c 0.75482,-0.7613355 1.13224,-2.0302307 1.13225,-3.8066894 -1e-5,-1.7764478 -0.37743,-3.045343 -1.13225,-3.8066894 -0.74833,-0.7613278 -1.53895,-1.1419968 -2.37186,-1.1420068 -0.8134,10e-6 -1.59751,0.380679 -2.35234,1.1420068 -0.74833,0.7613464 -1.12249,2.0302416 -1.12249,3.8066894 0,1.7764587 0.37416,3.0453539 1.12249,3.8066894 0.75483,0.76133876 1.53894,1.14200732 2.35234,1.14200681 0.83291,5.1e-7 1.62353,-0.38066805 2.37186,-1.14200681"
         id="path3235"
         style="letter-spacing:0.01em" />
      <path
         d="m 253.2773,-6.168789 c -1.44459,6.2e-6 -2.48574,0.2570388 -3.12343,0.7710986 -0.63771,0.5140707 -0.95656,1.2656471 -0.95656,2.2547315 0,0.963062 0.26354,1.6463133 0.79062,2.0497558 0.52708,0.40344468 1.15177,0.60516648 1.87407,0.605166 1.36649,4.8e-7 2.34907,-0.5791363 2.94774,-1.7374121 0.60516,-1.1582713 0.90774,-2.2482198 0.90775,-3.2698486 l 0,-0.6734912 -2.44019,0 m 3.34794,-0.068325 0,6.2371142 -0.88823,0 0,-2.9672656 c -0.50106,1.4510985 -1.16479,2.37511451 -1.99119,2.77205076 -0.65723,0.31885078 -1.3112,0.47827608 -1.96191,0.47827636 -1.0867,-2.8e-7 -1.94239,-0.28956867 -2.56707,-0.86870604 -0.62469,-0.58564338 -0.93704,-1.44458778 -0.93704,-2.57683588 0,-1.1322418 0.4067,-2.0367363 1.2201,-2.7134863 0.81339,-0.6832454 2.1441,-1.024871 3.99214,-1.0248779 l 2.22545,0 0,-0.1756934 c -1e-5,-0.969559 -0.27656,-1.7666855 -0.82966,-2.3913818 -0.54661,-0.6246774 -1.45111,-0.9370214 -2.71349,-0.9370314 -0.62469,10e-6 -1.26239,0.117139 -1.91311,0.351387 -0.41646,0.1496745 -0.95655,0.4522572 -1.62028,0.9077489 l 0,-0.9663139 c 0.57914,-0.357883 1.11923,-0.611662 1.62028,-0.761338 0.7288,-0.214725 1.42832,-0.322093 2.09856,-0.322104 1.28842,1.1e-5 2.34908,0.39044 3.18201,1.171289 0.72228,0.6702471 1.08343,1.9326351 1.08344,3.787168"
         id="path3237"
         style="letter-spacing:0.01em" />
      <path
         d="m 267.09851,-10.160933 c -0.14316,-0.07157 -0.33838,-0.133386 -0.58564,-0.185454 -0.22125,-0.03903 -0.50106,-0.05855 -0.83942,-0.05856 -1.10623,10e-6 -2.02374,0.4099611 -2.75253,1.2298534 -0.57264,0.663739 -0.85895,1.8024911 -0.85895,3.4162598 l 0,5.7588378 -0.87847,0 0,-10.932031 0.87847,0 0,2.0497557 c 0.29282,-0.585635 0.70277,-1.0801788 1.22986,-1.4836327 0.72879,-0.553098 1.58774,-0.829652 2.57683,-0.829663 0.25377,1.1e-5 0.47502,0.0098 0.66373,0.02928 0.19521,1.1e-5 0.38392,0.02279 0.56612,0.06833 l 0,0.937031"
         id="path3239"
         style="letter-spacing:0.01em" />
      <path
         d="m 275.49561,-5.9150097 0,0.566123 -8.29663,0 c 0,1.7569372 0.34162,2.9867895 1.02488,3.6895605 0.75483,0.78086029 1.87731,1.17128958 3.36745,1.1712891 0.39043,4.8e-7 0.90775,-0.0845925 1.55196,-0.2537793 0.65071,-0.16918528 1.29492,-0.4229643 1.93263,-0.7613379 l 0,0.946792 c -0.64422,0.27330106 -1.3047,0.48153002 -1.98143,0.62468749 -0.67675,0.14315734 -1.21359,0.21473605 -1.61052,0.21473633 -1.68536,-2.8e-7 -2.95426,-0.45550112 -3.80669,-1.36650392 -0.92402,-0.969565 -1.38603,-2.3913783 -1.38603,-4.2654443 0,-1.9456339 0.42297,-3.3967295 1.2689,-4.3532909 0.86545,-0.9955854 2.06927,-1.4933824 3.61147,-1.4933934 1.43157,1.1e-5 2.51176,0.47178 3.24057,1.4153074 0.72228,0.9890974 1.08343,2.277514 1.08344,3.8652539 m -0.90775,-0.1952148 c -10e-6,-1.5356825 -0.34489,-2.6549131 -1.03464,-3.3576953 -0.57914,-0.6246772 -1.36651,-0.9370212 -2.3621,-0.9370312 -1.0867,10e-6 -1.9977,0.325368 -2.733,0.9760742 -0.67675,0.6051748 -1.08345,1.7113911 -1.2201,3.3186523 l 7.34984,0"
         id="path3241"
         style="letter-spacing:0.01em" />
      <path
         d="m 286.18208,-6.5982616 0,6.5982616 -0.89798,0 0,-6.5396972 c -1e-5,-1.4185532 -0.22776,-2.4174015 -0.68326,-2.9965478 -0.45551,-0.579127 -1.12574,-0.868696 -2.01071,-0.868706 -1.03464,10e-6 -1.91962,0.312354 -2.65492,0.9370312 -0.74182,0.6312035 -1.11273,1.7276591 -1.11273,3.2893701 l 0,6.1785497 -0.89798,0 0,-10.932031 0.89798,0 0,2.0497557 c 0.31885,-0.6637209 0.73856,-1.1712787 1.25914,-1.5226757 0.76784,-0.527069 1.61702,-0.790609 2.54755,-0.79062 1.08018,1.1e-5 1.94238,0.367665 2.5866,1.102964 0.6442,0.7288111 0.9663,1.8935919 0.96631,3.4943454"
         id="path3243"
         style="letter-spacing:0.01em" />
      <path
         d="m 296.88099,-10.404951 0,0.9565527 c -0.54011,-0.3318555 -0.98585,-0.5563527 -1.33723,-0.6734917 -0.60517,-0.188697 -1.18431,-0.283051 -1.73741,-0.283061 -1.57474,10e-6 -2.70373,0.403454 -3.38698,1.210332 -0.68325,0.8068964 -1.02488,2.0530165 -1.02487,3.7383642 -10e-6,1.6983729 0.34162,2.9510002 1.02487,3.7578857 0.68325,0.80688888 1.81224,1.21033248 3.38698,1.210332 0.52057,4.8e-7 1.03463,-0.0715782 1.5422,-0.21473633 0.51406,-0.13664955 1.02487,-0.34487847 1.53244,-0.62468747 l 0,0.90774899 c -0.50106,0.234258 -1.01838,0.40995118 -1.55196,0.52708007 -0.5401,0.11712868 -1.07369,0.17569308 -1.60076,0.17569336 -1.60077,-2.8e-7 -2.87292,-0.43272608 -3.81645,-1.29817872 -0.94354,-0.8719577 -1.41531,-2.3523354 -1.41531,-4.4411376 0,-2.0887913 0.47177,-3.569169 1.41531,-4.4411377 0.94353,-0.8654415 2.21568,-1.2981675 3.81645,-1.2981785 0.52056,1.1e-5 1.07367,0.07484 1.65932,0.224497 0.58564,0.143168 1.08344,0.331876 1.4934,0.566123"
         id="path3245"
         style="letter-spacing:0.02em" />
      <path
         d="m 303.44404,1.0151172 c -0.39043,0.969565 -0.81014,1.639802 -1.25913,2.0107128 -0.60517,0.5010479 -1.19732,0.7515734 -1.77646,0.7515772 l -1.33722,0 0,-0.7613379 1.14201,0 c 0.47502,-3e-6 0.89147,-0.1529212 1.24937,-0.4587549 0.46201,-0.396939 0.84267,-0.9793293 1.14201,-1.74717281 L 302.92672,0 l -4.36305,-10.932031 0.95655,0 3.88478,9.7412205 3.89454,-9.7412205 0.94679,0 -4.80229,11.9471482"
         id="path3247"
         style="letter-spacing:0em" />
    </g>
  </g>
  <g
     transform="translate(138.21,52.04)"
     id="text85"
     style="font-size:22.23999977px;font-weight:700;fill:#035c6e;font-family:'AvenirNext-Bold, Avenir Next'">
    <path
       d="m 9.4476562,-13.476484 c -1.2741749,1.3e-5 -2.262377,0.470586 -2.9646094,1.411718 -0.7022453,0.941157 -1.0533648,2.2659999 -1.0533594,3.9745317 -5.4e-6,1.7013085 0.3511141,3.0225311 1.0533594,3.9636718 0.7022324,0.9411491 1.6904345,1.4117215 2.9646094,1.4117188 1.2813958,2.7e-6 2.2732178,-0.4705697 2.9754688,-1.4117188 0.702226,-0.9411407 1.053346,-2.2623633 1.053359,-3.9636718 -1.3e-5,-1.7085318 -0.351133,-3.0333747 -1.053359,-3.9745317 -0.702251,-0.941132 -1.694073,-1.411705 -2.9754688,-1.411718 m 0,-3.029766 c 2.6062378,1.7e-5 4.6477988,0.745693 6.1246878,2.237031 1.476858,1.491367 2.215294,3.551027 2.215312,6.1789847 -1.8e-5,2.6207346 -0.738454,4.6767742 -2.215312,6.1681249 -1.476889,1.49135463 -3.51845,2.23703096 -6.1246878,2.23703127 -2.5990173,-3.1e-7 -4.6405777,-0.74567664 -6.1246875,-2.23703127 -1.4768768,-1.4913507 -2.2153136,-3.5473903 -2.2153125,-6.1681249 -1.1e-6,-2.6279577 0.7384357,-4.6876177 2.2153125,-6.1789847 1.4841098,-1.491338 3.5256702,-2.237014 6.1246875,-2.237031"
       id="path3170"
       style="letter-spacing:0.04em" />
    <path
       d="m 21.831563,-16.213047 6.939141,0 c 2.06327,1.7e-5 3.645117,0.45973 4.745547,1.379141 1.107641,0.912201 1.661469,2.215325 1.661484,3.909375 -1.5e-5,1.7013112 -0.553843,3.0116744 -1.661484,3.9310936 -1.10043,0.9121935 -2.682277,1.3682868 -4.745547,1.3682812 l -2.758281,0 0,5.6251562 -4.18086,0 0,-16.213047 m 4.18086,3.029766 0,4.5283592 2.313047,0 c 0.810824,8.7e-6 1.437047,-0.1954599 1.878671,-0.5864062 0.441604,-0.3981675 0.662411,-0.959235 0.662422,-1.683203 -1.1e-5,-0.723947 -0.220818,-1.281394 -0.662422,-1.672344 -0.441624,-0.390924 -1.067847,-0.586393 -1.878671,-0.586406 l -2.313047,0"
       id="path3172"
       style="letter-spacing:0.02em" />
    <path
       d="m 36.601564,-16.213047 11.28289,0 0,3.160078 -7.102031,0 0,3.018907 6.678516,0 0,3.1600777 -6.678516,0 0,3.7139062 7.340938,0 0,3.1600781 -11.521797,0 0,-16.213047"
       id="path3174"
       style="letter-spacing:0.05em" />
    <path
       d="m 51.171564,-16.213047 4.669531,0 5.89664,11.1200002 0,-11.1200002 3.963672,0 0,16.213047 -4.669531,0 -5.896641,-11.12 0,11.12 -3.963671,0 0,-16.213047"
       id="path3176"
       style="letter-spacing:0.04em" />
    <path
       d="m 87.34445,-15.702656 0,3.431562 c -0.890482,-0.398164 -1.759231,-0.698606 -2.60625,-0.901328 -0.847041,-0.202695 -1.647015,-0.304049 -2.399922,-0.304062 -0.99907,1.3e-5 -1.737507,0.137565 -2.215313,0.412656 -0.477818,0.275117 -0.716724,0.702252 -0.716718,1.281406 -6e-6,0.434387 0.159265,0.774647 0.477812,1.020781 0.325775,0.238917 0.912181,0.445245 1.759219,0.618985 l 1.780937,0.3583592 c 1.802645,0.3619886 3.08405,0.9121964 3.844219,1.650625 0.760142,0.7384449 1.14022,1.7881834 1.140234,3.1492187 -1.4e-5,1.7881803 -0.532123,3.1202623 -1.596328,3.99624999 -1.056991,0.86875011 -2.675036,1.30312467 -4.85414,1.30312498 -1.028028,-3.1e-7 -2.059668,-0.0977346 -3.094922,-0.29320312 -1.035264,-0.19546857 -2.070524,-0.48505162 -3.105781,-0.86874999 l 0,-3.52929686 c 1.035257,0.5502122 2.034319,0.9664878 2.997187,1.2488281 0.970099,0.275107 1.904004,0.412659 2.801719,0.4126563 0.912179,2.7e-6 1.610798,-0.1520284 2.095859,-0.4560938 0.485042,-0.304059 0.727568,-0.7384336 0.727578,-1.303125 -1e-5,-0.5067658 -0.16652,-0.8977029 -0.499531,-1.1728124 -0.325791,-0.2750983 -0.980972,-0.5212439 -1.965547,-0.7384375 l -1.618047,-0.3583594 c -1.621671,-0.3474929 -2.808961,-0.9013205 -3.561875,-1.6614844 -0.745679,-0.760147 -1.118517,-1.7845468 -1.118515,-3.0732028 -2e-6,-1.614414 0.521248,-2.856002 1.56375,-3.724766 1.042496,-0.868734 2.541088,-1.303108 4.495781,-1.303125 0.89046,1.7e-5 1.806267,0.06879 2.747422,0.206328 0.941134,0.130329 1.914857,0.329417 2.921172,0.597266"
       id="path3178"
       style="letter-spacing:0.06em" />
    <path
       d="m 88.538594,-16.213047 14.942496,0 0,3.160078 -5.375387,0 0,13.052969 -4.180859,0 0,-13.052969 -5.38625,0 0,-3.160078"
       id="path3180"
       style="letter-spacing:-0.02em" />
    <path
       d="m 112.81016,-2.95375 -6.53735,0 L 105.24117,0 l -4.20258,0 6.00524,-16.213047 4.98445,0 L 118.03352,0 l -4.20258,0 -1.02078,-2.95375 m -5.49485,-3.0080468 4.44149,0 -2.21532,-6.4504682 -2.22617,6.4504682"
       id="path3182"
       style="letter-spacing:-0.02em" />
    <path
       d="m 116.7986,-16.213047 14.9425,0 0,3.160078 -5.37539,0 0,13.052969 -4.18086,0 0,-13.052969 -5.38625,0 0,-3.160078"
       id="path3184"
       style="letter-spacing:0.04em" />
    <path
       d="m 132.48156,-16.213047 11.2829,0 0,3.160078 -7.10204,0 0,3.018907 6.67852,0 0,3.1600777 -6.67852,0 0,3.7139062 7.34094,0 0,3.1600781 -11.5218,0 0,-16.213047"
       id="path3186"
       style="letter-spacing:0.04em" />
  </g>
  <g
     transform="translate(289.55,52.04)"
     id="text109"
     style="font-size:22.23999977px;font-weight:300;fill:#035c6e;font-family:'AvenirNext-DemiBold, Avenir Next'">
    <path
       d="m 2.7148437,-16.213047 8.2205473,0 0,0.901328 -7.1237504,0 0,6.2224222 6.4287504,0 0,0.8796094 -6.4287504,0 0,8.2096874 -1.0967969,0 0,-16.213047"
       id="path3149"
       style="letter-spacing:0.03em" />
    <path
       d="m 26.377813,-13.628515 c -1.042512,-1.353788 -2.45061,-2.030688 -4.224297,-2.030704 -1.773705,1.6e-5 -3.185422,0.676916 -4.235156,2.030704 -1.042504,1.353814 -1.563753,3.199906 -1.56375,5.5382807 -3e-6,2.323912 0.521246,4.1627643 1.56375,5.5165625 1.049734,1.3538032 2.461451,2.0307036 4.235156,2.03070306 1.773687,5.4e-7 3.181785,-0.67689986 4.224297,-2.03070306 1.035246,-1.3537982 1.552876,-3.1926505 1.55289,-5.5165625 -1.4e-5,-2.3383747 -0.517644,-4.1844667 -1.55289,-5.5382807 m -4.224297,-2.877735 c 2.099468,1.7e-5 3.77905,0.760172 5.03875,2.280469 1.259672,1.527565 1.889515,3.572745 1.889531,6.1355467 -1.6e-5,2.5555784 -0.629859,4.5935191 -1.889531,6.1138281 -1.2597,1.52755249 -2.939282,2.29132776 -5.03875,2.29132807 -2.106726,-3.1e-7 -3.793547,-0.7601558 -5.060469,-2.28046877 -1.25969,-1.520309 -1.889533,-3.5618694 -1.889531,-6.1246874 -2e-6,-2.5628017 0.629841,-4.6079817 1.889531,-6.1355467 1.266922,-1.520297 2.953743,-2.280452 5.060469,-2.280469"
       id="path3151"
       style="letter-spacing:0.04em" />
    <path
       d="m 35.576797,-16.213047 1.085937,0 0,9.8494533 c -3e-6,2.056046 0.361976,3.5365393 1.085938,4.4414843 0.716713,0.8977094 1.878665,1.34656311 3.485859,1.34656253 1.599938,5.8e-7 2.758271,-0.44885313 3.475,-1.34656253 0.723946,-0.904945 1.085925,-2.3854383 1.085938,-4.4414843 l 0,-9.8494533 1.085937,0 0,10.1209377 c -1.4e-5,2.1139623 -0.477826,3.7102888 -1.433437,4.7889843 -0.948397,1.07869814 -2.352875,1.61804656 -4.213438,1.61804687 -1.867818,-3.1e-7 -3.275916,-0.53934873 -4.224297,-1.61804687 -0.955627,-1.0786955 -1.433439,-2.675022 -1.433437,-4.7889843 l 0,-10.1209377"
       id="path3153"
       style="letter-spacing:0.04em" />
    <path
       d="m 52.603125,-16.213047 1.607187,0 L 62.0725,-1.39 l 0,-14.823047 1.085937,0 0,16.213047 -1.542031,0 -7.905625,-14.920781 0,14.920781 -1.107656,0 0,-16.213047"
       id="path3155"
       style="letter-spacing:0.04em" />
    <path
       d="m 71.981639,-15.29 0,14.41039063 3.214375,0 c 2.446969,8.8e-7 4.238764,-0.57916523 5.37539,-1.73749993 1.143841,-1.1583296 1.715767,-2.9863225 1.715782,-5.4839844 -1.5e-5,-2.4831663 -0.571941,-4.3039203 -1.715782,-5.4622653 -1.136626,-1.151079 -2.928421,-1.726626 -5.37539,-1.726641 l -3.214375,0 m -1.107656,-0.923047 3.98539,0 c 2.95374,1.7e-5 5.121993,0.655198 6.504766,1.965547 1.382745,1.303138 2.074125,3.344699 2.07414,6.1246876 -1.5e-5,2.7944844 -0.695014,4.8469043 -2.085,6.1572655 C 79.963268,-0.65518163 77.798634,0 74.859373,0 l -3.98539,0 0,-16.213047"
       id="path3157"
       style="letter-spacing:0.01em" />
    <path
       d="m 92.857263,-15.11625 -3.475,9.1218751 6.895703,0 -3.420703,-9.1218751 m -0.695,-1.096797 1.422578,0 L 99.785544,0 l -1.237968,0 -1.932969,-5.0930468 -7.568984,0 L 87.123513,0 85.972419,0 92.162263,-16.213047"
       id="path3159"
       style="letter-spacing:-0.03em" />
    <path
       d="m 100.89868,-16.213047 12.60773,0 0,0.890469 -5.75547,0 0,15.322578 -1.0968,0 0,-15.322578 -5.75546,0 0,-0.890469"
       id="path3161"
       style="letter-spacing:0.04em" />
    <path
       d="m 116.58312,-16.213047 1.12938,0 0,16.213047 -1.12938,0 0,-16.213047"
       id="path3163"
       style="letter-spacing:0.04em" />
    <path
       d="m 134.03782,-13.628515 c -1.04252,-1.353788 -2.45061,-2.030688 -4.2243,-2.030704 -1.77371,1.6e-5 -3.18542,0.676916 -4.23516,2.030704 -1.0425,1.353814 -1.56375,3.199906 -1.56375,5.5382807 0,2.323912 0.52125,4.1627643 1.56375,5.5165625 1.04974,1.3538032 2.46145,2.0307036 4.23516,2.03070306 1.77369,5.4e-7 3.18178,-0.67689986 4.2243,-2.03070306 1.03524,-1.3537982 1.55287,-3.1926505 1.55289,-5.5165625 -2e-5,-2.3383747 -0.51765,-4.1844667 -1.55289,-5.5382807 m -4.2243,-2.877735 c 2.09947,1.7e-5 3.77905,0.760172 5.03875,2.280469 1.25967,1.527565 1.88951,3.572745 1.88953,6.1355467 -2e-5,2.5555784 -0.62986,4.5935191 -1.88953,6.1138281 -1.2597,1.52755249 -2.93928,2.29132776 -5.03875,2.29132807 -2.10673,-3.1e-7 -3.79355,-0.7601558 -5.06047,-2.28046877 -1.25969,-1.520309 -1.88953,-3.5618694 -1.88953,-6.1246874 0,-2.5628017 0.62984,-4.6079817 1.88953,-6.1355467 1.26692,-1.520297 2.95374,-2.280452 5.06047,-2.280469"
       id="path3165"
       style="letter-spacing:0.04em" />
    <path
       d="m 143.49313,-16.213047 1.60719,0 7.86218,14.823047 0,-14.823047 1.08594,0 0,16.213047 -1.54203,0 -7.90563,-14.920781 0,14.920781 -1.10765,0 0,-16.213047"
       id="path3167" />
  </g>
</svg>
