<svg id="Layer_1" data-name="Layer 1" xmlns="http://www.w3.org/2000/svg" xmlns:xlink="http://www.w3.org/1999/xlink" viewBox="0 0 475.18 106.78"><defs><style>.cls-1{fill:none;}.cls-2{clip-path:url(#clip-path);}.cls-29,.cls-3,.cls-39,.cls-5{fill:#035c6e;}.cls-4{fill:#8dd5e5;}.cls-5{font-size:19.99px;font-family:IBMPlexSans-Light, IBM Plex Sans Light;}.cls-39,.cls-5{font-weight:300;}.cls-6{letter-spacing:0.01em;}.cls-7{letter-spacing:0.02em;}.cls-8{letter-spacing:0em;}.cls-9{letter-spacing:0.02em;}.cls-10{letter-spacing:0.02em;}.cls-11{letter-spacing:0em;}.cls-12{letter-spacing:0em;}.cls-13{letter-spacing:0.01em;}.cls-14{letter-spacing:0.02em;}.cls-15{letter-spacing:0em;}.cls-16{letter-spacing:0.01em;}.cls-17{letter-spacing:0em;}.cls-18{letter-spacing:0em;}.cls-19{letter-spacing:0.01em;}.cls-20{letter-spacing:0.01em;}.cls-21{letter-spacing:0.02em;}.cls-22{letter-spacing:0.02em;}.cls-23{letter-spacing:0.01em;}.cls-24{letter-spacing:0.01em;}.cls-25{letter-spacing:0.01em;}.cls-26{letter-spacing:0.01em;}.cls-27{letter-spacing:0.02em;}.cls-28{letter-spacing:0em;}.cls-29,.cls-39{font-size:22.24px;}.cls-29{font-family:AvenirNext-Bold, Avenir Next;font-weight:700;}.cls-30{letter-spacing:0.04em;}.cls-31{letter-spacing:0.02em;}.cls-32{letter-spacing:0.05em;}.cls-33{letter-spacing:0.04em;}.cls-34{letter-spacing:0.04em;}.cls-35{letter-spacing:0.06em;}.cls-36{letter-spacing:-0.02em;}.cls-37{letter-spacing:-0.02em;}.cls-38{letter-spacing:0.04em;}.cls-39{font-family:AvenirNext-DemiBold, Avenir Next;}.cls-40{letter-spacing:0.03em;}.cls-41{letter-spacing:0.04em;}.cls-42{letter-spacing:0.04em;}.cls-43{letter-spacing:0.01em;}.cls-44{letter-spacing:-0.03em;}.cls-45{letter-spacing:0.04em;}.cls-46{letter-spacing:0.04em;}</style><clipPath id="clip-path"><rect id="SVGID" class="cls-1" x="19.23" y="21.91" width="432.04" height="61.62"/></clipPath></defs><title>Open-state-foundation-logo-tagline</title><g class="cls-2"><path class="cls-3" d="M118,39.55,80.76,76.81A26.39,26.39,0,0,0,118,39.55"/><path class="cls-4" d="M124.78,28.62,87.52,65.88a26.39,26.39,0,0,1,37.26-37.26"/><path class="cls-3" d="M65.28,39.54,28,76.8A26.39,26.39,0,0,0,65.28,39.54"/><path class="cls-4" d="M63.21,37.46,26,74.72A26.39,26.39,0,0,1,63.21,37.46"/><text class="cls-5" transform="translate(139.81 78.59)"><tspan class="cls-6">O</tspan><tspan class="cls-7" x="14.15" y="0">p</tspan><tspan class="cls-8" x="25.98" y="0">e</tspan><tspan class="cls-9" x="36.93" y="0">n</tspan><tspan class="cls-10" x="48.59" y="0"> </tspan><tspan class="cls-11" x="53.68" y="0">d</tspan><tspan class="cls-12" x="65.23" y="0">a</tspan><tspan class="cls-13" x="75.73" y="0">t</tspan><tspan class="cls-14" x="82.58" y="0">a</tspan><tspan class="cls-10" x="93.51" y="0"> </tspan><tspan class="cls-15" x="98.61" y="0">f</tspan><tspan class="cls-16" x="104.82" y="0">o</tspan><tspan class="cls-9" x="115.96" y="0">r </tspan><tspan class="cls-17" x="128.61" y="0">d</tspan><tspan class="cls-18" x="140.06" y="0">i</tspan><tspan class="cls-6" x="144.88" y="0">g</tspan><tspan class="cls-19" x="155.67" y="0">i</tspan><tspan class="cls-13" x="160.66" y="0">t</tspan><tspan class="cls-20" x="167.52" y="0">a</tspan><tspan class="cls-21" x="178.25" y="0">l </tspan><tspan x="189.04" y="0">t</tspan><tspan class="cls-22" x="195.74" y="0">r</tspan><tspan class="cls-23" x="203.29" y="0">a</tspan><tspan class="cls-24" x="214.03" y="0">n</tspan><tspan x="225.38" y="0">s</tspan><tspan class="cls-25" x="234.91" y="0">p</tspan><tspan class="cls-26" x="246.64" y="0">ar</tspan><tspan class="cls-24" x="264.71" y="0">e</tspan><tspan class="cls-6" x="275.66" y="0">n</tspan><tspan class="cls-27" x="287.13" y="0">c</tspan><tspan class="cls-28" x="297.49" y="0">y</tspan></text></g><text class="cls-29" transform="translate(138.21 52.04)"><tspan class="cls-30">O</tspan><tspan class="cls-31" x="19.79" y="0">P</tspan><tspan class="cls-32" x="34.56" y="0">E</tspan><tspan class="cls-33" x="49.13" y="0">N</tspan><tspan class="cls-34" x="67.57" y="0"> </tspan><tspan class="cls-35" x="74.02" y="0">S</tspan><tspan class="cls-36" x="88.43" y="0">T</tspan><tspan class="cls-37" x="100.93" y="0">A</tspan><tspan class="cls-38" x="116.69" y="0">T</tspan><tspan class="cls-34" x="130.44" y="0">E</tspan><tspan x="144.83" y="0"> </tspan></text><text class="cls-39" transform="translate(289.55 52.04)"><tspan class="cls-40">F</tspan><tspan class="cls-38" x="13.39" y="0">O</tspan><tspan class="cls-41" x="33.09" y="0">U</tspan><tspan class="cls-42" x="49.91" y="0">N</tspan><tspan class="cls-43" x="68.17" y="0">D</tspan><tspan class="cls-44" x="85.31" y="0">A</tspan><tspan class="cls-45" x="100.41" y="0">T</tspan><tspan class="cls-46" x="113.89" y="0">I</tspan><tspan class="cls-33" x="121.05" y="0">O</tspan><tspan x="140.8" y="0">N</tspan></text></svg>