<?xml version="1.0" encoding="UTF-8" standalone="no"?>
<svg
   xmlns:dc="http://purl.org/dc/elements/1.1/"
   xmlns:cc="http://creativecommons.org/ns#"
   xmlns:rdf="http://www.w3.org/1999/02/22-rdf-syntax-ns#"
   xmlns:svg="http://www.w3.org/2000/svg"
   xmlns="http://www.w3.org/2000/svg"
   xmlns:sodipodi="http://sodipodi.sourceforge.net/DTD/sodipodi-0.dtd"
   xmlns:inkscape="http://www.inkscape.org/namespaces/inkscape"
   height="71.656334"
   width="438.23517"
   version="1.1"
   viewBox="0 0 438.23517 71.656336"
   data-name="Layer 1"
   id="Layer_1"
   inkscape:version="0.48.4 r9939"
   sodipodi:docname="Open-state-foundation-logo-tagline-nl.svg">
  <sodipodi:namedview
     pagecolor="#ffffff"
     bordercolor="#666666"
     borderopacity="1"
     objecttolerance="10"
     gridtolerance="10"
     guidetolerance="10"
     inkscape:pageopacity="0"
     inkscape:pageshadow="2"
     inkscape:window-width="2560"
     inkscape:window-height="1056"
     id="namedview68"
     showgrid="false"
     inkscape:zoom="2.8613043"
     inkscape:cx="335.69498"
     inkscape:cy="28.052018"
     inkscape:window-x="1920"
     inkscape:window-y="24"
     inkscape:window-maximized="1"
     inkscape:current-layer="Layer_1"
     fit-margin-top="5"
     fit-margin-left="5"
     fit-margin-right="5"
     fit-margin-bottom="5" />
  <metadata
     id="metadata133">
    <rdf:RDF>
      <cc:Work
         rdf:about="">
        <dc:format>image/svg+xml</dc:format>
        <dc:type
           rdf:resource="http://purl.org/dc/dcmitype/StillImage" />
        <dc:title>Open-state-foundation-logo-tagline-nl</dc:title>
      </cc:Work>
    </rdf:RDF>
  </metadata>
  <defs
     id="defs4">
    <style
       id="style2">.cls-1,.cls-3{fill:#035c6e;}.cls-2{fill:#8dd5e5;}.cls-3{font-size:18.4px;font-family:IBMPlexSans-Light, IBM Plex Sans Light;font-weight:300;}.cls-4{letter-spacing:0.01em;}.cls-5{letter-spacing:0.02em;}.cls-6{letter-spacing:0.01em;}.cls-7{letter-spacing:0.02em;}.cls-8{letter-spacing:0.02em;}.cls-9{letter-spacing:0em;}.cls-10{letter-spacing:0em;}.cls-11{letter-spacing:0.01em;}.cls-12{letter-spacing:0.02em;}.cls-13{letter-spacing:0.02em;}.cls-14{letter-spacing:0em;}.cls-15{letter-spacing:0.01em;}.cls-16{letter-spacing:0.02em;}.cls-17{letter-spacing:0.02em;}.cls-18{letter-spacing:0em;}.cls-19{letter-spacing:0.01em;}.cls-20{letter-spacing:0.01em;}.cls-21{letter-spacing:0em;}.cls-22{letter-spacing:0.02em;}.cls-23{letter-spacing:0.01em;}.cls-24{letter-spacing:0em;}.cls-25{letter-spacing:0em;}.cls-26{letter-spacing:0.01em;}.cls-27{letter-spacing:0em;}</style>
  </defs>
  <title
     id="title6">Open-state-foundation-logo-tagline-nl</title>
  <path
     style="fill:#035c6e"
     id="path8"
     d="m 103.51742,22.622711 -37.239996,37.26 a 26.39,26.39 0 0 0 37.239996,-37.26"
     class="cls-1"
     inkscape:connector-curvature="0" />
  <path
     style="fill:#8dd5e5"
     id="path10"
     d="m 110.29743,11.692711 -37.260006,37.26 a 26.39,26.39 0 0 1 37.260006,-37.26"
     class="cls-2"
     inkscape:connector-curvature="0" />
  <path
     style="fill:#035c6e"
     id="path12"
     d="m 50.797424,22.612711 -37.280001,37.26 a 26.39,26.39 0 0 0 37.280001,-37.26"
     class="cls-1"
     inkscape:connector-curvature="0" />
  <path
     style="fill:#8dd5e5"
     id="path14"
     d="m 48.727424,20.532711 -37.210001,37.26 a 26.39,26.39 0 0 1 37.210001,-37.26"
     class="cls-2"
     inkscape:connector-curvature="0" />
  <path
     style="fill:#035c6e"
     id="path16"
     d="m 141.76743,27.172711 a 8.6,8.6 0 0 1 -0.65,3.41 7.76,7.76 0 0 1 -1.79,2.65 8,8 0 0 1 -2.72,1.7 10,10 0 0 1 -6.84,0 8,8 0 0 1 -2.71,-1.7 7.76,7.76 0 0 1 -1.79,-2.65 9.3,9.3 0 0 1 0,-6.83 7.42,7.42 0 0 1 1.79,-2.59 7.91,7.91 0 0 1 2.71,-1.64 10.37,10.37 0 0 1 6.84,0 7.86,7.86 0 0 1 2.72,1.64 7.42,7.42 0 0 1 1.79,2.59 8.55,8.55 0 0 1 0.65,3.42 z m -4.07,0 a 5.44,5.44 0 0 0 -0.33,-1.91 4.52,4.52 0 0 0 -0.93,-1.53 4.29,4.29 0 0 0 -1.42,-1 4.6,4.6 0 0 0 -1.83,-0.37 4.38,4.38 0 0 0 -3.25,1.37 4.2,4.2 0 0 0 -0.92,1.53 5.78,5.78 0 0 0 0,3.88 4.64,4.64 0 0 0 0.92,1.54 4.1,4.1 0 0 0 1.41,1 4.69,4.69 0 0 0 3.65,0 4.23,4.23 0 0 0 1.42,-1 4.68,4.68 0 0 0 0.94,-1.54 5.7,5.7 0 0 0 0.34,-1.97 z"
     class="cls-1"
     inkscape:connector-curvature="0" />
  <path
     style="fill:#035c6e"
     id="path18"
     d="m 157.08743,24.212711 a 4.82,4.82 0 0 1 -0.51,2.32 4.24,4.24 0 0 1 -1.38,1.54 6,6 0 0 1 -2,0.84 10.1,10.1 0 0 1 -2.36,0.27 h -1.89 v 5.89 h -3.8 v -15.71 h 5.78 a 11,11 0 0 1 2.42,0.26 5.63,5.63 0 0 1 1.95,0.82 4,4 0 0 1 1.32,1.49 5.06,5.06 0 0 1 0.47,2.28 z m -3.8,0 a 1.68,1.68 0 0 0 -0.22,-0.91 1.62,1.62 0 0 0 -0.6,-0.56 2.55,2.55 0 0 0 -0.86,-0.26 6.41,6.41 0 0 0 -1,-0.07 h -1.67 v 3.72 h 1.58 a 5.69,5.69 0 0 0 1,-0.09 2.8,2.8 0 0 0 0.88,-0.32 1.62,1.62 0 0 0 0.61,-0.58 1.78,1.78 0 0 0 0.28,-0.91 z"
     class="cls-1"
     inkscape:connector-curvature="0" />
  <path
     style="fill:#035c6e"
     id="path20"
     d="m 159.91743,35.072711 v -15.71 h 10.6 v 3.2 h -6.91 v 3 h 6.54 v 3.05 h -6.54 v 3.27 h 7.31 v 3.19 z"
     class="cls-1"
     inkscape:connector-curvature="0" />
  <path
     style="fill:#035c6e"
     id="path22"
     d="m 184.51743,35.072711 -6.34,-10.3 h -0.06 l 0.09,10.3 h -3.69 v -15.71 h 4.33 l 6.32,10.28 h 0.07 l -0.09,-10.28 h 3.69 v 15.71 z"
     class="cls-1"
     inkscape:connector-curvature="0" />
  <path
     style="fill:#035c6e"
     id="path24"
     d="m 207.68743,23.452711 a 3.55,3.55 0 0 0 -1.28,-1 3.66,3.66 0 0 0 -1.52,-0.36 5.09,5.09 0 0 0 -0.77,0.06 2,2 0 0 0 -0.7,0.26 1.74,1.74 0 0 0 -0.52,0.49 1.3,1.3 0 0 0 -0.21,0.77 1.22,1.22 0 0 0 0.16,0.66 1.48,1.48 0 0 0 0.49,0.47 4.61,4.61 0 0 0 0.77,0.37 l 1,0.34 1.67,0.59 a 6.35,6.35 0 0 1 1.58,0.86 4.68,4.68 0 0 1 1.16,1.33 3.83,3.83 0 0 1 0.46,2 5.09,5.09 0 0 1 -0.5,2.35 4.64,4.64 0 0 1 -1.34,1.63 5.87,5.87 0 0 1 -1.94,1 8.35,8.35 0 0 1 -2.24,0.31 9.32,9.32 0 0 1 -3.27,-0.59 6.84,6.84 0 0 1 -2.63,-1.68 l 2.49,-2.54 a 4.5,4.5 0 0 0 1.53,1.19 4.1,4.1 0 0 0 1.88,0.48 3.75,3.75 0 0 0 0.82,-0.09 1.92,1.92 0 0 0 0.7,-0.29 1.45,1.45 0 0 0 0.48,-0.53 1.66,1.66 0 0 0 0.18,-0.8 1.27,1.27 0 0 0 -0.23,-0.76 2.33,2.33 0 0 0 -0.63,-0.56 5.42,5.42 0 0 0 -1,-0.47 l -1.39,-0.46 a 12.57,12.57 0 0 1 -1.48,-0.57 5.19,5.19 0 0 1 -1.29,-0.86 3.93,3.93 0 0 1 -0.91,-1.27 4.26,4.26 0 0 1 -0.35,-1.81 4.54,4.54 0 0 1 0.53,-2.25 4.7,4.7 0 0 1 1.41,-1.53 6.07,6.07 0 0 1 1.95,-0.88 8.68,8.68 0 0 1 2.2,-0.28 8.12,8.12 0 0 1 2.73,0.49 6.93,6.93 0 0 1 2.43,1.45 z"
     class="cls-1"
     inkscape:connector-curvature="0" />
  <path
     style="fill:#035c6e"
     id="path26"
     d="m 220.51743,22.612711 v 12.46 h -3.8 v -12.46 h -4.45 v -3.25 h 12.7 v 3.25 z"
     class="cls-1"
     inkscape:connector-curvature="0" />
  <path
     style="fill:#035c6e"
     id="path28"
     d="m 236.95743,35.072711 -1.23,-3 h -6.09 l -1.12,3 h -4.13 l 6.6,-15.75 h 3.69 l 6.5,15.75 z m -4.23,-11.5 -2,5.4 h 4 z"
     class="cls-1"
     inkscape:connector-curvature="0" />
  <path
     style="fill:#035c6e"
     id="path30"
     d="m 248.78743,22.612711 v 12.46 h -3.8 v -12.46 h -4.47 v -3.25 h 12.7 v 3.25 z"
     class="cls-1"
     inkscape:connector-curvature="0" />
  <path
     style="fill:#035c6e"
     id="path32"
     d="m 255.78743,35.072711 v -15.71 h 10.59 v 3.2 h -6.92 v 3 h 6.54 v 3.05 h -6.54 v 3.27 h 7.32 v 3.19 z"
     class="cls-1"
     inkscape:connector-curvature="0" />
  <path
     style="fill:#035c6e"
     id="path34"
     d="m 276.79743,19.362711 h 10.16 v 2.45 h -7.36 v 4.31 h 6.92 v 2.36 h -6.94 v 6.59 h -2.8 z"
     class="cls-1"
     inkscape:connector-curvature="0" />
  <path
     style="fill:#035c6e"
     id="path36"
     d="m 289.42743,27.192711 a 8.64,8.64 0 0 1 0.64,-3.41 7.5,7.5 0 0 1 1.75,-2.59 7.75,7.75 0 0 1 2.7,-1.65 9.47,9.47 0 0 1 3.37,-0.58 9.65,9.65 0 0 1 3.41,0.58 7.94,7.94 0 0 1 2.69,1.65 7.39,7.39 0 0 1 1.76,2.59 9.3,9.3 0 0 1 0,6.78 7.7,7.7 0 0 1 -1.76,2.62 8.1,8.1 0 0 1 -2.69,1.72 9.44,9.44 0 0 1 -3.41,0.61 9.26,9.26 0 0 1 -3.37,-0.61 7.92,7.92 0 0 1 -2.67,-1.72 7.82,7.82 0 0 1 -1.75,-2.62 8.58,8.58 0 0 1 -0.67,-3.37 z m 3,0 a 6.6,6.6 0 0 0 0.39,2.32 5.42,5.42 0 0 0 1.11,1.84 5.07,5.07 0 0 0 1.71,1.21 5.38,5.38 0 0 0 2.19,0.43 5.48,5.48 0 0 0 2.21,-0.43 5.11,5.11 0 0 0 1.72,-1.21 5.42,5.42 0 0 0 1.11,-1.84 6.6,6.6 0 0 0 0.39,-2.32 6.48,6.48 0 0 0 -0.39,-2.27 5.51,5.51 0 0 0 -1.05,-1.85 5.06,5.06 0 0 0 -1.71,-1.23 5.55,5.55 0 0 0 -2.23,-0.44 5.45,5.45 0 0 0 -2.21,0.44 5.12,5.12 0 0 0 -1.7,1.23 5.68,5.68 0 0 0 -1.1,1.82 6.48,6.48 0 0 0 -0.35,2.3 z"
     class="cls-1"
     inkscape:connector-curvature="0" />
  <path
     style="fill:#035c6e"
     id="path38"
     d="m 322.43743,29.332711 a 6.53,6.53 0 0 1 -0.49,2.56 5.65,5.65 0 0 1 -1.34,2 5.75,5.75 0 0 1 -2,1.23 7.38,7.38 0 0 1 -5,0 5.84,5.84 0 0 1 -2,-1.23 5.5,5.5 0 0 1 -1.33,-2 6.53,6.53 0 0 1 -0.48,-2.56 v -10 h 2.72 v 9.85 a 5.31,5.31 0 0 0 0.18,1.37 3.41,3.41 0 0 0 0.59,1.21 3,3 0 0 0 1.09,0.87 4.44,4.44 0 0 0 3.36,0 3,3 0 0 0 1.09,-0.87 3.41,3.41 0 0 0 0.59,-1.21 5.31,5.31 0 0 0 0.18,-1.37 v -9.82 h 2.8 z"
     class="cls-1"
     inkscape:connector-curvature="0" />
  <path
     style="fill:#035c6e"
     id="path40"
     d="m 326.70743,19.362711 h 3.71 l 7.32,11.79 v 0 -11.79 h 2.81 v 15.71 h -3.56 l -7.47,-12.13 v 0 12.13 h -2.8 z"
     class="cls-1"
     inkscape:connector-curvature="0" />
  <path
     style="fill:#035c6e"
     id="path42"
     d="m 344.96743,19.362711 h 5.55 a 12.72,12.72 0 0 1 3.09,0.4 8,8 0 0 1 2.8,1.33 6.9,6.9 0 0 1 2,2.42 8,8 0 0 1 0.78,3.73 7.56,7.56 0 0 1 -0.78,3.55 7.29,7.29 0 0 1 -2,2.45 8.3,8.3 0 0 1 -2.8,1.41 10.77,10.77 0 0 1 -3.09,0.42 h -5.58 z m 5.13,13.3 a 9.47,9.47 0 0 0 2.18,-0.25 5.57,5.57 0 0 0 2,-0.87 4.58,4.58 0 0 0 1.44,-1.66 5.59,5.59 0 0 0 0.55,-2.64 6,6 0 0 0 -0.55,-2.76 4.46,4.46 0 0 0 -1.44,-1.67 5.15,5.15 0 0 0 -2,-0.82 10.69,10.69 0 0 0 -2.18,-0.23 h -2.33 v 10.9 z"
     class="cls-1"
     inkscape:connector-curvature="0" />
  <path
     style="fill:#035c6e"
     id="path44"
     d="m 367.04743,19.362711 h 2.47 l 6.74,15.71 h -3.2 l -1.47,-3.6 h -6.83 l -1.42,3.6 h -3.14 z m 3.56,9.71 -2.42,-6.4 -2.47,6.4 z"
     class="cls-1"
     inkscape:connector-curvature="0" />
  <path
     style="fill:#035c6e"
     id="path46"
     d="m 380.39743,21.812711 h -4.83 v -2.45 h 12.45 v 2.45 h -4.82 v 13.26 h -2.8 z"
     class="cls-1"
     inkscape:connector-curvature="0" />
  <path
     style="fill:#035c6e"
     id="path48"
     d="m 390.68743,19.362711 h 2.83 v 15.71 h -2.8 z"
     class="cls-1"
     inkscape:connector-curvature="0" />
  <path
     style="fill:#035c6e"
     id="path50"
     d="m 397.09743,27.192711 a 8.82,8.82 0 0 1 0.63,-3.41 7.39,7.39 0 0 1 1.79,-2.59 7.75,7.75 0 0 1 2.67,-1.65 9.43,9.43 0 0 1 3.37,-0.58 9.59,9.59 0 0 1 3.4,0.58 7.84,7.84 0 0 1 2.69,1.65 7.28,7.28 0 0 1 1.77,2.59 9.44,9.44 0 0 1 0,6.78 7.59,7.59 0 0 1 -1.77,2.62 8,8 0 0 1 -2.69,1.72 9.38,9.38 0 0 1 -3.4,0.61 9.22,9.22 0 0 1 -3.37,-0.61 7.92,7.92 0 0 1 -2.67,-1.72 7.7,7.7 0 0 1 -1.76,-2.62 8.76,8.76 0 0 1 -0.66,-3.37 z m 3,0 a 6.6,6.6 0 0 0 0.39,2.32 5.29,5.29 0 0 0 1.12,1.84 5.07,5.07 0 0 0 1.71,1.21 5.38,5.38 0 0 0 2.19,0.43 5.47,5.47 0 0 0 2.2,-0.43 5,5 0 0 0 1.81,-1.21 5.29,5.29 0 0 0 1.12,-1.84 6.6,6.6 0 0 0 0.39,-2.32 6.48,6.48 0 0 0 -0.39,-2.27 5.68,5.68 0 0 0 -1.12,-1.85 5.2,5.2 0 0 0 -1.72,-1.23 5.5,5.5 0 0 0 -2.22,-0.44 5.42,5.42 0 0 0 -2.21,0.44 5.27,5.27 0 0 0 -1.74,1.23 5.68,5.68 0 0 0 -1.1,1.82 6.48,6.48 0 0 0 -0.39,2.3 z"
     class="cls-1"
     inkscape:connector-curvature="0" />
  <path
     style="fill:#035c6e"
     id="path52"
     d="m 417.59743,19.362711 h 3.72 l 7.31,11.79 h 0.05 v -11.79 h 2.84 v 15.71 h -3.6 l -7.47,-12.17 v 0 12.17 h -2.81 z"
     class="cls-1"
     inkscape:connector-curvature="0" />
  <g
     style="font-size:18.39999962px;font-weight:300;fill:#035c6e"
     id="text128"
     transform="translate(4.9999965,5.0000211)">
    <path
       d="m 130.96274,45.117298 c -0.86251,-1.120039 -2.02748,-1.680065 -3.49492,-1.680078 -1.46745,1.3e-5 -2.63542,0.560039 -3.50391,1.680078 -0.8625,1.120063 -1.29375,2.647405 -1.29375,4.582032 0,1.92266 0.43125,3.444013 1.29375,4.564062 0.86849,1.120053 2.03646,1.680078 3.50391,1.680078 1.46744,0 2.63241,-0.560025 3.49492,-1.680078 0.8565,-1.120049 1.28476,-2.641402 1.28477,-4.564062 -1e-5,-1.934627 -0.42827,-3.461969 -1.28477,-4.582032 m -3.49492,-2.380859 c 1.73697,1.4e-5 3.12655,0.628919 4.16875,1.886719 1.04218,1.263812 1.56327,2.955868 1.56328,5.076172 -1e-5,2.114327 -0.5211,3.800393 -1.56328,5.058203 -1.0422,1.263802 -2.43178,1.895702 -4.16875,1.895703 -1.74297,-10e-7 -3.13855,-0.628906 -4.18672,-1.886719 -1.04219,-1.25781 -1.56328,-2.94687 -1.56328,-5.067187 0,-2.120304 0.52109,-3.81236 1.56328,-5.076172 1.04817,-1.2578 2.44375,-1.886705 4.18672,-1.886719"
       style="letter-spacing:0.01em"
       id="path3065"
       inkscape:connector-curvature="0" />
    <path
       d="m 136.15836,54.110658 0,6.109374 -0.8086,0 0,-13.889843 0.8086,0 0,2.3 c 0.37734,-0.874471 0.78763,-1.473428 1.23086,-1.796875 0.67682,-0.497125 1.31471,-0.745693 1.91367,-0.745703 1.19192,10e-6 2.18319,0.485166 2.97383,1.455469 0.79061,0.97032 1.18593,2.2461 1.18594,3.827343 -1e-5,1.581254 -0.39533,2.857034 -1.18594,3.827344 -0.79064,0.970313 -1.78191,1.455468 -2.97383,1.455469 -0.59896,-10e-7 -1.23685,-0.248568 -1.91367,-0.745703 -0.44323,-0.323437 -0.85352,-0.922395 -1.23086,-1.796875 m 5.39062,0.763671 c 0.69479,-0.700779 1.04218,-1.868746 1.04219,-3.503906 -1e-5,-1.635149 -0.3474,-2.803117 -1.04219,-3.503906 -0.68881,-0.700772 -1.41654,-1.051162 -2.1832,-1.051172 -0.7487,10e-6 -1.47045,0.3504 -2.16523,1.051172 -0.68881,0.700789 -1.03321,1.868757 -1.03321,3.503906 0,1.63516 0.3444,2.803127 1.03321,3.503906 0.69478,0.700782 1.41653,1.051173 2.16523,1.051172 0.76666,1e-6 1.49439,-0.35039 2.1832,-1.051172"
       style="letter-spacing:0.02em"
       id="path3067"
       inkscape:connector-curvature="0" />
    <path
       d="m 154.06515,50.948158 0,0.521093 -7.63671,0 c -1e-5,1.617191 0.31445,2.749221 0.94336,3.396094 0.69478,0.718751 1.72799,1.078125 3.0996,1.078125 0.35937,0 0.83554,-0.07786 1.42852,-0.233594 0.59895,-0.155728 1.19192,-0.389322 1.77891,-0.700781 l 0,0.871484 c -0.59298,0.251563 -1.20092,0.44323 -1.82383,0.575 -0.62293,0.131771 -1.11707,0.197656 -1.48242,0.197657 -1.55131,-10e-7 -2.71928,-0.419271 -3.50391,-1.257813 -0.85052,-0.892446 -1.27578,-2.201168 -1.27578,-3.926172 0,-1.790878 0.38932,-3.126554 1.16797,-4.007031 0.79661,-0.916396 1.90468,-1.374599 3.32422,-1.374609 1.3177,10e-6 2.31197,0.434254 2.98281,1.302734 0.66483,0.910425 0.99725,2.096361 0.99726,3.557813 m -0.83554,-0.179688 c -1e-5,-1.413534 -0.31746,-2.443742 -0.95235,-3.090625 -0.53308,-0.574991 -1.25782,-0.86249 -2.17421,-0.8625 -1.00027,10e-6 -1.83881,0.299489 -2.51563,0.898438 -0.62292,0.557039 -0.99727,1.575267 -1.12305,3.054687 l 6.76524,0"
       style="letter-spacing:0.01em"
       id="path3069"
       inkscape:connector-curvature="0" />
    <path
       d="m 163.90258,50.319251 0,6.073438 -0.82656,0 0,-6.019531 c -1e-5,-1.305722 -0.20965,-2.225122 -0.62891,-2.758203 -0.41928,-0.533064 -1.03621,-0.7996 -1.85078,-0.79961 -0.95235,10e-6 -1.76693,0.287509 -2.44375,0.8625 -0.68282,0.580998 -1.02422,1.590242 -1.02422,3.027734 l 0,5.68711 -0.82656,0 0,-10.0625 0.82656,0 0,1.886719 c 0.29349,-0.610929 0.67981,-1.078116 1.15898,-1.401563 0.70677,-0.485146 1.48841,-0.727724 2.34493,-0.727734 0.99426,10e-6 1.78788,0.338421 2.38086,1.015234 0.59295,0.670842 0.88944,1.742976 0.88945,3.216406"
       style="letter-spacing:0.02em"
       id="path3071"
       inkscape:connector-curvature="0" />
    <path
       d="m 178.99407,48.630189 0,-6.217187 0.8086,0 0,13.979687 -0.8086,0 0,-2.282031 c -0.37735,0.87448 -0.78764,1.473438 -1.23086,1.796875 -0.67683,0.497135 -1.31472,0.745702 -1.91367,0.745703 -1.19193,-10e-7 -2.18321,-0.485156 -2.97383,-1.455469 -0.79062,-0.97031 -1.18594,-2.24609 -1.18593,-3.827344 -1e-5,-1.581243 0.39531,-2.857023 1.18593,-3.827343 0.79062,-0.970303 1.7819,-1.455459 2.97383,-1.455469 0.59895,10e-6 1.23684,0.248578 1.91367,0.745703 0.44322,0.323447 0.85351,0.922404 1.23086,1.796875 m -5.39062,-0.763672 c -0.6948,0.700789 -1.04219,1.868757 -1.04219,3.503906 0,1.63516 0.34739,2.803127 1.04219,3.503906 0.6888,0.700782 1.41653,1.051173 2.1832,1.051172 0.74869,1e-6 1.47044,-0.35039 2.16524,-1.051172 0.68879,-0.700779 1.03319,-1.868746 1.0332,-3.503906 -1e-5,-1.635149 -0.34441,-2.803117 -1.0332,-3.503906 -0.6948,-0.700772 -1.41655,-1.051162 -2.16524,-1.051172 -0.76667,10e-6 -1.4944,0.3504 -2.1832,1.051172"
       style="letter-spacing:0em"
       id="path3073"
       inkscape:connector-curvature="0" />
    <path
       d="m 186.3268,50.714564 c -1.32969,6e-6 -2.28803,0.236594 -2.875,0.709765 -0.58698,0.473182 -0.88047,1.164978 -0.88047,2.075391 0,0.88646 0.24257,1.515366 0.72773,1.886719 0.48516,0.371355 1.06016,0.557031 1.725,0.557031 1.25781,0 2.16224,-0.533072 2.71328,-1.599219 0.55703,-1.066142 0.83554,-2.069397 0.83555,-3.009765 l 0,-0.619922 -2.24609,0 m 3.08164,-0.06289 0,5.741016 -0.81758,0 0,-2.73125 c -0.46121,1.335678 -1.07214,2.186198 -1.83281,2.551562 -0.60496,0.29349 -1.20691,0.440234 -1.80586,0.440235 -1.00027,-10e-7 -1.7879,-0.266537 -2.36289,-0.79961 -0.575,-0.539061 -0.8625,-1.329685 -0.8625,-2.371875 0,-1.042183 0.37434,-1.874734 1.12304,-2.497656 0.7487,-0.6289 1.97357,-0.943353 3.67461,-0.943359 l 2.04844,0 0,-0.161719 c -1e-5,-0.89244 -0.25456,-1.626164 -0.76367,-2.201172 -0.50313,-0.574991 -1.33568,-0.86249 -2.49766,-0.8625 -0.575,1e-5 -1.16198,0.107822 -1.76093,0.323438 -0.38334,0.137769 -0.88048,0.416285 -1.49141,0.835547 l 0,-0.889454 c 0.53307,-0.329417 1.0302,-0.563011 1.49141,-0.700781 0.67082,-0.197646 1.3147,-0.296474 1.93164,-0.296484 1.18593,1e-5 2.16223,0.359385 2.9289,1.078125 0.66484,0.616935 0.99726,1.778913 0.99727,3.485937"
       style="letter-spacing:0em"
       id="path3075"
       inkscape:connector-curvature="0" />
    <path
       d="m 192.83329,43.473158 0,2.857031 3.40507,0 0,0.700781 -3.40507,0 0,6.046484 c -1e-5,0.76667 0.0988,1.302737 0.29648,1.608204 0.40729,0.670834 1.00026,1.00625 1.77891,1.00625 l 1.32968,0 0,0.700781 -1.28476,0 c -0.82058,0 -1.51836,-0.239583 -2.09336,-0.71875 -0.575,-0.479166 -0.8625,-1.34466 -0.8625,-2.596485 l 0,-6.046484 -1.20391,0 0,-0.700781 1.20391,0 0,-2.857031 0.83555,0"
       style="letter-spacing:0.01em"
       id="path3077"
       inkscape:connector-curvature="0" />
    <path
       d="m 202.2968,50.714564 c -1.32969,6e-6 -2.28803,0.236594 -2.875,0.709765 -0.58698,0.473182 -0.88047,1.164978 -0.88047,2.075391 0,0.88646 0.24258,1.515366 0.72773,1.886719 0.48516,0.371355 1.06016,0.557031 1.725,0.557031 1.25781,0 2.16224,-0.533072 2.71329,-1.599219 0.55702,-1.066142 0.83553,-2.069397 0.83554,-3.009765 l 0,-0.619922 -2.24609,0 m 3.08164,-0.06289 0,5.741016 -0.81758,0 0,-2.73125 c -0.4612,1.335678 -1.07214,2.186198 -1.83281,2.551562 -0.60496,0.29349 -1.20691,0.440234 -1.80586,0.440235 -1.00026,-10e-7 -1.78789,-0.266537 -2.36289,-0.79961 -0.575,-0.539061 -0.8625,-1.329685 -0.8625,-2.371875 0,-1.042183 0.37435,-1.874734 1.12305,-2.497656 0.74869,-0.6289 1.97356,-0.943353 3.6746,-0.943359 l 2.04844,0 0,-0.161719 c -1e-5,-0.89244 -0.25456,-1.626164 -0.76367,-2.201172 -0.50313,-0.574991 -1.33568,-0.86249 -2.49766,-0.8625 -0.575,1e-5 -1.16198,0.107822 -1.76093,0.323438 -0.38334,0.137769 -0.88047,0.416285 -1.49141,0.835547 l 0,-0.889454 c 0.53307,-0.329417 1.03021,-0.563011 1.49141,-0.700781 0.67083,-0.197646 1.31471,-0.296474 1.93164,-0.296484 1.18593,1e-5 2.16223,0.359385 2.9289,1.078125 0.66484,0.616935 0.99726,1.778913 0.99727,3.485937"
       style="letter-spacing:0.02em"
       id="path3079"
       inkscape:connector-curvature="0" />
    <path
       d="m 212.05539,46.330189 0.8625,0 3.41406,9.155078 3.40508,-9.155078 0.87148,0 -3.74648,10.0625 -1.06016,0 -3.74648,-10.0625"
       style="letter-spacing:0em"
       id="path3081"
       inkscape:connector-curvature="0" />
    <path
       d="m 227.7754,48.055189 c -0.59298,-0.826553 -1.40157,-1.239834 -2.42578,-1.239844 -1.02423,10e-6 -1.83282,0.410296 -2.42579,1.23086 -0.59896,0.81459 -0.89844,1.916673 -0.89843,3.306249 -1e-5,1.425525 0.29648,2.545576 0.88945,3.360157 0.59296,0.820573 1.40455,1.230859 2.43477,1.230859 1.02421,0 1.8328,-0.410286 2.42578,-1.230859 0.59895,-0.82656 0.89843,-1.946611 0.89843,-3.360157 0,-1.371608 -0.29948,-2.470695 -0.89843,-3.297265 m -2.43477,-1.967578 c 1.28176,10e-6 2.294,0.479176 3.03672,1.4375 0.74869,0.964331 1.12304,2.243105 1.12305,3.836328 -1e-5,1.647139 -0.37436,2.946877 -1.12305,3.899219 -0.74272,0.958333 -1.75496,1.437499 -3.03672,1.437499 -1.29375,0 -2.31498,-0.476171 -3.06367,-1.428515 -0.74271,-0.952342 -1.11406,-2.255075 -1.11406,-3.908203 0,-1.611191 0.37434,-2.892961 1.12304,-3.845313 0.7487,-0.952333 1.76693,-1.428505 3.05469,-1.428515"
       style="letter-spacing:0.02em"
       id="path3083"
       inkscape:connector-curvature="0" />
    <path
       d="m 238.20539,48.055189 c -0.59298,-0.826553 -1.40157,-1.239834 -2.42578,-1.239844 -1.02423,10e-6 -1.83282,0.410296 -2.42578,1.23086 -0.59896,0.81459 -0.89844,1.916673 -0.89844,3.306249 0,1.425525 0.29648,2.545576 0.88945,3.360157 0.59297,0.820573 1.40456,1.230859 2.43477,1.230859 1.02421,0 1.8328,-0.410286 2.42578,-1.230859 0.59895,-0.82656 0.89843,-1.946611 0.89844,-3.360157 -10e-6,-1.371608 -0.29949,-2.470695 -0.89844,-3.297265 m -2.43477,-1.967578 c 1.28177,10e-6 2.29401,0.479176 3.03672,1.4375 0.74869,0.964331 1.12304,2.243105 1.12305,3.836328 -10e-6,1.647139 -0.37436,2.946877 -1.12305,3.899219 -0.74271,0.958333 -1.75495,1.437499 -3.03672,1.437499 -1.29375,0 -2.31497,-0.476171 -3.06367,-1.428515 -0.74271,-0.952342 -1.11406,-2.255075 -1.11406,-3.908203 0,-1.611191 0.37435,-2.892961 1.12305,-3.845313 0.74869,-0.952333 1.76692,-1.428505 3.05468,-1.428515"
       style="letter-spacing:0.01em"
       id="path3085"
       inkscape:connector-curvature="0" />
    <path
       d="m 247.9343,47.039955 c -0.13178,-0.06588 -0.31147,-0.122777 -0.53907,-0.170704 -0.20365,-0.03593 -0.4612,-0.0539 -0.77265,-0.05391 -1.01824,1e-5 -1.86277,0.377353 -2.5336,1.132031 -0.52708,0.610946 -0.79062,1.659122 -0.79062,3.144532 l 0,5.300781 -0.8086,0 0,-10.0625 0.8086,0 0,1.886719 c 0.26953,-0.539054 0.64687,-0.994262 1.13203,-1.365625 0.67083,-0.509105 1.46145,-0.763662 2.37187,-0.763672 0.23359,1e-5 0.43724,0.009 0.61094,0.02695 0.17968,1e-5 0.35338,0.02097 0.5211,0.06289 l 0,0.8625"
       style="letter-spacing:0.02em"
       id="path3087"
       inkscape:connector-curvature="0" />
    <path
       d="m 261.36407,48.630189 0,-6.217187 0.80859,0 0,13.979687 -0.80859,0 0,-2.282031 c -0.37735,0.87448 -0.78764,1.473438 -1.23086,1.796875 -0.67683,0.497135 -1.31472,0.745702 -1.91367,0.745703 -1.19193,-10e-7 -2.18321,-0.485156 -2.97383,-1.455469 -0.79063,-0.97031 -1.18594,-2.24609 -1.18594,-3.827344 0,-1.581243 0.39531,-2.857023 1.18594,-3.827343 0.79062,-0.970303 1.7819,-1.455459 2.97383,-1.455469 0.59895,10e-6 1.23684,0.248578 1.91367,0.745703 0.44322,0.323447 0.85351,0.922404 1.23086,1.796875 m -5.39063,-0.763672 c -0.69479,0.700789 -1.04219,1.868757 -1.04218,3.503906 -1e-5,1.63516 0.34739,2.803127 1.04218,3.503906 0.6888,0.700782 1.41653,1.051173 2.18321,1.051172 0.74869,1e-6 1.47043,-0.35039 2.16523,-1.051172 0.68879,-0.700779 1.03319,-1.868746 1.0332,-3.503906 -10e-6,-1.635149 -0.34441,-2.803117 -1.0332,-3.503906 -0.6948,-0.700772 -1.41654,-1.051162 -2.16523,-1.051172 -0.76668,10e-6 -1.49441,0.3504 -2.18321,1.051172"
       style="letter-spacing:0em"
       id="path3089"
       inkscape:connector-curvature="0" />
    <path
       d="m 264.56384,46.330189 0.82657,0 0,10.0625 -0.82657,0 0,-10.0625 m 0,-3.917187 0.82657,0 0,1.132031 -0.82657,0 0,-1.132031"
       style="letter-spacing:0em"
       id="path3091"
       inkscape:connector-curvature="0" />
    <path
       d="m 275.70619,51.244642 c -10e-6,-1.395566 -0.28451,-2.476685 -0.85352,-3.243359 -0.56302,-0.772647 -1.35664,-1.158975 -2.38086,-1.158985 -1.01224,1e-5 -1.80286,0.386338 -2.37187,1.158985 -0.56302,0.766674 -0.84453,1.847793 -0.84453,3.243359 0,1.389587 0.28151,2.470706 0.84453,3.243359 0.56901,0.766668 1.35963,1.150001 2.37187,1.15 1.02422,10e-7 1.81784,-0.383332 2.38086,-1.15 0.56901,-0.772653 0.85351,-1.853772 0.85352,-3.243359 m 0.82656,3.899219 c -1e-5,2.090363 -0.39832,3.458982 -1.19492,4.105859 -0.79662,0.646871 -1.80587,0.970309 -3.02773,0.970312 -0.581,-3e-6 -1.12905,-0.04193 -1.64415,-0.125781 -0.5151,-0.08985 -1.01523,-0.224613 -1.50039,-0.404297 l 0,-0.943359 c 0.48516,0.263539 0.96432,0.4582 1.4375,0.583984 0.47318,0.125778 0.95534,0.188669 1.44649,0.188672 1.00025,-3e-6 1.85976,-0.212633 2.57851,-0.63789 0.71875,-0.425263 1.07812,-1.572267 1.07813,-3.441016 l 0,-1.572266 c -0.24558,0.688804 -0.58399,1.230861 -1.01524,1.626172 -0.65886,0.604948 -1.39857,0.904427 -2.21914,0.898438 -1.27578,0 -2.27005,-0.449219 -2.98281,-1.347656 -0.71276,-0.904425 -1.06914,-2.174216 -1.06914,-3.809375 0,-1.62916 0.35638,-2.892961 1.06914,-3.791407 0.71276,-0.904417 1.70703,-1.35663 2.98281,-1.35664 0.81458,10e-6 1.51536,0.257562 2.10235,0.772656 0.4552,0.401311 0.83254,0.937378 1.13203,1.608203 l 0,-2.138281 0.82656,0 0,8.813672"
       style="letter-spacing:0.01em"
       id="path3093"
       inkscape:connector-curvature="0" />
    <path
       d="m 278.93384,46.330189 0.82656,0 0,10.0625 -0.82656,0 0,-10.0625 m 0,-3.917187 0.82656,0 0,1.132031 -0.82656,0 0,-1.132031"
       style="letter-spacing:0.01em"
       id="path3095"
       inkscape:connector-curvature="0" />
    <path
       d="m 284.4233,43.473158 0,2.857031 3.40508,0 0,0.700781 -3.40508,0 0,6.046484 c -10e-6,0.76667 0.0988,1.302737 0.29648,1.608204 0.40729,0.670834 1.00026,1.00625 1.77891,1.00625 l 1.32969,0 0,0.700781 -1.28477,0 c -0.82058,0 -1.51836,-0.239583 -2.09336,-0.71875 -0.575,-0.479166 -0.8625,-1.34466 -0.8625,-2.596485 l 0,-6.046484 -1.20391,0 0,-0.700781 1.20391,0 0,-2.857031 0.83555,0"
       style="letter-spacing:0.01em"
       id="path3097"
       inkscape:connector-curvature="0" />
    <path
       d="m 293.89682,50.714564 c -1.32969,6e-6 -2.28802,0.236594 -2.875,0.709765 -0.58698,0.473182 -0.88047,1.164978 -0.88047,2.075391 0,0.88646 0.24258,1.515366 0.72774,1.886719 0.48515,0.371355 1.06015,0.557031 1.725,0.557031 1.2578,0 2.16223,-0.533072 2.71328,-1.599219 0.55702,-1.066142 0.83554,-2.069397 0.83554,-3.009765 l 0,-0.619922 -2.24609,0 m 3.08164,-0.06289 0,5.741016 -0.81758,0 0,-2.73125 c -0.4612,1.335678 -1.07214,2.186198 -1.83281,2.551562 -0.60495,0.29349 -1.20691,0.440234 -1.80586,0.440235 -1.00026,-10e-7 -1.78789,-0.266537 -2.36289,-0.79961 -0.575,-0.539061 -0.8625,-1.329685 -0.8625,-2.371875 0,-1.042183 0.37435,-1.874734 1.12305,-2.497656 0.74869,-0.6289 1.97356,-0.943353 3.67461,-0.943359 l 2.04843,0 0,-0.161719 c 0,-0.89244 -0.25456,-1.626164 -0.76367,-2.201172 -0.50313,-0.574991 -1.33568,-0.86249 -2.49765,-0.8625 -0.57501,1e-5 -1.16199,0.107822 -1.76094,0.323438 -0.38334,0.137769 -0.88047,0.416285 -1.49141,0.835547 l 0,-0.889454 c 0.53307,-0.329417 1.03021,-0.563011 1.49141,-0.700781 0.67083,-0.197646 1.31471,-0.296474 1.93164,-0.296484 1.18593,1e-5 2.16223,0.359385 2.9289,1.078125 0.66484,0.616935 0.99726,1.778913 0.99727,3.485937"
       style="letter-spacing:0.01em"
       id="path3099"
       inkscape:connector-curvature="0" />
    <path
       d="m 299.75179,42.413002 0.82657,0 0,13.979687 -0.82657,0 0,-13.979687"
       id="path3101"
       inkscape:connector-curvature="0" />
    <path
       d="m 312.44516,50.948158 0,0.521093 -7.63672,0 c 0,1.617191 0.31445,2.749221 0.94336,3.396094 0.69479,0.718751 1.72799,1.078125 3.09961,1.078125 0.35937,0 0.83554,-0.07786 1.42852,-0.233594 0.59895,-0.155728 1.19191,-0.389322 1.7789,-0.700781 l 0,0.871484 c -0.59298,0.251563 -1.20092,0.44323 -1.82383,0.575 -0.62292,0.131771 -1.11706,0.197656 -1.48242,0.197657 -1.55131,-10e-7 -2.71927,-0.419271 -3.5039,-1.257813 -0.85053,-0.892446 -1.27579,-2.201168 -1.27579,-3.926172 0,-1.790878 0.38933,-3.126554 1.16797,-4.007031 0.79661,-0.916396 1.90469,-1.374599 3.32422,-1.374609 1.3177,10e-6 2.31197,0.434254 2.98281,1.302734 0.66484,0.910425 0.99726,2.096361 0.99727,3.557813 m -0.83555,-0.179688 c -10e-6,-1.413534 -0.31745,-2.443742 -0.95234,-3.090625 -0.53308,-0.574991 -1.25782,-0.86249 -2.17422,-0.8625 -1.00026,10e-6 -1.83881,0.299489 -2.51562,0.898438 -0.62292,0.557039 -0.99727,1.575267 -1.12305,3.054687 l 6.76523,0"
       style="letter-spacing:0.02em"
       id="path3103"
       inkscape:connector-curvature="0" />
    <path
       d="m 320.4933,43.473158 0,2.857031 3.40508,0 0,0.700781 -3.40508,0 0,6.046484 c 0,0.76667 0.0988,1.302737 0.29649,1.608204 0.40729,0.670834 1.00025,1.00625 1.7789,1.00625 l 1.32969,0 0,0.700781 -1.28476,0 c -0.82058,0 -1.51837,-0.239583 -2.09336,-0.71875 -0.575,-0.479166 -0.8625,-1.34466 -0.8625,-2.596485 l 0,-6.046484 -1.20391,0 0,-0.700781 1.20391,0 0,-2.857031 0.83554,0"
       style="letter-spacing:0em"
       id="path3105"
       inkscape:connector-curvature="0" />
    <path
       d="m 331.24429,47.039955 c -0.13178,-0.06588 -0.31146,-0.122777 -0.53906,-0.170704 -0.20365,-0.03593 -0.4612,-0.0539 -0.77266,-0.05391 -1.01823,1e-5 -1.86276,0.377353 -2.53359,1.132031 -0.52709,0.610946 -0.79063,1.659122 -0.79062,3.144532 l 0,5.300781 -0.8086,0 0,-10.0625 0.8086,0 0,1.886719 c 0.26952,-0.539054 0.64687,-0.994262 1.13203,-1.365625 0.67083,-0.509105 1.46145,-0.763662 2.37187,-0.763672 0.23359,1e-5 0.43723,0.009 0.61094,0.02695 0.17968,1e-5 0.35338,0.02097 0.52109,0.06289 l 0,0.8625"
       style="letter-spacing:0.02em"
       id="path3107"
       inkscape:connector-curvature="0" />
    <path
       d="m 336.76682,50.714564 c -1.3297,6e-6 -2.28803,0.236594 -2.875,0.709765 -0.58699,0.473182 -0.88048,1.164978 -0.88047,2.075391 -10e-6,0.88646 0.24257,1.515366 0.72773,1.886719 0.48515,0.371355 1.06015,0.557031 1.725,0.557031 1.25781,0 2.16223,-0.533072 2.71328,-1.599219 0.55703,-1.066142 0.83554,-2.069397 0.83555,-3.009765 l 0,-0.619922 -2.24609,0 m 3.08164,-0.06289 0,5.741016 -0.81758,0 0,-2.73125 c -0.46121,1.335678 -1.07215,2.186198 -1.83281,2.551562 -0.60496,0.29349 -1.20691,0.440234 -1.80586,0.440235 -1.00027,-10e-7 -1.7879,-0.266537 -2.36289,-0.79961 -0.57501,-0.539061 -0.86251,-1.329685 -0.8625,-2.371875 -10e-6,-1.042183 0.37434,-1.874734 1.12304,-2.497656 0.7487,-0.6289 1.97357,-0.943353 3.67461,-0.943359 l 2.04844,0 0,-0.161719 c -10e-6,-0.89244 -0.25457,-1.626164 -0.76367,-2.201172 -0.50314,-0.574991 -1.33569,-0.86249 -2.49766,-0.8625 -0.575,1e-5 -1.16198,0.107822 -1.76094,0.323438 -0.38333,0.137769 -0.88047,0.416285 -1.4914,0.835547 l 0,-0.889454 c 0.53307,-0.329417 1.0302,-0.563011 1.4914,-0.700781 0.67083,-0.197646 1.31471,-0.296474 1.93164,-0.296484 1.18593,1e-5 2.16224,0.359385 2.92891,1.078125 0.66483,0.616935 0.99726,1.778913 0.99727,3.485937"
       style="letter-spacing:0.01em"
       id="path3109"
       inkscape:connector-curvature="0" />
    <path
       d="m 350.2226,50.319251 0,6.073438 -0.82656,0 0,-6.019531 c -1e-5,-1.305722 -0.20965,-2.225122 -0.62891,-2.758203 -0.41928,-0.533064 -1.0362,-0.7996 -1.85078,-0.79961 -0.95235,10e-6 -1.76693,0.287509 -2.44375,0.8625 -0.68281,0.580998 -1.02422,1.590242 -1.02422,3.027734 l 0,5.68711 -0.82656,0 0,-10.0625 0.82656,0 0,1.886719 c 0.29349,-0.610929 0.67982,-1.078116 1.15899,-1.401563 0.70676,-0.485146 1.4884,-0.727724 2.34492,-0.727734 0.99426,10e-6 1.78788,0.338421 2.38086,1.015234 0.59296,0.670842 0.88944,1.742976 0.88945,3.216406"
       style="letter-spacing:0em"
       id="path3111"
       inkscape:connector-curvature="0" />
    <path
       d="m 358.7679,46.626673 0,0.907422 c -0.581,-0.323428 -0.94337,-0.503115 -1.08711,-0.539062 -0.41928,-0.101814 -0.94037,-0.161709 -1.56329,-0.179688 -0.94635,10e-6 -1.68906,0.188681 -2.22812,0.566016 -0.41328,0.311467 -0.61992,0.844539 -0.61992,1.599219 0,0.509121 0.19466,0.907428 0.58398,1.194921 0.41328,0.311465 1.00325,0.551048 1.76992,0.71875 l 0.56602,0.125782 c 0.95234,0.20964 1.67408,0.506124 2.16523,0.889453 0.56901,0.437243 0.86849,1.006253 0.89844,1.707031 -10e-6,0.952345 -0.28152,1.698048 -0.84453,2.237109 -0.59896,0.533073 -1.56329,0.799609 -2.89297,0.79961 -0.74271,-10e-7 -1.30573,-0.05091 -1.68906,-0.152735 -0.4612,-0.131771 -0.94636,-0.290494 -1.45547,-0.476172 l 0,-1.033203 c 0.73073,0.419272 1.2039,0.658855 1.41953,0.71875 0.59297,0.15573 1.17995,0.233594 1.76094,0.233594 0.97031,0 1.68606,-0.20065 2.14726,-0.601953 0.46719,-0.40729 0.70078,-0.940363 0.70079,-1.599219 -10e-6,-0.551038 -0.15574,-0.95234 -0.46719,-1.203906 -0.44923,-0.359371 -1.16498,-0.65286 -2.14727,-0.880469 l -0.575,-0.134765 c -0.84453,-0.197652 -1.48841,-0.476167 -1.93164,-0.835547 -0.55703,-0.449213 -0.83555,-0.994264 -0.83554,-1.635156 -1e-5,-1.054159 0.33541,-1.81184 1.00625,-2.273047 0.67083,-0.461188 1.49439,-0.691787 2.4707,-0.691797 0.83254,10e-6 1.40754,0.04493 1.725,0.134765 0.38332,0.107823 0.75767,0.242589 1.12305,0.404297"
       style="letter-spacing:0em"
       id="path3113"
       inkscape:connector-curvature="0" />
    <path
       d="m 362.67836,54.110658 0,6.109374 -0.80859,0 0,-13.889843 0.80859,0 0,2.3 c 0.37734,-0.874471 0.78763,-1.473428 1.23086,-1.796875 0.67682,-0.497125 1.31471,-0.745693 1.91367,-0.745703 1.19192,10e-6 2.1832,0.485166 2.97383,1.455469 0.79062,0.97032 1.18593,2.2461 1.18594,3.827343 -1e-5,1.581254 -0.39532,2.857034 -1.18594,3.827344 -0.79063,0.970313 -1.78191,1.455468 -2.97383,1.455469 -0.59896,-10e-7 -1.23685,-0.248568 -1.91367,-0.745703 -0.44323,-0.323437 -0.85352,-0.922395 -1.23086,-1.796875 m 5.39063,0.763671 c 0.69478,-0.700779 1.04218,-1.868746 1.04219,-3.503906 -10e-6,-1.635149 -0.34741,-2.803117 -1.04219,-3.503906 -0.68881,-0.700772 -1.41655,-1.051162 -2.18321,-1.051172 -0.7487,10e-6 -1.47044,0.3504 -2.16523,1.051172 -0.6888,0.700789 -1.03321,1.868757 -1.0332,3.503906 -10e-6,1.63516 0.3444,2.803127 1.0332,3.503906 0.69479,0.700782 1.41653,1.051173 2.16523,1.051172 0.76666,1e-6 1.4944,-0.35039 2.18321,-1.051172"
       style="letter-spacing:0.01em"
       id="path3115"
       inkscape:connector-curvature="0" />
    <path
       d="m 376.67682,50.714564 c -1.32969,6e-6 -2.28803,0.236594 -2.875,0.709765 -0.58698,0.473182 -0.88047,1.164978 -0.88047,2.075391 0,0.88646 0.24258,1.515366 0.72773,1.886719 0.48516,0.371355 1.06016,0.557031 1.725,0.557031 1.25781,0 2.16224,-0.533072 2.71329,-1.599219 0.55702,-1.066142 0.83553,-2.069397 0.83554,-3.009765 l 0,-0.619922 -2.24609,0 m 3.08164,-0.06289 0,5.741016 -0.81758,0 0,-2.73125 c -0.4612,1.335678 -1.07214,2.186198 -1.83281,2.551562 -0.60496,0.29349 -1.20691,0.440234 -1.80586,0.440235 -1.00026,-10e-7 -1.78789,-0.266537 -2.36289,-0.79961 -0.575,-0.539061 -0.8625,-1.329685 -0.8625,-2.371875 0,-1.042183 0.37435,-1.874734 1.12305,-2.497656 0.74869,-0.6289 1.97356,-0.943353 3.6746,-0.943359 l 2.04844,0 0,-0.161719 c -10e-6,-0.89244 -0.25456,-1.626164 -0.76367,-2.201172 -0.50313,-0.574991 -1.33568,-0.86249 -2.49766,-0.8625 -0.575,1e-5 -1.16198,0.107822 -1.76093,0.323438 -0.38334,0.137769 -0.88047,0.416285 -1.49141,0.835547 l 0,-0.889454 c 0.53307,-0.329417 1.03021,-0.563011 1.49141,-0.700781 0.67083,-0.197646 1.31471,-0.296474 1.93164,-0.296484 1.18593,1e-5 2.16223,0.359385 2.9289,1.078125 0.66484,0.616935 0.99726,1.778913 0.99727,3.485937"
       style="letter-spacing:0.01em"
       id="path3117"
       inkscape:connector-curvature="0" />
    <path
       d="m 387.99432,47.039955 c -0.13177,-0.06588 -0.31146,-0.122777 -0.53906,-0.170704 -0.20365,-0.03593 -0.4612,-0.0539 -0.77266,-0.05391 -1.01823,1e-5 -1.86276,0.377353 -2.53359,1.132031 -0.52709,0.610946 -0.79063,1.659122 -0.79062,3.144532 l 0,5.300781 -0.8086,0 0,-10.0625 0.8086,0 0,1.886719 c 0.26952,-0.539054 0.64687,-0.994262 1.13203,-1.365625 0.67083,-0.509105 1.46145,-0.763662 2.37187,-0.763672 0.23359,1e-5 0.43724,0.009 0.61094,0.02695 0.17968,1e-5 0.35338,0.02097 0.52109,0.06289 l 0,0.8625"
       style="letter-spacing:0.02em"
       id="path3119"
       inkscape:connector-curvature="0" />
    <path
       d="m 393.50681,50.714564 c -1.3297,6e-6 -2.28803,0.236594 -2.875,0.709765 -0.58699,0.473182 -0.88048,1.164978 -0.88047,2.075391 -1e-5,0.88646 0.24257,1.515366 0.72773,1.886719 0.48515,0.371355 1.06015,0.557031 1.725,0.557031 1.25781,0 2.16223,-0.533072 2.71328,-1.599219 0.55703,-1.066142 0.83554,-2.069397 0.83555,-3.009765 l 0,-0.619922 -2.24609,0 m 3.08164,-0.06289 0,5.741016 -0.81758,0 0,-2.73125 c -0.46121,1.335678 -1.07214,2.186198 -1.83281,2.551562 -0.60496,0.29349 -1.20691,0.440234 -1.80586,0.440235 -1.00027,-10e-7 -1.7879,-0.266537 -2.36289,-0.79961 -0.57501,-0.539061 -0.86251,-1.329685 -0.8625,-2.371875 -1e-5,-1.042183 0.37434,-1.874734 1.12304,-2.497656 0.7487,-0.6289 1.97357,-0.943353 3.67461,-0.943359 l 2.04844,0 0,-0.161719 c -1e-5,-0.89244 -0.25457,-1.626164 -0.76367,-2.201172 -0.50313,-0.574991 -1.33569,-0.86249 -2.49766,-0.8625 -0.575,1e-5 -1.16198,0.107822 -1.76094,0.323438 -0.38333,0.137769 -0.88047,0.416285 -1.4914,0.835547 l 0,-0.889454 c 0.53307,-0.329417 1.0302,-0.563011 1.4914,-0.700781 0.67083,-0.197646 1.31471,-0.296474 1.93164,-0.296484 1.18594,1e-5 2.16224,0.359385 2.92891,1.078125 0.66484,0.616935 0.99726,1.778913 0.99727,3.485937"
       style="letter-spacing:0.01em"
       id="path3121"
       inkscape:connector-curvature="0" />
    <path
       d="m 406.96259,50.319251 0,6.073438 -0.82656,0 0,-6.019531 c -1e-5,-1.305722 -0.20965,-2.225122 -0.62891,-2.758203 -0.41928,-0.533064 -1.0362,-0.7996 -1.85078,-0.79961 -0.95235,10e-6 -1.76693,0.287509 -2.44375,0.8625 -0.68281,0.580998 -1.02422,1.590242 -1.02422,3.027734 l 0,5.68711 -0.82656,0 0,-10.0625 0.82656,0 0,1.886719 c 0.29349,-0.610929 0.67982,-1.078116 1.15899,-1.401563 0.70676,-0.485146 1.4884,-0.727724 2.34492,-0.727734 0.99426,10e-6 1.78788,0.338421 2.38086,1.015234 0.59296,0.670842 0.88944,1.742976 0.88945,3.216406"
       style="letter-spacing:0em"
       id="path3123"
       inkscape:connector-curvature="0" />
    <path
       d="m 410.54329,43.473158 0,2.857031 3.40508,0 0,0.700781 -3.40508,0 0,6.046484 c 0,0.76667 0.0988,1.302737 0.29649,1.608204 0.40728,0.670834 1.00025,1.00625 1.7789,1.00625 l 1.32969,0 0,0.700781 -1.28477,0 c -0.82057,0 -1.51836,-0.239583 -2.09335,-0.71875 -0.57501,-0.479166 -0.86251,-1.34466 -0.8625,-2.596485 l 0,-6.046484 -1.20391,0 0,-0.700781 1.20391,0 0,-2.857031 0.83554,0"
       id="path3125"
       inkscape:connector-curvature="0" />
    <path
       d="m 415.81384,46.330189 0.82657,0 0,10.0625 -0.82657,0 0,-10.0625 m 0,-3.917187 0.82657,0 0,1.132031 -0.82657,0 0,-1.132031"
       style="letter-spacing:0em"
       id="path3127"
       inkscape:connector-curvature="0" />
    <path
       d="m 428.23517,50.948158 0,0.521093 -7.63672,0 c 0,1.617191 0.31445,2.749221 0.94336,3.396094 0.69479,0.718751 1.72799,1.078125 3.09961,1.078125 0.35937,0 0.83554,-0.07786 1.42851,-0.233594 0.59895,-0.155728 1.19192,-0.389322 1.77891,-0.700781 l 0,0.871484 c -0.59298,0.251563 -1.20092,0.44323 -1.82383,0.575 -0.62292,0.131771 -1.11706,0.197656 -1.48242,0.197657 -1.55131,-10e-7 -2.71927,-0.419271 -3.50391,-1.257813 -0.85052,-0.892446 -1.27578,-2.201168 -1.27578,-3.926172 0,-1.790878 0.38932,-3.126554 1.16797,-4.007031 0.79661,-0.916396 1.90468,-1.374599 3.32422,-1.374609 1.3177,10e-6 2.31197,0.434254 2.98281,1.302734 0.66484,0.910425 0.99726,2.096361 0.99727,3.557813 m -0.83555,-0.179688 c -1e-5,-1.413534 -0.31746,-2.443742 -0.95234,-3.090625 -0.53308,-0.574991 -1.25782,-0.86249 -2.17422,-0.8625 -1.00027,10e-6 -1.83881,0.299489 -2.51563,0.898438 -0.62292,0.557039 -0.99726,1.575267 -1.12304,3.054687 l 6.76523,0"
       id="path3129"
       inkscape:connector-curvature="0" />
  </g>
</svg>
