<svg id="Layer_1" data-name="Layer 1" xmlns="http://www.w3.org/2000/svg" viewBox="0 0 105 130"><defs><style>.cls-1{fill:#9f3493;}.cls-2,.cls-3,.cls-4,.cls-5,.cls-6{fill:#5c5276;}.cls-3,.cls-4,.cls-5,.cls-6{font-size:14.52px;font-family:IBMPlexMono-SemiBoldItalic, IBM Plex Mono SemiBold;font-weight:600;font-style:italic;}.cls-3{letter-spacing:-0.02em;}.cls-4{letter-spacing:-0.04em;}.cls-5{letter-spacing:-0.02em;}</style></defs><title>OSF-Icon-besluiten</title><path class="cls-1" d="M67.47,20.23a4.92,4.92,0,0,0,0-6.93l-4.6-4.21A4.89,4.89,0,0,0,56,9.72L31.31,41.45a4.44,4.44,0,0,0,0,6.24l4.15,3.79a4.39,4.39,0,0,0,6.19-.57L66.27,21.5l1.2-1.27Z"/><path class="cls-2" d="M68.31,23.3,44.51,51.43l5.45,5L35.23,72.66l-1-.94a5.85,5.85,0,0,0-8.26.75L1.79,100.79l14.92,13.63,25.8-26.81a5.9,5.9,0,0,0,0-8.32l-1-1L56.18,62.08l5.46,5,25.7-26.39-19-17.38Z"/><path class="cls-1" d="M102,44.84l-4.61-4.21a4.88,4.88,0,0,0-6.88.63l-1.15,1.26h0l-26.62,27,0,0-.32.35a4.43,4.43,0,0,0,0,6.24l4.14,3.79a4.41,4.41,0,0,0,6.2-.57L102,51.78a4.93,4.93,0,0,0,0-6.94Z"/></svg>
