<svg id="Layer_1" data-name="Layer 1" xmlns="http://www.w3.org/2000/svg" viewBox="0 0 300 300"><defs><style>.cls-1{fill:#5c5276;}.cls-2{fill:#bdd3e2;}.cls-3{fill:#9f3493;}</style></defs><title>OSF-Icon-hergebruik-l</title><path class="cls-1" d="M75,97l.88,17.22c.33,6.54,15,11.79,32.86,11.79s32.47-5.25,32.72-11.79L142.14,97c-7.37,5.63-20.49,8.23-33.5,8.23S82.47,102.61,75,97Z"/><path class="cls-1" d="M73.59,68.52l.94,18.53c.35,7,15.61,12.66,34.07,12.66s33.65-5.64,33.91-12.66l.7-18.53c-7.65,6.07-21.26,8.86-34.75,8.86s-27.14-2.79-34.87-8.86Z"/><path class="cls-2" d="M108.18,34.64c-18.52,0-33.54,5.59-35.4,12.67,2.53,6.95,17.61,12.27,35.56,12.27s33-5.32,35.4-12.27c-2-7.08-17-12.67-35.56-12.67Z"/><path class="cls-1" d="M108.34,59.58c-18,0-33-5.32-35.56-12.27a5.8,5.8,0,0,0-.18,1.76L73,57.83c.39,7.57,16.23,13.63,35.38,13.63s34.91-6.06,35.2-13.63l.33-8.76a5.82,5.82,0,0,0-.21-1.76c-2.44,6.95-17.44,12.27-35.4,12.27Z"/><path class="cls-3" d="M194.84,224.66l-15.16.06a11.1,11.1,0,0,0-9.52,5.71L157,253.5a4.1,4.1,0,0,0,3.85,6.31l43.55-3.74-9.55-31.41Z"/><path class="cls-3" d="M240,224.46l-37.27.16-.26.07,9.17,30.76,14.74-1.27a9,9,0,0,0,7.17-5.42l11.47-24.33-5,0Z"/><path class="cls-3" d="M179.32,219.14l51.39.48v-10.4c0-4.05-2.8-7.49-6.31-7.7L198.62,200l-10.06-11.5L161,186.14l-9-.77v64.41l12.86-22.17a16.76,16.76,0,0,1,14.48-8.47Z"/><path class="cls-2" d="M219.77,152.25,203.59,150c2.43-17.41-1.39-32.93-10.75-43.7-8.85-10.17-22.35-15.54-39-15.54V74.41c21.56,0,39.33,7.31,51.37,21.15,12.51,14.39,17.7,34.53,14.6,56.69Z"/><polygon class="cls-2" points="192.96 139.68 203.06 179.14 232.19 150.67 192.96 139.68 192.96 139.68"/><path class="cls-2" d="M137.1,227.75a60.77,60.77,0,0,1-43.91-18.64A63.9,63.9,0,0,1,75.3,162.3l16.34.47a47.64,47.64,0,0,0,13.27,34.95,44.57,44.57,0,0,0,32.19,13.69v16.34Z"/><polygon class="cls-2" points="103.1 172.94 90.72 134.13 63.3 164.25 103.1 172.94 103.1 172.94"/></svg>