<svg id="Layer_1" data-name="Layer 1" xmlns="http://www.w3.org/2000/svg" viewBox="0 0 105 130"><defs><style>.cls-1{fill:#fff;}</style></defs><title>OSF-Icon-resultaten-hover</title><path class="cls-1" d="M10.18,56,4.23,119l72,9.29,5.89-75L10.18,56Zm56.7,18L37.75,100.52a2.26,2.26,0,0,1-3.19,0L20.45,84.88a2.27,2.27,0,0,1,.29-3.18l5.79-5.29a2.24,2.24,0,0,1,3.18,0l7.87,8.7L59.17,65.41a2.24,2.24,0,0,1,3.18,0l4.82,5.32a2.28,2.28,0,0,1-.29,3.19Z"/><path class="cls-1" d="M84.07,30.11,59.85,32.69C60,26.05,54.64,22.48,48,22.94S36,28.4,35.85,35L11.93,37.49,10.57,51.76l72-4.48,1.5-17.17Zm-33,8c-4.54,4.4-10.64-1-6.48-6.18s11,1.76,6.48,6.18Z"/></svg>