<svg id="Layer_1" data-name="Layer 1" xmlns="http://www.w3.org/2000/svg" viewBox="0 0 100 300"><defs><style>.cls-1{fill:#5c5276;}.cls-2{fill:#eff4f7;}</style></defs><title>OSF-Icon-wijzer-l</title><path class="cls-1" d="M28,249.61a30.81,30.81,0,1,1,43.57,1,30.81,30.81,0,0,1-43.57-1Z"/><path class="cls-1" d="M80.38,221.67,54.68,66.11a.79.79,0,0,0-1.55,0L20.22,221.42a.79.79,0,0,0,.61.94l29.27,5.95a.81.81,0,0,0,.31,0l29.34-5.74a.79.79,0,0,0,.63-.9Z"/><path class="cls-2" d="M50.72,208.45A19.89,19.89,0,1,0,70.14,228.8a19.88,19.88,0,0,0-19.42-20.35Z"/><path class="cls-1" d="M28,249.61a30.81,30.81,0,1,1,43.57,1,30.81,30.81,0,0,1-43.57-1Z"/><path class="cls-1" d="M80.38,221.67,54.68,66.11a.79.79,0,0,0-1.55,0L20.22,221.42a.79.79,0,0,0,.61.94l29.27,5.95a.81.81,0,0,0,.31,0l29.34-5.74a.79.79,0,0,0,.63-.9Z"/><path class="cls-2" d="M50.72,208.45A19.89,19.89,0,1,0,70.14,228.8a19.88,19.88,0,0,0-19.42-20.35Z"/></svg>