<svg id="Layer_1" data-name="Layer 1" xmlns="http://www.w3.org/2000/svg" viewBox="0 0 300 300"><defs><style>.cls-1{fill:#5c5276;}.cls-2{fill:#9f3493;}.cls-3{fill:#bdd3e2;}.cls-4{fill:#fff;}</style></defs><title>OSF-Icon-data-beschikbaar-l</title><path class="cls-1" d="M95.79,258.74c.1,3,2.92,5.44,6.29,5.44H217.91c3.37,0,6.19-2.43,6.29-5.44l.58-16.52H95.21l.58,16.52Zm109-9.57a4.25,4.25,0,0,1,4.5,4.12,4.51,4.51,0,0,1-4.7,4.11,4.26,4.26,0,0,1-4.5-4.11,4.5,4.5,0,0,1,4.7-4.12Zm-12.3,0a4.28,4.28,0,0,1,4.53,4.12,4.47,4.47,0,0,1-4.67,4.11,4.29,4.29,0,0,1-4.53-4.11,4.47,4.47,0,0,1,4.67-4.12Z"/><path class="cls-2" d="M178,139.78a21.73,21.73,0,0,1-.3,3.78,6.63,6.63,0,0,1-.88,2.44,3.39,3.39,0,0,1-1.61,1.34,7.4,7.4,0,0,1-5,0,3.3,3.3,0,0,1-1.59-1.34,6.46,6.46,0,0,1-.85-2.44,21.33,21.33,0,0,1-.25-3.78v-2.14h-9a37.56,37.56,0,0,0,.74,5.84,16.71,16.71,0,0,0,2.57,6.27,10.34,10.34,0,0,0,4.39,3.57,18.39,18.39,0,0,0,12.75,0,10.54,10.54,0,0,0,4.44-3.57,17.08,17.08,0,0,0,2.66-6.27,38.27,38.27,0,0,0,.81-5.84h-9l0,2.14Z"/><path class="cls-2" d="M170,197.17c0-2.81.39-4.78,1.13-5.9s2.07-1.68,4-1.68,3.25.56,4,1.68,1.06,3.09,1,5.9l-.09,8.73h8.62c.09-1.09.14-2.25.16-3.48a41.06,41.06,0,0,0-.67-8.74,15.7,15.7,0,0,0-2.44-6,9.9,9.9,0,0,0-4.28-3.44,18.26,18.26,0,0,0-12.54,0,10.18,10.18,0,0,0-4.34,3.44,15.9,15.9,0,0,0-2.53,6,40.88,40.88,0,0,0-.81,8.74c0,1.23,0,2.39.1,3.48H170l0-8.73Z"/><path class="cls-2" d="M119.44,147.08a21.8,21.8,0,0,1-.19,3.75,6.37,6.37,0,0,1-.8,2.42,3.34,3.34,0,0,1-1.56,1.34,6.61,6.61,0,0,1-2.47.41,6.76,6.76,0,0,1-2.49-.41,3.54,3.54,0,0,1-1.62-1.34,6.69,6.69,0,0,1-.92-2.42,20.89,20.89,0,0,1-.36-3.75l-.25-9.44H99.85c0,1.22,0,2.51,0,3.88a44.83,44.83,0,0,0,1.11,9.23,17.19,17.19,0,0,0,2.75,6.22,10.83,10.83,0,0,0,4.49,3.55,16.37,16.37,0,0,0,6.37,1.13,16,16,0,0,0,6.33-1.13,10.12,10.12,0,0,0,4.32-3.55,16.26,16.26,0,0,0,2.46-6.22,44.18,44.18,0,0,0,.67-9.23c0-1.37-.08-2.66-.18-3.88h-8.92l.19,9.44Z"/><polygon class="cls-2" points="130.89 188.5 155.81 188.5 155.8 182.04 147.95 182.04 147.75 150.29 139 150.29 128.29 156.8 131.78 162.22 139.55 157.52 139.81 182.04 130.79 182.04 130.89 188.5 130.89 188.5"/><polygon class="cls-2" points="120.55 181.39 111.94 181.39 101.49 187.69 105 192.94 112.58 188.39 113.01 205.9 121.05 205.9 120.55 181.39 120.55 181.39"/><path class="cls-2" d="M196.59,184.23a16,16,0,0,0,6.25,1.1,16.4,16.4,0,0,0,6.3-1.1,10.58,10.58,0,0,0,4.42-3.46,16.59,16.59,0,0,0,2.71-6.08,50.54,50.54,0,0,0,.53-18.08,16.1,16.1,0,0,0-2.39-6.23,10,10,0,0,0-4.31-3.58,15.83,15.83,0,0,0-6.37-1.15,16.19,16.19,0,0,0-6.42,1.15,10.64,10.64,0,0,0-4.47,3.58,16.85,16.85,0,0,0-2.67,6.23,43.22,43.22,0,0,0-1,9.08,41.93,41.93,0,0,0,.68,9,15.83,15.83,0,0,0,2.43,6.08,10,10,0,0,0,4.27,3.46ZM198,171.12l.22-10.88q.09-4.38,1.24-6.13c.77-1.17,2.14-1.75,4.11-1.75s3.31.58,4,1.75,1,3.21,1,6.13l-.28,10.88a21,21,0,0,1-.35,3.66,6.69,6.69,0,0,1-.9,2.36,3.48,3.48,0,0,1-1.61,1.3,6.5,6.5,0,0,1-2.45.41,6.37,6.37,0,0,1-2.44-.41,3.23,3.23,0,0,1-1.55-1.3,6.34,6.34,0,0,1-.8-2.36,23,23,0,0,1-.19-3.66Z"/><path class="cls-3" d="M203.53,94.13l.33-15.37c.52-23.83-18.36-42.94-42.92-42.94s-43.45,19.11-43,42.94h15.46c-.2-15.25,11.83-27.27,27.5-27.27s25.95,12,25.75,27.27l-.2,15.37H90.05l1.21,34.53H228.74l1.2-34.53Z"/><polygon class="cls-1" points="94.38 214.1 94.38 214.03 94.23 214.03 95.02 236.65 224.97 236.65 225.76 214.03 225.75 214.03 225.75 214.1 94.38 214.1 94.38 214.1"/><polygon class="cls-4" points="186.94 214.1 225.75 214.1 225.75 214.03 186.98 214.03 186.94 214.1 186.94 214.1"/><polygon class="cls-4" points="128.94 214.03 128.94 214.1 162.96 214.1 162.93 214.03 128.94 214.03 128.94 214.03"/><polygon class="cls-4" points="104.35 214.1 104.35 214.03 94.38 214.03 94.38 214.1 104.35 214.1 104.35 214.1"/><polygon class="cls-4" points="178.3 214.1 186.98 214.03 178.39 214.03 178.3 214.1 178.3 214.1"/><polygon class="cls-4" points="171.52 214.03 162.93 214.03 162.96 214.1 171.6 214.1 171.52 214.03 171.52 214.03"/></svg>