<svg id="Layer_1" data-name="Layer 1" xmlns="http://www.w3.org/2000/svg" viewBox="0 0 300 300"><defs><style>.cls-1{fill:#9f3493;}.cls-2{fill:#bdd3e2;}.cls-3{fill:#5c5276;}</style></defs><title>OSF-Icon-lobby-l</title><path class="cls-1" d="M177.51,203.74h-2.29a42,42,0,0,1-37.45,0h-2.28c-17.55,0-29.73,13.9-27.47,31.77l7.55,28.67h82.11l7.3-28.67c3.59-16.09-9.92-31.77-27.47-31.77Z"/><path class="cls-2" d="M121.11,96.88a38,38,0,0,1-6.42-17.21,35.25,35.25,0,0,1-.11-6.49C97,75.9,84.55,88.28,86.1,102.6c1.16,10.64,9.72,19.63,21.45,24.11a34.21,34.21,0,0,1-1,10c-.14.47-1.16,3.28-1.16,3.28s10.62-5.31,13.42-10.56a49.26,49.26,0,0,0,7.42.29c11.22-.43,20.86-4.66,27-11a63.47,63.47,0,0,1-18.49-8.45,49.83,49.83,0,0,1-13.59-13.39Z"/><path class="cls-2" d="M174.33,116.86a63.81,63.81,0,0,0,10-1.17,42.26,42.26,0,0,0,16.91,11l3.33,1a34.36,34.36,0,0,1-5.7-16.94c14.7-7.34,23.72-20.52,22.14-35.18C218.7,53.9,194,37.18,165.81,38.25c-25.17,1-44.55,15.82-46.71,34.46l.92,0c20.44-.78,38.4,11.36,40.1,27.12a22.52,22.52,0,0,1-3.94,15.27,66.06,66.06,0,0,0,18.15,1.81Z"/><path class="cls-3" d="M97.09,190.42c9.68-.17,16.61-9.31,15.46-20.39s-10-19.94-19.65-19.77-16.61,9.32-15.46,20.39,10,19.94,19.65,19.77Z"/><path class="cls-3" d="M215.06,190.85c9.71-.24,18.19-9.63,18.9-20.94s-6.62-20.32-16.34-20.09-18.19,9.64-18.9,21,6.62,20.32,16.34,20.08Z"/><path class="cls-1" d="M156.31,201.45c17.07,0,30.89-15.85,30.89-35.43s-13.82-35.43-30.89-35.43-30.9,15.85-30.9,35.43,13.82,35.43,30.9,35.43Z"/><path class="cls-3" d="M75.94,230.27l27.93-.13c-.43-15,7-21.67,17.67-27.52-3.08-3.05-9.28-7.71-14.14-7.71H89.75c-9.75,0-19.92,6.15-17.65,17.65l3.84,17.71Z"/><path class="cls-3" d="M240.13,212.56c2.27-11.5-7.9-17.65-17.65-17.65H204.83c-4.85,0-11.06,4.66-14.14,7.71,10.68,5.85,19.17,12.49,18.74,27.52l26.65.13,4-17.71Z"/></svg>