<svg id="Layer_1" data-name="Layer 1" xmlns="http://www.w3.org/2000/svg" viewBox="0 0 170 105"><defs><style>.cls-1{fill:#fff;}</style></defs><title>OSF-Icon-vrkiezingen copy</title><polygon class="cls-1" points="10.54 102.32 30.2 98.92 15.6 82.91 10.54 102.32 10.54 102.32"/><path class="cls-1" d="M109.7,19.14l-8-8.72c-2.49-2.72-6.9-2.72-9.85,0L83.72,17a1.86,1.86,0,0,0-.23,2.6L99,36.58a1.84,1.84,0,0,0,2.59,0L108.84,29c3-2.73,3.35-7.14.86-9.85"/><path class="cls-1" d="M95,42.63a1.86,1.86,0,0,0,.23-2.6l-15.48-17a1.85,1.85,0,0,0-2.61,0L18.27,72.68l-1.76,6.74,4.81,5.27,2.47-9.42h6.93l-.8,9.17h9.17l-.61,6.93L28.92,93l4.81,5.29,6.86-1.19L95,42.63ZM38.33,71.9,34.76,68l42.56-36.7,2.85,3.13L38.33,71.9Z"/></svg>