<svg id="Layer_1" data-name="Layer 1" xmlns="http://www.w3.org/2000/svg" viewBox="0 0 300 300"><defs><style>.cls-1{fill:#9f3493;}.cls-2{fill:#5c5276;}.cls-3{fill:#aebed5;}.cls-4{fill:#bdd3e2;}</style></defs><title>OSF-Icon-ontsluiting-l</title><path class="cls-1" d="M207.11,96.89,208,111c.34,5.31,13,9.51,28.21,9.47s27.75-4.31,28-9.61L265,96.8c-6.4,4.64-17.7,6.79-28.89,6.81s-22.57-2.09-29-6.72Z"/><path class="cls-1" d="M236,70.66c-15.58,0-28.21,4.37-29.73,9.87,2.16,5.38,14.81,9.48,29.8,9.46s27.51-4.13,29.62-9.49C264.18,75,251.58,70.66,236,70.66Z"/><path class="cls-1" d="M236.1,90c-15,0-27.64-4.08-29.8-9.46a4.24,4.24,0,0,0-.14,1.37l.43,6.78C207,94.5,220.2,99.12,236.13,99.1s29.05-4.68,29.37-10.49l.38-6.75a4.16,4.16,0,0,0-.16-1.36C263.61,85.86,251.06,90,236.1,90Z"/><path class="cls-1" d="M126.82,64.07l.83,13.24c.32,5,12.17,8.91,26.44,8.87s26-4,26.28-9L181.1,64c-6,4.35-16.59,6.36-27.07,6.38s-21.14-2-27.21-6.3Z"/><path class="cls-1" d="M153.92,39.49c-14.6,0-26.43,4.1-27.86,9.25,2,5,13.87,8.88,27.92,8.87s25.78-3.87,27.76-8.9c-1.45-5.14-13.25-9.22-27.82-9.22Z"/><path class="cls-1" d="M154,57.61c-14,0-25.89-3.83-27.92-8.87a4,4,0,0,0-.13,1.28l.4,6.35c.34,5.46,12.75,9.79,27.68,9.77s27.22-4.39,27.52-9.83l.35-6.32a3.71,3.71,0,0,0-.14-1.28c-2,5-13.73,8.88-27.76,8.9Z"/><path class="cls-2" d="M115.25,234l-1.1,17.21c-.46,7.05,17.34,12.94,39.73,12.94s40.09-5.89,39.51-12.94L192,234c-7.89,5.43-23,8-38.3,8s-30.46-2.56-38.44-8Z"/><path class="cls-2" d="M116.84,209.33l-1,15.61c-.41,6.38,16.52,11.7,37.8,11.7s38.13-5.32,37.61-11.7L190,209.33c-7.54,4.92-22,7.25-36.51,7.25s-29-2.33-36.63-7.25Z"/><polygon class="cls-3" points="122.82 197.4 123.29 197.62 122.82 197.4 122.82 197.4"/><path class="cls-3" d="M122,197l.48.25L122,197Z"/><polygon class="cls-3" points="119.34 195.11 119.09 194.85 119.34 195.11 119.34 195.11"/><path class="cls-3" d="M179.65,199l.49-.16-.49.16Z"/><path class="cls-3" d="M121.15,196.49c.2.13.43.26.66.38-.23-.12-.46-.25-.66-.38Z"/><polygon class="cls-3" points="187.5 194.82 187.24 195.1 187.5 194.82 187.5 194.82"/><path class="cls-3" d="M125.37,198.47l.61.22-.61-.22Z"/><polygon class="cls-3" points="171.53 200.94 171.87 200.88 171.53 200.94 171.53 200.94"/><polygon class="cls-3" points="164.2 201.89 164.56 201.86 164.2 201.89 164.2 201.89"/><path class="cls-3" d="M123.62,197.77l.5.21-.5-.21Z"/><polygon class="cls-3" points="172.61 200.74 173.1 200.65 172.61 200.74 172.61 200.74"/><polygon class="cls-3" points="119.52 195.28 119.81 195.53 119.52 195.28 119.52 195.28"/><path class="cls-3" d="M175,200.27l.5-.11-.5.11Z"/><polygon class="cls-3" points="118.14 193.37 118.14 193.37 118.34 193.82 118.14 193.37 118.14 193.37"/><polygon class="cls-3" points="118.42 193.96 118.61 194.25 118.42 193.96 118.42 193.96"/><path class="cls-3" d="M176.08,200l.5-.12-.5.12Z"/><path class="cls-3" d="M173.79,200.52l.5-.11-.5.11Z"/><path class="cls-3" d="M178.65,199.32c.17,0,.34-.1.51-.15-.17.05-.34.11-.51.15Z"/><path class="cls-3" d="M177.56,199.63l.58-.16-.58.16Z"/><polygon class="cls-3" points="188.4 193.37 188.4 193.37 188.21 193.81 188.4 193.37 188.4 193.37"/><path class="cls-3" d="M120.54,196.09l.59.39-.59-.39Z"/><path class="cls-3" d="M126.32,198.8l.89.29-.89-.29Z"/><polygon class="cls-3" points="120 195.69 120.36 195.96 120 195.69 120 195.69"/><polygon class="cls-3" points="118.73 194.42 118.94 194.68 118.73 194.42 118.73 194.42"/><path class="cls-3" d="M124.48,198.13l.53.2-.53-.2Z"/><polygon class="cls-3" points="187.96 194.24 188.13 193.95 187.96 194.24 187.96 194.24"/><path class="cls-3" d="M140.71,201.71l.81.09-.81-.09Z"/><polygon class="cls-3" points="165.47 201.76 165.95 201.71 165.47 201.76 165.47 201.76"/><path class="cls-3" d="M139.28,201.54l.81.1-.81-.1Z"/><polygon class="cls-3" points="185.53 196.43 185.93 196.17 185.53 196.43 185.53 196.43"/><path class="cls-3" d="M166.81,201.62l.5-.06-.5.06Z"/><path class="cls-3" d="M137.83,201.36l.86.11-.86-.11Z"/><path class="cls-3" d="M145.14,202.1l1.19.07-1.19-.07Z"/><path class="cls-3" d="M136.09,201.1l1.23.19-1.23-.19Z"/><path class="cls-3" d="M182.36,198l.78-.33-.78.33Z"/><path class="cls-3" d="M183.41,197.58l.49-.23-.49.23Z"/><path class="cls-3" d="M143.64,202l.9.07-.9-.07Z"/><path class="cls-3" d="M142.17,201.86l.83.07-.83-.07Z"/><polygon class="cls-3" points="184.2 197.19 184.62 196.97 184.2 197.19 184.2 197.19"/><polygon class="cls-3" points="184.9 196.81 185.29 196.59 184.9 196.81 184.9 196.81"/><path class="cls-3" d="M129.87,199.84l.67.16-.67-.16Z"/><polygon class="cls-3" points="169.47 201.27 169.78 201.22 169.47 201.27 169.47 201.27"/><polygon class="cls-3" points="187.63 194.67 187.84 194.4 187.63 194.67 187.63 194.67"/><path class="cls-3" d="M131,200.12l.67.15-.67-.15Z"/><path class="cls-3" d="M127.3,199.12l1,.31-1-.31Z"/><path class="cls-3" d="M128.71,199.53l.71.19-.71-.19Z"/><path class="cls-3" d="M180.6,198.7l.48-.17-.48.17Z"/><path class="cls-3" d="M181.5,198.38l.52-.21-.52.21Z"/><polygon class="cls-3" points="186.72 195.57 187.09 195.24 186.72 195.57 186.72 195.57"/><path class="cls-3" d="M133.45,200.63l.79.15-.79-.15Z"/><path class="cls-3" d="M134.72,200.87l1.05.18-1.05-.18Z"/><path class="cls-3" d="M186.11,196c.19-.13.36-.26.52-.39-.16.13-.33.26-.52.39Z"/><polygon class="cls-3" points="168.15 201.45 168.62 201.39 168.15 201.45 168.15 201.45"/><path class="cls-3" d="M132.23,200.38l.71.15-.71-.15Z"/><path class="cls-1" d="M208.47,118.51l.82,12.92c.31,4.86,12.41,8.7,27,8.64s26.57-4,26.84-8.84l.72-12.87c-6.11,4.24-16.92,6.22-27.61,6.25s-21.58-1.87-27.76-6.1Z"/><path class="cls-4" d="M236.28,140.07a77,77,0,0,1-8.51-.43,11.5,11.5,0,0,1-3.08,5.51c-4.54,5.66-29.05,6.61-39.64,7.58-8.32.77-16.94,1.6-24,5V104.18c-2.2.22-4.51.34-6.91.35s-5-.1-7.25-.32v47.31c-4.12-5.45-18.23-19-64-26,23.06-1.32,45.45,5.38,54.92,12.12,0-1.06,0-2.09-.14-3.17-1.76-16.28-15-25.61-30.23-25.67l-12,0C67.61,108.79,50.23,96,50.23,96s13,74.2,60.61,75c12,.21,20-7.3,23.71-14.58,7.8,1.29,11,6,12.35,10.18V174l-.1,10.82c-14.8.78-26.5,4.2-28.66,8.51l.2.45.08.14.19.29.12.17.21.26.15.17.25.26.18.17.29.25.19.16.37.27.17.13.59.39h0c.2.13.43.26.66.38l.23.13.48.25.3.15.47.22.33.15.5.21.36.15.53.2.36.14.61.22.34.11.89.29.09,0,1,.31.38.1.71.19.45.12.67.16.5.12.67.15.52.11.71.15.51.1.79.15.48.09,1.05.18.32,0,1.23.19.51.07.86.11.59.07.81.1.62.07.81.09.65.06.83.07.64.06.9.07.6,0,1.19.07.32,0c2.17.12,4.41.18,6.7.18,2.94,0,5.8-.1,8.52-.29l2.33-.19.36,0,.91-.1.48,0,.86-.09.5-.06.84-.11.47-.06.85-.12.31-.05,1.75-.28.34-.06.74-.14.49-.09.69-.13.5-.11.66-.14.5-.11.63-.15.5-.12,1-.26.58-.16c.17,0,.34-.1.51-.15s.34-.1.51-.15l.49-.15.49-.16.46-.16.48-.17.42-.15.52-.21.34-.13.78-.33.27-.13.49-.23.3-.16.42-.22.28-.16.39-.22.24-.16.4-.26.18-.13c.19-.13.36-.26.52-.39l.09-.08.37-.33.15-.14.26-.28.13-.15.21-.27.12-.16.17-.29.08-.14.19-.44C186.29,189.29,175.65,186,162,185l0-6.22a9.44,9.44,0,0,1,4.23-7.8l.64-.38c4.78-2.42,11.93-3.07,19.51-3.77,12.45-1.15,41.06-2.48,49.38-12.81,4-4,5.55-9.85,6.1-14.18-1.8.14-3.67.21-5.58.22Z"/><path class="cls-2" d="M153.35,202.37c-18.39,0-33.34-4-35.21-9a3.24,3.24,0,0,0-.36,1.26l-.41,6.42c-.37,5.81,15.77,10.64,36.06,10.64s36.34-4.83,35.87-10.64l-.52-6.42a3.11,3.11,0,0,0-.38-1.26c-1.79,5-16.66,9-35.05,9Z"/><path class="cls-1" d="M128.1,84.33l.76,12.1c.29,4.56,11.63,8.16,25.29,8.1s24.9-3.74,25.15-8.28L180,84.18c-5.73,4-15.85,5.84-25.88,5.87s-20.21-1.76-26-5.72Z"/></svg>