<svg id="Layer_1" data-name="Layer 1" xmlns="http://www.w3.org/2000/svg" viewBox="0 0 300 300"><defs><style>.cls-1{fill:#5c5276;}.cls-2{fill:#9f3493;}.cls-3{fill:#bdd3e2;}</style></defs><title>OSF-Icon-ulpmiddelen-l</title><polygon class="cls-1" points="111.54 246.47 117.31 264.18 151.12 264.18 162.21 246.85 164.01 230.75 112.12 229.93 111.54 246.47 111.54 246.47"/><path class="cls-2" d="M206.66,152.56c6-38.84-18.94-74.8-56.94-76.68-40.76-2-70.34,34.21-70,72.72a67.88,67.88,0,0,0,15.63,43.47c5.67,6.71,14.2,20.29,17.07,31.19v0l15.81.21v0a14.72,14.72,0,0,0-.43-4.53,104.06,104.06,0,0,0-19.65-37.82,49.39,49.39,0,0,1-10.73-31.95c.35-30,24.2-52.67,50.71-51.5,27,1.19,45.54,26.43,41.82,54.38-.18,1.32-.42,2.62-.68,3.91l15.22,6.39a75.39,75.39,0,0,0,2.2-9.77Z"/><path class="cls-2" d="M150.35,219.18a16,16,0,0,0-1.14,4.56v0l15.54.2h0a79.17,79.17,0,0,1,7.79-13.88L166,192.88a116.1,116.1,0,0,0-15.67,26.3Z"/><path class="cls-1" d="M234,220l-14.29-15.27,24.52-18.21-81.62-30.44L194,244.23l15.05-25.36,12.47,12.57a3.58,3.58,0,0,0,4.92.16l7.43-8.4A2.48,2.48,0,0,0,234,220Z"/><path class="cls-3" d="M218.51,124c-.12-1.24-.29-2.46-.47-3.67s-.4-2.4-.67-3.58l18.21-1.24c-.07,1.6-.2,3.18-.36,4.75s-.42,3.12-.69,4.66l-16-.92Z"/><path class="cls-3" d="M205.49,91.8c-.7-.89-1.47-1.76-2.21-2.61s-1.54-1.69-2.34-2.5l19.7-16.77q1.47,2,2.87,4c.92,1.36,1.78,2.77,2.59,4.19L205.49,91.8Z"/><path class="cls-3" d="M178.28,71.11c-1.05-.48-2.13-.93-3.2-1.37s-2.16-.83-3.25-1.23l9.86-26.93c1.51.56,3,1.17,4.49,1.82s3,1.33,4.41,2.05L178.28,71.11Z"/><path class="cls-3" d="M144.62,63.78c-2.31,0-4.6.14-6.88.34l-4-27a85.84,85.84,0,0,1,9.71-1.21l1.13,27.9Z"/><path class="cls-3" d="M111.45,72.05c-1,.56-2.06,1.14-3,1.76s-2,1.26-3,1.93L91.31,59.52c1.11-1.14,2.25-2.27,3.43-3.35S97.17,54,98.43,53l13,19Z"/><path class="cls-2" d="M155.51,109.11c-42.74-10.79-69.76,47.63-29.14,76.21-29.69-53.92,15.45-58.95,15.45-58.95l13.69-17.26Z"/></svg>